<svg xmlns="http://www.w3.org/2000/svg" width="13.138" height="9.905" viewBox="0 0 13.138 9.905">
  <g id="icon-arrow-right" transform="translate(-17.225 -25.246)">
    <g id="Group_68" data-name="Group 68" transform="translate(17.225 25.246)">
      <g id="Group_67" data-name="Group 67" transform="translate(0 0)">
        <g id="Group_66" data-name="Group 66">
          <g id="Group_65" data-name="Group 65">
            <path id="Path_310" data-name="Path 310" d="M14.614,14.173,10.405,9.964A.732.732,0,1,0,9.37,11l2.967,2.967H2.456a.731.731,0,0,0,0,1.463h9.867L9.37,18.4a.725.725,0,0,0,0,1.035.754.754,0,0,0,.524.221.721.721,0,0,0,.524-.221l4.223-4.223a.754.754,0,0,0,.221-.524A.937.937,0,0,0,14.614,14.173Z" transform="translate(-1.725 -9.746)" fill="#3e96ff"/>
          </g>
        </g>
      </g>
    </g>
  </g>
</svg>
