<svg height='100px' width='100px'  fill="#254f90" xmlns="http://www.w3.org/2000/svg" xmlns:xlink="http://www.w3.org/1999/xlink" version="1.1" x="0px" y="0px" viewBox="0 0 1024 1024" style="enable-background:new 0 0 1024 1024;" xml:space="preserve"><path d="M883.8,172.9c0-0.8-0.1-1.4-0.2-1.7C883.9,171.8,884.2,174,883.8,172.9z"></path><path d="M883.8,608.5"></path><g><g><g><path d="M282,308c0-44.5,0-89.1,0-133.6c0-7.1-0.5-14.6,0.4-21.7c-0.7,5.3-1.4,10.6-2.1,16c0.5-3.1,1.3-6,2.5-8.9     c-2,4.8-4,9.6-6,14.3c1.2-2.8,2.7-5.3,4.5-7.8c-3.1,4-6.3,8.1-9.4,12.1c2.1-2.7,4.5-5.1,7.2-7.2c-4,3.1-8.1,6.3-12.1,9.4     c2.5-1.8,5-3.3,7.8-4.6c-4.8,2-9.6,4-14.3,6c3.3-1.4,6.7-2.3,10.2-2.9c-5.3,0.7-10.6,1.4-16,2.1c6.8-0.8,13.9-0.4,20.7-0.4     c14.5,0,29,0,43.5,0c48.5,0,97,0,145.5,0c58.9,0,117.7,0,176.6,0c50.4,0,100.9,0,151.3,0c24.1,0,48.3-0.1,72.4,0     c2.1,0,4.1,0.1,6.2,0.4c-5.3-0.7-10.6-1.4-16-2.1c3.6,0.6,6.9,1.5,10.3,2.9c-4.8-2-9.6-4-14.3-6c3.2,1.5,6.2,3.2,9,5.4     c-4-3.1-8.1-6.3-12.1-9.4c2.4,1.9,4.4,4.1,6.4,6.4c-3.1-4-6.3-8.1-9.4-12.1c1.8,2.5,3.3,5,4.6,7.8c-2-4.8-4-9.6-6-14.3     c1.2,2.9,2,5.8,2.6,8.9c-0.7-5.3-1.4-10.6-2.1-16c1,7.6,0.4,15.5,0.4,23.2c0,16.9,0,33.9,0,50.8c0,25.3,0,50.6,0,76     c0,31,0,62,0,93c0,34.2,0,68.4,0,102.6c0,34.4,0,68.7,0,103.1c0,32,0,64,0,96c0,27,0,53.9,0,80.9c0,19.2,0,38.5,0,57.7     c0,8.9,0,17.7,0,26.6c0,2.1-0.1,4.2-0.4,6.4c0.7-5.3,1.4-10.6,2.1-16c-0.5,3.1-1.4,6.1-2.6,9.1c2-4.8,4-9.6,6-14.3     c-1.5,3.3-3.2,6.3-5.4,9.1c3.1-4,6.3-8.1,9.4-12.1c-2,2.4-4.1,4.6-6.6,6.6c4-3.1,8.1-6.3,12.1-9.4c-2.9,2.2-5.9,4-9.1,5.4     c4.8-2,9.6-4,14.3-6c-3,1.2-5.9,2-9.1,2.6c5.3-0.7,10.6-1.4,16-2.1c-6.8,0.9-13.9,0.4-20.7,0.4c-14.5,0-29,0-43.5,0     c-48.5,0-97,0-145.5,0c-58.9,0-117.7,0-176.6,0c-50.4,0-100.9,0-151.3,0c-24.1,0-48.3,0.1-72.4,0c-2.1,0-4.1-0.1-6.2-0.4     c5.3,0.7,10.6,1.4,16,2.1c-3.1-0.5-6.1-1.4-9-2.6c4.8,2,9.6,4,14.3,6c-2.8-1.3-5.5-2.8-8-4.6c4,3.1,8.1,6.3,12.1,9.4     c-2.8-2.2-5.3-4.6-7.5-7.4c3.1,4,6.3,8.1,9.4,12.1c-2.1-2.9-3.9-5.9-5.3-9.1c2,4.8,4,9.6,6,14.3c-1.2-3-2-5.9-2.5-9.1     c0.7,5.3,1.4,10.6,2.1,16c-0.8-6-0.4-12.3-0.4-18.4c0-11.8,0-23.6,0-35.3c0-27,0-54.1,0-81.1c0-6.3,0-12.7,0-19     c0-15.4-6.7-31.5-17.6-42.4C254,662.2,236.9,654.3,222,655c-15.5,0.7-31.6,5.8-42.4,17.6C168.7,684.3,162,698.7,162,715     c0,43,0,86,0,129c0,6.3-0.1,12.6,0,18.9c0.4,34.8,19,69.8,50.4,86.5c15.6,8.3,31.8,12.5,49.4,12.6c2.9,0,5.9,0,8.8,0     c32.1,0,64.2,0,96.3,0c52.3,0,104.6,0,156.9,0c56,0,112,0,168.1,0c43.3,0,86.6,0,129.9,0c11.7,0,23.5,0,35.2,0c2.5,0,5,0,7.5,0     c26-0.1,48.7-10,68-26.8c20.4-17.7,31.2-45.6,31.5-72.2c0-1.9,0-3.8,0-5.7c0-9.8,0-19.7,0-29.5c0-38.6,0-77.3,0-115.9     c0-53.7,0-107.4,0-161.1c0-56.4,0-112.8,0-169.2c0-47.1,0-94.2,0-141.3c0-25.7,0-51.3,0-77c0-1.6,0-3.3,0-4.9     c-0.5-34.4-18.4-65.8-47.9-83.5C897.4,63.7,876.7,61,855.6,61c-31.6,0-63.2,0-94.8,0c-52.1,0-104.2,0-156.2,0     c-56.3,0-112.5,0-168.8,0c-43.7,0-87.4,0-131.1,0c-32.7,0-70.3-4-98.4,16c-12.8,9.1-19.7,15.9-28.8,28.8     c-5.5,7.7-9.2,16.8-11.9,25.8c-2.7,9-3.7,18.7-3.7,28c0,7.3,0,14.5,0,21.8c0,26.8,0,53.7,0,80.5c0,15.4,0,30.7,0,46.1     c0,15.4,6.7,31.5,17.6,42.4c10.4,10.4,27.5,18.2,42.4,17.6c15.5-0.7,31.6-5.8,42.4-17.6C275.2,338.7,282,324.3,282,308L282,308z"></path></g></g><g><g><path d="M447.3,381.2c19.6,19.6,39.2,39.2,58.7,58.7c30.9,30.9,61.9,61.9,92.8,92.8c7.2,7.2,14.3,14.3,21.5,21.5     c0-28.3,0-56.6,0-84.9c-19.6,19.6-39.2,39.2-58.7,58.7c-30.9,30.9-61.9,61.9-92.8,92.8c-7.2,7.2-14.3,14.3-21.5,21.5     c-10.9,10.9-17.6,27-17.6,42.4c0,14.7,6.5,32.3,17.6,42.4c11.4,10.5,26.4,18.3,42.4,17.6c15.9-0.7,30.9-6.1,42.4-17.6     c19.6-19.6,39.2-39.2,58.7-58.7c30.9-30.9,61.9-61.9,92.8-92.8c7.2-7.2,14.3-14.3,21.5-21.5c22.9-22.9,23-61.9,0-84.9     c-19.6-19.6-39.2-39.2-58.7-58.7c-30.9-30.9-61.9-61.9-92.8-92.8c-7.2-7.2-14.3-14.3-21.5-21.5c-10.9-10.9-27-17.6-42.4-17.6     c-14.7,0-32.3,6.5-42.4,17.6c-10.5,11.4-18.3,26.4-17.6,42.4C430.5,354.7,435.8,369.7,447.3,381.2L447.3,381.2z"></path></g></g><g><g><path d="M120,571.8c18,0,35.9,0,53.9,0c43.2,0,86.3,0,129.5,0c52.2,0,104.5,0,156.7,0c45.2,0,90.4,0,135.6,0     c22,0,44.1,0.2,66.1,0c0.3,0,0.6,0,0.9,0c15.4,0,31.5-6.7,42.4-17.6c10.4-10.4,18.2-27.5,17.6-42.4c-0.7-15.5-5.8-31.6-17.6-42.4     c-11.7-10.8-26.2-17.6-42.4-17.6c-18,0-35.9,0-53.9,0c-43.2,0-86.3,0-129.5,0c-52.2,0-104.5,0-156.7,0c-45.2,0-90.4,0-135.6,0     c-22,0-44.1-0.2-66.1,0c-0.3,0-0.6,0-0.9,0c-15.4,0-31.5,6.7-42.4,17.6c-10.4,10.4-18.2,27.5-17.6,42.4     c0.7,15.5,5.8,31.6,17.6,42.4C89.4,565,103.8,571.8,120,571.8L120,571.8z"></path></g></g></g></svg>