<svg xmlns="http://www.w3.org/2000/svg" xmlns:xlink="http://www.w3.org/1999/xlink" width="21" height="21" viewBox="0 0 100 100"><g><g transform="translate(50 50) scale(0.69 0.69) rotate(0) translate(-50 -50)" style="fill:#672f8d"><svg fill="#672f8d" xmlns="http://www.w3.org/2000/svg" xmlns:xlink="http://www.w3.org/1999/xlink" version="1.1" x="0px" y="0px" viewBox="0 0 100 100" enable-background="new 0 0 100 100" xml:space="preserve"><g><circle cx="29.9" cy="49.7" r="5.5"></circle><circle cx="49.6" cy="49.7" r="5.5"></circle><circle cx="69.3" cy="49.7" r="5.5"></circle><path d="M49.3,6.9C25.5,6.9,6.1,26.3,6.1,50.1c0,23.8,19.4,43.2,43.2,43.2S92.6,74,92.6,50.1C92.6,26.3,73.2,6.9,49.3,6.9z    M49.3,87.4c-20.5,0-37.2-16.7-37.2-37.2c0-20.5,16.7-37.2,37.2-37.2s37.2,16.7,37.2,37.2C86.6,70.7,69.9,87.4,49.3,87.4z"></path></g></svg></g></g></svg>