<svg xmlns="http://www.w3.org/2000/svg" xmlns:xlink="http://www.w3.org/1999/xlink" width="100" height="100" viewBox="0 0 100 100"><g><g transform="translate(50 50) scale(0.69 0.69) rotate(0) translate(-50 -50)" style="fill:#ffbb33"><svg fill="#ffbb33" xmlns="http://www.w3.org/2000/svg" data-name="Layer 1" viewBox="0 0 100 100" x="0px" y="0px"><title>Artboard 275</title><path d="M12,94H88.08A9.73,9.73,0,0,0,96.53,79.4L56.92,10.07a8,8,0,0,0-13.91,0L3.48,79.24A9.84,9.84,0,0,0,12,94Zm-1.6-10.75L50,14h0L89.58,83.37a1.65,1.65,0,0,1,0,1.73,1.68,1.68,0,0,1-1.5.86H12a1.84,1.84,0,0,1-1.6-2.75Z"></path><path d="M50,62a4,4,0,0,0,4-4V42a4,4,0,0,0-8,0V58A4,4,0,0,0,50,62Z"></path><circle cx="49.96" cy="73.96" r="4"></circle></svg></g></g></svg>