<svg height='100px' width='100px'  fill="#0063e8" xmlns:x="http://ns.adobe.com/Extensibility/1.0/" xmlns:i="http://ns.adobe.com/AdobeIllustrator/10.0/" xmlns:graph="http://ns.adobe.com/Graphs/1.0/" xmlns="http://www.w3.org/2000/svg" xmlns:xlink="http://www.w3.org/1999/xlink" version="1.1" x="0px" y="0px" viewBox="0 0 100 100" style="enable-background:new 0 0 100 100;" xml:space="preserve"><g><g i:extraneous="self"><path d="M50,2.5C23.8,2.5,2.5,23.8,2.5,50S23.8,97.5,50,97.5c26.2,0,47.5-21.3,47.5-47.5S76.2,2.5,50,2.5z M76.6,52.7L59.3,70    c-0.7,0.7-1.7,1.1-2.7,1.1c-1,0-1.9-0.4-2.7-1.1c-1.5-1.5-1.5-3.9,0-5.3l10.9-10.9H26.1c-2.1,0-3.8-1.7-3.8-3.8s1.7-3.8,3.8-3.8    h38.7L53.9,35.4c-1.5-1.5-1.5-3.9,0-5.3c1.5-1.5,3.9-1.5,5.3,0l17.3,17.3c0.7,0.7,1.1,1.7,1.1,2.7S77.3,52,76.6,52.7z"></path></g></g></svg>