<svg xmlns="http://www.w3.org/2000/svg" xmlns:xlink="http://www.w3.org/1999/xlink" width="100" height="100" viewBox="0 0 100 100"><g><g transform="translate(50 50) scale(0.69 0.69) rotate(0) translate(-50 -50)" style="fill:#672f8d"><svg fill="#672f8d" xmlns="http://www.w3.org/2000/svg" xmlns:xlink="http://www.w3.org/1999/xlink" version="1.1" x="0px" y="0px" viewBox="0 0 100 100" style="enable-background:new 0 0 100 100;" xml:space="preserve"><g><path d="M50,18.6c-17.3,0-31.4,14.1-31.4,31.4S32.7,81.4,50,81.4S81.4,67.3,81.4,50S67.3,18.6,50,18.6z M50,75.8   c-14.2,0-25.8-11.6-25.8-25.8S35.8,24.2,50,24.2S75.8,35.8,75.8,50S64.2,75.8,50,75.8z"></path><circle cx="50" cy="50" r="4.2"></circle><circle cx="36.1" cy="50" r="4.2"></circle><circle cx="63.9" cy="50" r="4.2"></circle></g></svg></g></g></svg>