<svg xmlns="http://www.w3.org/2000/svg" width="24.615" height="21.102" viewBox="0 0 24.615 21.102">
  <g id="noun_Warning_861564-2" transform="translate(-8.005 -966.36)">
    <path id="Path_340" data-name="Path 340" d="M20.248,966.361a1.375,1.375,0,0,0-1.126.669L8.187,985.466a1.3,1.3,0,0,0,0,1.333,1.377,1.377,0,0,0,1.187.664H31.248a1.377,1.377,0,0,0,1.187-.664,1.3,1.3,0,0,0,0-1.333L21.494,967.03a1.378,1.378,0,0,0-1.246-.669Zm.064,7.155c.647,0,1.181.181,1.181.828l-.3,4.619a.879.879,0,0,1-1.758,0l-.293-4.619C19.14,973.7,19.665,973.516,20.313,973.516Zm0,7.792a1.172,1.172,0,1,1-1.172,1.172A1.172,1.172,0,0,1,20.313,981.308Z" transform="translate(0)" fill="#e0221f"/>
  </g>
</svg>
