<svg xmlns="http://www.w3.org/2000/svg" width="15.678" height="15.627" viewBox="0 0 15.678 15.627">
  <g id="icon-enterData" transform="translate(-79.964 -81)">
    <path id="Path_376" data-name="Path 376" d="M883.6,171.231a.108.108,0,0,0,0-.031C883.605,171.211,883.611,171.251,883.6,171.231Z" transform="translate(-789.052 -88.563)" fill="#254f90"/>
    <path id="Path_377" data-name="Path 377" d="M883.8,608.5" transform="translate(-789.248 -517.927)" fill="#254f90"/>
    <g id="Group_254" data-name="Group 254" transform="translate(79.964 81)">
      <g id="Group_249" data-name="Group 249" transform="translate(1.848 0)">
        <g id="Group_248" data-name="Group 248">
          <path id="Path_378" data-name="Path 378" d="M183.234,85.664V82.769a3.666,3.666,0,0,1,.007-.468c-.009.064-.018.129-.025.192a.713.713,0,0,1,.045-.162c-.024.058-.049.116-.073.174a.734.734,0,0,1,.082-.142l-.114.147a.741.741,0,0,1,.131-.131l-.147.114a.852.852,0,0,1,.142-.083l-.174.073a.829.829,0,0,1,.185-.053c-.063.009-.129.018-.192.025a3.244,3.244,0,0,1,.376-.007h9.38c.437,0,.877,0,1.314,0a.781.781,0,0,1,.113.007c-.064-.009-.129-.018-.192-.025a.844.844,0,0,1,.187.053l-.174-.073a.83.83,0,0,1,.163.1l-.147-.114a.877.877,0,0,1,.116.116l-.114-.147a.854.854,0,0,1,.083.142c-.024-.058-.049-.116-.073-.174a.826.826,0,0,1,.047.162c-.009-.064-.018-.129-.025-.192a3.25,3.25,0,0,1,.007.421V95.184a.849.849,0,0,1-.007.116c.009-.064.018-.129.025-.192a.776.776,0,0,1-.047.165c.024-.058.049-.116.073-.174a.794.794,0,0,1-.1.165l.114-.147a.83.83,0,0,1-.12.12l.147-.114a.808.808,0,0,1-.165.1l.174-.073a.86.86,0,0,1-.165.047c.064-.009.129-.018.192-.025a2.884,2.884,0,0,1-.376.007h-9.38c-.437,0-.877,0-1.314,0a.78.78,0,0,1-.113-.007c.064.009.129.018.192.025a.732.732,0,0,1-.163-.047l.174.073a.886.886,0,0,1-.145-.083l.147.114a.794.794,0,0,1-.136-.134l.114.147a.89.89,0,0,1-.1-.165c.024.058.049.116.073.174a.743.743,0,0,1-.045-.165c.009.064.018.129.025.192a3.026,3.026,0,0,1-.007-.385V91.965a.726.726,0,1,0-1.452,0v2.37c0,.289-.005.577,0,.866a1.46,1.46,0,0,0,1.007,1.365,1.431,1.431,0,0,0,.455.062h10.7a2.107,2.107,0,0,0,.622-.054,1.464,1.464,0,0,0,1.04-1.372V82.459c0-.044,0-.087,0-.131a1.427,1.427,0,0,0-.408-.909,1.362,1.362,0,0,0-.341-.249,1.632,1.632,0,0,0-.575-.162,3.143,3.143,0,0,0-.37-.007H183.232a1.544,1.544,0,0,0-.706.169,1.405,1.405,0,0,0-.744,1.241c-.009.829,0,1.659,0,2.488v.766a.734.734,0,0,0,.726.726.743.743,0,0,0,.726-.728Z" transform="translate(-181.778 -81)" fill="#4569a0"/>
        </g>
      </g>
      <g id="Group_251" data-name="Group 251" transform="translate(6.352 3.591)">
        <g id="Group_250" data-name="Group 250">
          <path id="Path_379" data-name="Path 379" d="M430.193,280.12l1.183,1.183,1.887,1.887.432.432V282.6l-1.183,1.183-1.887,1.887-.432.432a.726.726,0,0,0,1.027,1.027l1.183-1.183,1.887-1.887.432-.432a.737.737,0,0,0,0-1.027l-1.183-1.183-1.887-1.887-.432-.432a.726.726,0,0,0-1.027,1.027Z" transform="translate(-429.984 -278.884)" fill="#4569a0"/>
        </g>
      </g>
      <g id="Group_253" data-name="Group 253" transform="translate(0 7.09)">
        <g id="Group_252" data-name="Group 252">
          <path id="Path_380" data-name="Path 380" d="M80.691,473.121h8.633c.4,0,.8.005,1.2,0h.016a.726.726,0,0,0,0-1.452H81.907c-.4,0-.8-.005-1.2,0h-.016a.726.726,0,1,0,0,1.452Z" transform="translate(-79.964 -471.667)" fill="#4569a0"/>
        </g>
      </g>
    </g>
  </g>
</svg>
