<svg height='100px' width='100px'  fill="#3e96ff" xmlns:x="http://ns.adobe.com/Extensibility/1.0/" xmlns:i="http://ns.adobe.com/AdobeIllustrator/10.0/" xmlns:graph="http://ns.adobe.com/Graphs/1.0/" xmlns="http://www.w3.org/2000/svg" xmlns:xlink="http://www.w3.org/1999/xlink" version="1.1" x="0px" y="0px" viewBox="0 0 100 100" style="enable-background:new 0 0 100 100;" xml:space="preserve"><g><g i:extraneous="self"><path d="M96.5,47.5L64.6,15.6c-1.4-1.4-3.6-1.4-4.9,0c-1.4,1.4-1.4,3.6,0,4.9l26,26H6c-1.9,0-3.5,1.6-3.5,3.5s1.6,3.5,3.5,3.5    h79.7l-26,26c-1.4,1.4-1.4,3.6,0,4.9c0.7,0.7,1.6,1,2.5,1c0.9,0,1.8-0.3,2.5-1l31.9-31.9c0.7-0.7,1-1.5,1-2.5S97.1,48.2,96.5,47.5    z"></path></g></g></svg>