<svg height='100px' width='100px'  fill="#000000" xmlns="http://www.w3.org/2000/svg" xmlns:xlink="http://www.w3.org/1999/xlink" version="1.1" x="0px" y="0px" viewBox="0 0 100 100" style="enable-background:new 0 0 100 100;" xml:space="preserve"><g><path d="M50,93c23.7,0,43-19.3,43-43C93,26.3,73.7,7,50,7C26.3,7,7,26.3,7,50C7,73.7,26.3,93,50,93z M50,13c20.4,0,37,16.6,37,37   c0,20.4-16.6,37-37,37c-20.4,0-37-16.6-37-37C13,29.6,29.6,13,50,13z"></path><path d="M50,59c1.7,0,3-1.3,3-3V33c0-1.7-1.3-3-3-3s-3,1.3-3,3v23C47,57.7,48.3,59,50,59z"></path><path d="M50,70c2.2,0,4-1.8,4-4s-1.8-4-4-4s-4,1.8-4,4S47.8,70,50,70z"></path></g></svg>