<?xml version="1.0" encoding="utf-8"?>
<!-- Generator: Adobe Illustrator 23.0.4, SVG Export Plug-In . SVG Version: 6.00 Build 0)  -->
<svg version="1.1" id="Layer_1" xmlns="http://www.w3.org/2000/svg" xmlns:xlink="http://www.w3.org/1999/xlink" x="0px" y="0px"
	 viewBox="0 0 248.5 50.6" style="enable-background:new 0 0 248.5 50.6;" xml:space="preserve">
<style type="text/css">
	.st0{fill:#231F20;}
	.st1{font-family:'GothamMedium';}
	.st2{font-size:13px;}
	.st3{fill-rule:evenodd;clip-rule:evenodd;fill:#231F20;}
</style>
<g id="Layer_6" transform="translate(-804.439 -858.392)">
	<text transform="matrix(1 0 0 1 926.908 905.974)" class="st0 st1 st2">R &amp; D Tax Incentive</text>
	<g id="Business" transform="translate(927.892 864.333)">
		<path id="Path_53" class="st0" d="M0,0.7h9.7c2.1-0.1,4.1,0.6,5.6,1.9c1,0.9,1.5,2.2,1.4,3.6v0.1c0,2.1-1.2,4-3.1,4.8
			c2.5,0.9,4.3,2.3,4.3,5.2v0.1c0,3.8-3.2,5.9-8,5.9H0L0,0.7z M13,6.8c0-1.7-1.4-2.7-3.8-2.7H3.7v5.7h5.2C11.3,9.8,13,8.9,13,6.8
			L13,6.8z M9.7,13h-6v5.9H10c2.6,0,4.2-1,4.2-3v-0.1C14.2,14.1,12.7,13,9.7,13"/>
		<path id="Path_54" class="st0" d="M20.7,16.4V6h3.7v9.2c0,2.5,1.3,3.9,3.5,3.9c2.2,0,3.7-1.5,3.7-4V6h3.8v16.2h-3.8v-2.5
			c-1.1,1.8-3,2.9-5.1,2.9C22.8,22.6,20.7,20.2,20.7,16.4"/>
		<path id="Path_55" class="st0" d="M37.7,20.2l1.7-2.5c1.5,1.2,3.4,1.9,5.3,2c1.6,0,2.5-0.7,2.5-1.8v-0.1c0-1.3-1.7-1.7-3.6-2.3
			c-2.4-0.7-5.1-1.7-5.1-4.8v-0.1c0-3.1,2.6-5,5.8-5c2.1,0,4.2,0.7,6,1.8l-1.5,2.6c-1.4-0.9-2.9-1.4-4.6-1.5c-1.4,0-2.3,0.7-2.3,1.6
			v0.1c0,1.2,1.8,1.7,3.7,2.3c2.4,0.7,5,1.8,5,4.7v0.1c0,3.4-2.6,5.1-6,5.1C42.1,22.6,39.7,21.7,37.7,20.2"/>
		<path id="Path_56" class="st0" d="M53.6,0h4v3.5h-4V0z M53.7,6h3.7v16.2h-3.7V6z"/>
		<path id="Path_57" class="st0" d="M61.4,6h3.7v2.5c1.1-1.8,3-2.8,5.1-2.8c3.7,0,5.8,2.5,5.8,6.2v10.4h-3.7V13c0-2.5-1.3-4-3.5-4
			c-2.2,0-3.7,1.5-3.7,4v9.2h-3.7L61.4,6z"/>
		<path id="Path_58" class="st0" d="M78.7,14.2L78.7,14.2c0-4.7,3.3-8.5,7.9-8.5c5.2,0,7.8,4.1,7.8,8.7c0,0.3,0,0.7-0.1,1H82.4
			c0.2,2.4,2.3,4.2,4.7,4.1c1.7,0,3.3-0.7,4.4-1.9l2.2,1.9c-1.6,2-4.1,3.1-6.6,3c-4.5,0.1-8.2-3.4-8.3-7.9
			C78.7,14.6,78.7,14.4,78.7,14.2 M90.7,13c-0.2-2.4-1.7-4.3-4.1-4.3c-2.3,0-3.9,1.8-4.2,4.3H90.7z"/>
		<path id="Path_59" class="st0" d="M95.9,20.2l1.7-2.5c1.5,1.2,3.4,1.9,5.3,2c1.6,0,2.5-0.7,2.5-1.8v-0.1c0-1.3-1.7-1.7-3.6-2.3
			c-2.4-0.7-5.1-1.7-5.1-4.8v-0.1c0-3.1,2.6-5,5.8-5c2.1,0,4.2,0.7,6,1.8l-1.5,2.6c-1.4-0.9-3-1.4-4.6-1.5c-1.4,0-2.3,0.7-2.3,1.6
			v0.1c0,1.2,1.8,1.7,3.7,2.3c2.4,0.7,5,1.8,5,4.7v0.1c0,3.4-2.6,5.1-6,5.1C100.3,22.6,97.9,21.7,95.9,20.2"/>
		<path id="Path_60" class="st0" d="M110.4,20.2l1.7-2.5c1.5,1.2,3.4,1.9,5.3,2c1.6,0,2.5-0.7,2.5-1.8v-0.1c0-1.3-1.7-1.7-3.6-2.3
			c-2.4-0.7-5.1-1.7-5.1-4.8v-0.1c0-3.1,2.6-5,5.8-5c2.1,0,4.2,0.7,6,1.8l-1.5,2.6c-1.4-0.9-2.9-1.4-4.6-1.5c-1.4,0-2.3,0.7-2.3,1.6
			v0.1c0,1.2,1.8,1.7,3.7,2.3c2.4,0.7,5,1.8,5,4.7v0.1c0,3.4-2.6,5.1-6,5.1C114.8,22.6,112.4,21.7,110.4,20.2"/>
	</g>
	<path id="Path_61" class="st3" d="M808.6,903.7h-2.4l-0.3,0.7c-0.1,0.2-0.1,0.4-0.1,0.5c0,0.2,0.1,0.3,0.2,0.4
		c0.2,0.1,0.4,0.1,0.7,0.1v0.2h-2.3v-0.2c0.2,0,0.4-0.1,0.6-0.3c0.2-0.3,0.4-0.7,0.6-1l2.4-5.4h0.1l2.4,5.6c0.1,0.4,0.3,0.7,0.6,1
		c0.1,0.1,0.3,0.2,0.5,0.2v0.2h-3.3v-0.2h0.1c0.2,0,0.4,0,0.6-0.1c0.1-0.1,0.1-0.1,0.1-0.2c0-0.1,0-0.1,0-0.2c0-0.1-0.1-0.3-0.2-0.4
		L808.6,903.7z M808.5,903.4l-1-2.3l-1,2.3H808.5z"/>
	<path id="Path_62" class="st0" d="M815.8,901v3.7c0,0.2,0,0.5,0.1,0.7c0.1,0.1,0.3,0.2,0.4,0.2v0.2h-1.9v-0.6
		c-0.2,0.2-0.4,0.4-0.7,0.6c-0.2,0.1-0.5,0.2-0.8,0.2c-0.3,0-0.5-0.1-0.7-0.2c-0.2-0.1-0.3-0.3-0.4-0.6c-0.1-0.4-0.1-0.8-0.1-1.1
		V902c0-0.2,0-0.5-0.1-0.7c-0.1-0.1-0.3-0.2-0.4-0.2V901h1.9v3.2c0,0.2,0,0.4,0,0.7c0,0.1,0.1,0.2,0.1,0.2c0.1,0,0.2,0.1,0.2,0.1
		c0.1,0,0.2,0,0.3-0.1c0.2-0.1,0.3-0.3,0.5-0.5V902c0-0.2,0-0.5-0.1-0.7c-0.1-0.1-0.3-0.2-0.4-0.2V901H815.8z"/>
	<path id="Path_63" class="st0" d="M819.6,900.9l0.1,1.6h-0.2c-0.1-0.4-0.3-0.7-0.6-1c-0.2-0.2-0.4-0.3-0.7-0.3
		c-0.1,0-0.3,0-0.3,0.1c-0.1,0.1-0.1,0.2-0.1,0.3c0,0.1,0,0.2,0.1,0.3c0.3,0.3,0.6,0.5,0.9,0.7c0.4,0.2,0.7,0.5,1,0.8
		c0.2,0.2,0.2,0.5,0.2,0.8c0,0.3-0.1,0.5-0.2,0.8c-0.1,0.2-0.3,0.4-0.6,0.6c-0.2,0.1-0.5,0.2-0.8,0.2c-0.3,0-0.6-0.1-0.9-0.2
		c-0.1,0-0.1,0-0.2-0.1c-0.1,0-0.2,0.1-0.3,0.3h-0.2l-0.1-1.7h0.2c0.1,0.4,0.3,0.7,0.6,1c0.2,0.2,0.5,0.3,0.7,0.3
		c0.1,0,0.3,0,0.4-0.1c0.1-0.1,0.2-0.2,0.2-0.4c0-0.2,0-0.3-0.1-0.4c-0.2-0.2-0.4-0.4-0.7-0.5c-0.4-0.2-0.7-0.5-1-0.8
		c-0.2-0.3-0.3-0.6-0.3-0.9c0-0.4,0.1-0.7,0.4-1c0.3-0.3,0.7-0.5,1.1-0.4c0.3,0,0.5,0.1,0.7,0.2c0.1,0,0.1,0.1,0.2,0.1
		c0.1,0,0.1,0,0.1,0c0.1-0.1,0.1-0.1,0.2-0.2L819.6,900.9z"/>
	<path id="Path_64" class="st0" d="M822.1,899.3v1.7h1.1v0.5h-1.1v2.9c0,0.2,0,0.4,0,0.5c0,0.1,0.1,0.1,0.1,0.2c0,0,0.1,0.1,0.2,0.1
		c0.2,0,0.4-0.2,0.6-0.5l0.2,0.1c-0.2,0.6-0.7,1-1.3,1c-0.3,0-0.5-0.1-0.8-0.2c-0.2-0.1-0.3-0.3-0.4-0.6c0-0.3-0.1-0.6-0.1-0.9v-2.5
		h-0.6v-0.2c0.4-0.3,0.8-0.6,1.1-0.9c0.3-0.3,0.6-0.7,0.8-1.1L822.1,899.3z"/>
	<path id="Path_65" class="st0" d="M825.5,901v1.1c0.2-0.4,0.5-0.7,0.8-1c0.2-0.1,0.4-0.2,0.7-0.2c0.2,0,0.3,0.1,0.4,0.2
		c0.1,0.1,0.2,0.3,0.2,0.5c0,0.2,0,0.4-0.2,0.5c-0.1,0.1-0.2,0.2-0.4,0.2c-0.2,0-0.3-0.1-0.5-0.2c-0.1-0.1-0.1-0.1-0.2-0.2
		c0,0-0.1,0-0.1,0c-0.1,0-0.2,0-0.3,0.1c-0.1,0.1-0.3,0.3-0.3,0.5c-0.1,0.3-0.2,0.7-0.2,1.1v1.1v0.3c0,0.1,0,0.2,0,0.4
		c0,0.1,0.1,0.2,0.2,0.2c0.1,0,0.3,0.1,0.4,0.1v0.2h-2.5v-0.2c0.2,0,0.3-0.1,0.4-0.2c0.1-0.2,0.1-0.5,0.1-0.8V902c0-0.2,0-0.3,0-0.5
		c0-0.1-0.1-0.1-0.1-0.2c-0.1-0.1-0.2-0.1-0.3-0.1V901L825.5,901z"/>
	<path id="Path_66" class="st3" d="M830.2,905c-0.4,0.4-1,0.7-1.5,0.8c-0.5,0-0.9-0.4-0.9-0.9c0,0,0,0,0-0.1c0-0.4,0.2-0.7,0.5-1
		c0.6-0.5,1.3-0.9,2-1.1v-0.5c0-0.2,0-0.4-0.1-0.7c0-0.1-0.1-0.2-0.2-0.2c-0.1-0.1-0.2-0.1-0.4-0.1c-0.2,0-0.4,0-0.5,0.1
		c-0.1,0-0.1,0.1-0.1,0.2c0,0.1,0.1,0.2,0.1,0.3c0.1,0.1,0.2,0.3,0.2,0.4c0,0.2-0.1,0.3-0.2,0.4c-0.1,0.1-0.3,0.2-0.5,0.2
		c-0.2,0-0.4-0.1-0.5-0.2c-0.1-0.1-0.2-0.3-0.2-0.4c0-0.3,0.1-0.5,0.3-0.7c0.2-0.2,0.5-0.4,0.8-0.5c0.3-0.1,0.7-0.2,1.1-0.2
		c0.4,0,0.7,0.1,1.1,0.3c0.2,0.1,0.4,0.4,0.5,0.6c0.1,0.3,0.1,0.6,0.1,1v1.8c0,0.1,0,0.3,0,0.4c0,0,0,0.1,0.1,0.1c0,0,0.1,0,0.1,0
		c0.1,0,0.2-0.1,0.3-0.2l0.2,0.1c-0.1,0.2-0.3,0.4-0.5,0.5c-0.2,0.1-0.4,0.2-0.6,0.2c-0.2,0-0.4-0.1-0.6-0.2
		C830.3,905.4,830.2,905.2,830.2,905 M830.2,904.6v-1.6c-0.3,0.2-0.7,0.4-0.9,0.8c-0.1,0.2-0.2,0.3-0.2,0.5c0,0.2,0.1,0.3,0.2,0.4
		c0.1,0.1,0.2,0.1,0.4,0.1C829.8,904.9,830,904.8,830.2,904.6"/>
	<path id="Path_67" class="st0" d="M834.2,898.9v5.8c0,0.2,0,0.4,0.1,0.6c0.1,0.1,0.3,0.2,0.5,0.2v0.2h-2.5v-0.2
		c0.2,0,0.3-0.1,0.5-0.2c0.1-0.2,0.1-0.4,0.1-0.6v-4.9c0-0.2,0-0.4-0.1-0.6c-0.1-0.1-0.3-0.2-0.4-0.2v-0.2H834.2z"/>
	<path id="Path_68" class="st3" d="M836.4,898.7c0.4,0,0.8,0.3,0.8,0.8c0,0.2-0.1,0.4-0.2,0.6c-0.1,0.1-0.3,0.2-0.5,0.2
		c-0.2,0-0.4-0.1-0.5-0.2c-0.2-0.1-0.2-0.3-0.2-0.5C835.6,899.1,836,898.7,836.4,898.7 M837.1,901v3.7c0,0.2,0,0.4,0.1,0.6
		c0.1,0.1,0.3,0.2,0.5,0.2v0.2h-2.5v-0.2c0.2,0,0.3-0.1,0.5-0.2c0.1-0.2,0.1-0.4,0.1-0.6V902c0-0.2,0-0.4-0.1-0.6
		c-0.1-0.1-0.3-0.2-0.4-0.2V901L837.1,901z"/>
	<path id="Path_69" class="st3" d="M840.4,905c-0.4,0.4-1,0.7-1.5,0.8c-0.5,0-0.9-0.4-0.9-0.9c0,0,0,0,0-0.1c0-0.4,0.2-0.7,0.5-1
		c0.6-0.5,1.3-0.9,2-1.1v-0.5c0-0.2,0-0.4-0.1-0.7c0-0.1-0.1-0.2-0.2-0.2c-0.1-0.1-0.2-0.1-0.4-0.1c-0.2,0-0.4,0-0.5,0.1
		c-0.1,0-0.1,0.1-0.1,0.2c0,0.1,0.1,0.2,0.1,0.3c0.1,0.1,0.2,0.3,0.2,0.4c0,0.2-0.1,0.3-0.2,0.4c-0.1,0.1-0.3,0.2-0.5,0.2
		c-0.2,0-0.4-0.1-0.5-0.2c-0.1-0.1-0.2-0.3-0.2-0.4c0-0.3,0.1-0.5,0.3-0.7c0.2-0.2,0.5-0.4,0.8-0.5c0.3-0.1,0.7-0.2,1.1-0.2
		c0.4,0,0.7,0.1,1,0.3c0.2,0.1,0.4,0.4,0.5,0.6c0.1,0.3,0.1,0.6,0.1,1v1.8c0,0.1,0,0.3,0,0.4c0,0,0,0.1,0.1,0.1c0,0,0.1,0,0.1,0
		c0.1,0,0.2-0.1,0.3-0.2l0.2,0.1c-0.1,0.2-0.3,0.4-0.5,0.5c-0.2,0.1-0.4,0.2-0.6,0.2c-0.2,0-0.4-0.1-0.6-0.2
		C840.5,905.4,840.4,905.2,840.4,905 M840.4,904.6v-1.6c-0.3,0.2-0.7,0.4-0.9,0.8c-0.1,0.2-0.2,0.3-0.2,0.5c0,0.2,0.1,0.3,0.2,0.4
		c0.1,0.1,0.2,0.1,0.3,0.1C840,904.9,840.2,904.8,840.4,904.6"/>
	<path id="Path_70" class="st0" d="M844.5,901v0.6c0.2-0.2,0.4-0.4,0.7-0.6c0.2-0.1,0.5-0.2,0.7-0.2c0.3,0,0.5,0.1,0.8,0.3
		c0.2,0.2,0.3,0.4,0.4,0.6c0.1,0.4,0.1,0.7,0.1,1.1v1.8c0,0.2,0,0.5,0.1,0.7c0.1,0.1,0.3,0.2,0.4,0.2v0.2h-2.4v-0.2
		c0.2,0,0.3-0.1,0.4-0.2c0.1-0.2,0.1-0.4,0.1-0.6v-2.1c0-0.2,0-0.5,0-0.7c0-0.1-0.1-0.2-0.2-0.2c-0.1-0.1-0.1-0.1-0.2-0.1
		c-0.3,0-0.6,0.2-0.8,0.6v2.5c0,0.2,0,0.5,0.1,0.7c0.1,0.1,0.2,0.2,0.4,0.2v0.2h-2.4v-0.2c0.2,0,0.3-0.1,0.4-0.2
		c0.1-0.2,0.1-0.4,0.1-0.7V902c0-0.2,0-0.5-0.1-0.7c-0.1-0.1-0.2-0.2-0.4-0.2V901L844.5,901z"/>
	<path id="Path_71" class="st0" d="M856.8,898.7v2.4h-0.2c-0.2-0.6-0.5-1.1-1-1.5c-0.4-0.3-0.9-0.5-1.5-0.5c-0.5,0-0.9,0.1-1.3,0.4
		c-0.4,0.3-0.6,0.7-0.7,1.2c-0.1,0.5-0.2,1-0.2,1.6c0,0.6,0.1,1.2,0.2,1.7c0.1,0.4,0.4,0.8,0.7,1.1c0.4,0.2,0.8,0.4,1.2,0.3
		c0.2,0,0.3,0,0.5-0.1c0.2,0,0.4-0.1,0.5-0.2v-1.4c0-0.2,0-0.4-0.1-0.5c-0.1-0.1-0.1-0.2-0.2-0.2c-0.1-0.1-0.3-0.1-0.4-0.1h-0.2
		v-0.2h3.3v0.2c-0.2,0-0.4,0-0.5,0.1c-0.1,0.1-0.2,0.1-0.2,0.3c0,0.2-0.1,0.3,0,0.5v1.4c-0.4,0.2-0.9,0.3-1.4,0.4
		c-0.5,0.1-1,0.1-1.5,0.1c-0.5,0-1.1-0.1-1.6-0.3c-0.4-0.2-0.8-0.4-1.1-0.7c-0.3-0.3-0.6-0.6-0.8-1c-0.2-0.5-0.4-1-0.4-1.6
		c0-1,0.4-1.9,1.1-2.6c0.7-0.7,1.7-1.1,2.7-1.1c0.3,0,0.6,0,0.9,0.1c0.2,0.1,0.5,0.1,0.7,0.2c0.2,0.1,0.4,0.1,0.6,0.2
		c0.1,0,0.2,0,0.3-0.1c0.1-0.1,0.2-0.2,0.2-0.4L856.8,898.7z"/>
	<path id="Path_72" class="st3" d="M860.1,900.9c0.4,0,0.8,0.1,1.1,0.3c0.3,0.2,0.6,0.5,0.8,0.9c0.2,0.4,0.3,0.8,0.3,1.3
		c0,0.6-0.2,1.2-0.5,1.7c-0.4,0.5-1,0.8-1.7,0.8c-0.6,0-1.2-0.2-1.6-0.7c-0.8-1-0.8-2.4,0-3.5C858.9,901.1,859.5,900.8,860.1,900.9
		 M860.1,901.2c-0.2,0-0.3,0.1-0.4,0.2c-0.2,0.2-0.2,0.5-0.2,0.8c0,0.4-0.1,0.9-0.1,1.6c0,0.3,0,0.7,0.1,1c0,0.2,0.1,0.4,0.2,0.5
		c0.1,0.1,0.3,0.2,0.4,0.2c0.1,0,0.3,0,0.4-0.1c0.1-0.1,0.2-0.3,0.3-0.5c0.1-0.6,0.1-1.3,0.1-1.9c0-0.4,0-0.8-0.1-1.2
		c0-0.2-0.1-0.3-0.3-0.5C860.3,901.2,860.2,901.2,860.1,901.2"/>
	<path id="Path_73" class="st0" d="M864.5,905.8l-1.6-3.6c-0.1-0.3-0.3-0.6-0.4-0.8c-0.1-0.1-0.2-0.2-0.3-0.2V901h2.5v0.2
		c-0.1,0-0.2,0-0.3,0.1c-0.1,0.1-0.1,0.2-0.1,0.3c0,0.2,0.1,0.5,0.2,0.7l0.8,1.8l0.6-1.5c0.1-0.3,0.2-0.6,0.3-0.9
		c0-0.1,0-0.2-0.1-0.2c-0.1-0.1-0.3-0.1-0.4-0.1V901h1.5v0.2c-0.1,0-0.3,0.1-0.4,0.2c-0.2,0.2-0.3,0.5-0.4,0.8l-1.6,3.7L864.5,905.8
		z"/>
	<path id="Path_74" class="st3" d="M870.8,903.2h-2.6c0,0.5,0.2,1.1,0.5,1.5c0.2,0.3,0.5,0.4,0.8,0.4c0.2,0,0.4-0.1,0.5-0.2
		c0.2-0.2,0.4-0.4,0.5-0.6l0.2,0.1c-0.2,0.4-0.5,0.8-0.8,1.1c-0.3,0.2-0.7,0.3-1.1,0.3c-0.6,0-1.2-0.3-1.6-0.8
		c-0.3-0.5-0.5-1-0.4-1.6c0-0.7,0.2-1.3,0.6-1.9c0.4-0.4,0.9-0.7,1.5-0.7c0.5,0,0.9,0.2,1.2,0.6
		C870.6,901.9,870.8,902.5,870.8,903.2 M869.5,902.8c0-0.4,0-0.7-0.1-1.1c0-0.2-0.1-0.3-0.3-0.5c-0.1-0.1-0.2-0.1-0.3-0.1
		c-0.2,0-0.3,0.1-0.4,0.3c-0.2,0.4-0.3,0.8-0.3,1.2v0.2H869.5z"/>
	<path id="Path_75" class="st0" d="M873,901v1.1c0.2-0.4,0.5-0.7,0.8-1c0.2-0.1,0.4-0.2,0.7-0.2c0.2,0,0.3,0.1,0.5,0.2
		c0.1,0.1,0.2,0.3,0.2,0.5c0,0.2,0,0.4-0.2,0.5c-0.1,0.1-0.2,0.2-0.4,0.2c-0.2,0-0.3-0.1-0.5-0.2c-0.1-0.1-0.2-0.1-0.2-0.2
		c0,0-0.1,0-0.1,0c-0.1,0-0.2,0-0.3,0.1c-0.1,0.1-0.3,0.3-0.3,0.5c-0.1,0.3-0.2,0.7-0.2,1.1v1.4c0,0.1,0,0.2,0,0.4
		c0,0.1,0.1,0.2,0.2,0.2c0.1,0.1,0.3,0.1,0.4,0.1v0.2h-2.5v-0.2c0.2,0,0.3-0.1,0.4-0.2c0.1-0.2,0.1-0.5,0.1-0.8V902
		c0-0.2,0-0.3,0-0.5c0-0.1-0.1-0.2-0.1-0.2c-0.1-0.1-0.2-0.1-0.3-0.1V901L873,901z"/>
	<path id="Path_76" class="st0" d="M877.3,901v0.6c0.2-0.2,0.4-0.4,0.7-0.6c0.2-0.1,0.5-0.2,0.7-0.2c0.3,0,0.5,0.1,0.8,0.3
		c0.2,0.2,0.3,0.4,0.4,0.6c0.1,0.4,0.1,0.7,0.1,1.1v1.8c0,0.2,0,0.5,0.1,0.7c0.1,0.1,0.3,0.2,0.4,0.2v0.2h-2.4v-0.2
		c0.2,0,0.3-0.1,0.4-0.2c0.1-0.2,0.1-0.4,0.1-0.6v-2.1c0-0.2,0-0.5,0-0.7c0-0.1-0.1-0.2-0.2-0.2c-0.1-0.1-0.2-0.1-0.2-0.1
		c-0.3,0-0.6,0.2-0.8,0.6v2.5c0,0.2,0,0.5,0.1,0.7c0.1,0.1,0.2,0.2,0.4,0.2v0.2h-2.4v-0.2c0.2,0,0.3-0.1,0.4-0.2
		c0.1-0.2,0.1-0.4,0.1-0.7V902c0-0.2,0-0.5-0.1-0.7c-0.1-0.1-0.3-0.2-0.4-0.2V901L877.3,901z"/>
	<path id="Path_77" class="st0" d="M882.7,901v0.6c0.2-0.2,0.4-0.4,0.7-0.6c0.2-0.1,0.5-0.2,0.7-0.2c0.6,0,1.1,0.3,1.2,0.8
		c0.2-0.3,0.5-0.5,0.8-0.7c0.2-0.1,0.5-0.2,0.8-0.2c0.3,0,0.5,0.1,0.8,0.2c0.2,0.1,0.3,0.3,0.4,0.6c0.1,0.4,0.1,0.7,0.1,1.1v1.9
		c0,0.2,0,0.5,0.1,0.7c0.1,0.1,0.3,0.2,0.4,0.2v0.2h-2.4v-0.2c0.2,0,0.3-0.1,0.4-0.2c0.1-0.2,0.1-0.4,0.1-0.6v-2
		c0-0.3,0-0.5-0.1-0.8c0-0.1-0.1-0.2-0.2-0.3c-0.1-0.1-0.2-0.1-0.3-0.1c-0.2,0-0.3,0.1-0.4,0.2c-0.2,0.1-0.3,0.3-0.4,0.5v2.5
		c0,0.2,0,0.4,0.1,0.6c0.1,0.1,0.3,0.2,0.4,0.2v0.2h-2.4v-0.2c0.1,0,0.2,0,0.3-0.1c0.1-0.1,0.1-0.1,0.2-0.2c0-0.2,0.1-0.4,0-0.5v-2
		c0-0.3,0-0.5,0-0.8c0-0.1-0.1-0.2-0.2-0.3c-0.1-0.1-0.2-0.1-0.2-0.1c-0.1,0-0.3,0-0.4,0.1c-0.2,0.1-0.4,0.3-0.5,0.5v2.5
		c0,0.2,0,0.4,0.1,0.7c0.1,0.1,0.3,0.2,0.4,0.2v0.2h-2.4v-0.2c0.2,0,0.3-0.1,0.4-0.2c0.1-0.2,0.1-0.4,0.1-0.7V902
		c0-0.2,0-0.5-0.1-0.7c-0.1-0.1-0.2-0.2-0.4-0.2V901L882.7,901z"/>
	<path id="Path_78" class="st3" d="M892.9,903.2h-2.6c0,0.5,0.2,1.1,0.5,1.5c0.2,0.3,0.5,0.4,0.8,0.4c0.2,0,0.4-0.1,0.5-0.2
		c0.2-0.2,0.4-0.4,0.5-0.6l0.2,0.1c-0.2,0.4-0.5,0.8-0.8,1.1c-0.3,0.2-0.7,0.3-1.1,0.3c-0.6,0-1.2-0.3-1.6-0.8
		c-0.3-0.5-0.5-1-0.4-1.6c0-0.7,0.2-1.3,0.6-1.9c0.4-0.4,0.9-0.7,1.5-0.7c0.5,0,0.9,0.2,1.2,0.6
		C892.7,901.9,892.9,902.5,892.9,903.2 M891.7,902.8c0-0.4,0-0.7-0.1-1.1c0-0.2-0.1-0.3-0.3-0.5c-0.1-0.1-0.2-0.1-0.3-0.1
		c-0.2,0-0.3,0.1-0.4,0.3c-0.2,0.4-0.3,0.8-0.3,1.2v0.2H891.7z"/>
	<path id="Path_79" class="st0" d="M895,901v0.6c0.2-0.2,0.4-0.4,0.7-0.6c0.2-0.1,0.5-0.2,0.7-0.2c0.3,0,0.5,0.1,0.8,0.3
		c0.2,0.2,0.3,0.4,0.4,0.6c0.1,0.4,0.1,0.7,0.1,1.1v1.8c0,0.2,0,0.5,0.1,0.7c0.1,0.1,0.3,0.2,0.4,0.2v0.2h-2.4v-0.2
		c0.2,0,0.3-0.1,0.4-0.2c0.1-0.2,0.1-0.4,0.1-0.6v-2.1c0-0.2,0-0.5,0-0.7c0-0.1-0.1-0.2-0.2-0.2c-0.1-0.1-0.1-0.1-0.2-0.1
		c-0.3,0-0.6,0.2-0.8,0.6v2.5c0,0.2,0,0.5,0.1,0.7c0.1,0.1,0.2,0.2,0.4,0.2v0.2h-2.4v-0.2c0.2,0,0.3-0.1,0.4-0.2
		c0.1-0.2,0.1-0.4,0.1-0.7V902c0-0.2,0-0.5-0.1-0.7c-0.1-0.1-0.3-0.2-0.4-0.2V901L895,901z"/>
	<path id="Path_80" class="st0" d="M900.1,899.3v1.7h1.1v0.5h-1.1v2.9c0,0.2,0,0.4,0,0.5c0,0.1,0.1,0.1,0.1,0.2
		c0.1,0,0.1,0.1,0.2,0.1c0.2,0,0.4-0.2,0.6-0.5l0.1,0.1c-0.2,0.6-0.7,1-1.3,1c-0.3,0-0.5-0.1-0.8-0.2c-0.2-0.1-0.3-0.3-0.4-0.6
		c0-0.3-0.1-0.6,0-0.9v-2.5h-0.6v-0.2c0.4-0.3,0.8-0.6,1.1-0.9c0.3-0.3,0.6-0.7,0.8-1.1L900.1,899.3z"/>
	<path id="Path_81" class="st0" d="M844.7,888.1c0,0.1-0.1,0.1-0.1,0.1"/>
	<path id="Path_82" class="st0" d="M845.9,879c0.1,0,0.2-0.1,0.2-0.2s-0.1-0.2-0.2-0.2s-0.2,0.1-0.2,0.2S845.8,879,845.9,879"/>
	<path id="Path_83" class="st0" d="M857.3,868.6L857.3,868.6l-8.8,0v0l0,0l0,7.1c-0.1,0.6,0.2,1.1,0.7,1.5l3.4,2
		c0.1,0.2,0.4,0.2,0.6,0c0,0,0,0,0,0l3.5-2.1c0.5-0.3,0.7-0.9,0.7-1.5L857.3,868.6L857.3,868.6z M851.4,870.7h-0.8v-1.8h0.8V870.7z
		 M850.8,871.3l0.1-0.1l-0.1-0.1l0.1,0l0.1-0.1l0.1,0.1l0.1,0l-0.1,0.1l0.1,0.1l-0.1,0v0.2l-0.1-0.1l-0.1,0.1v-0.2L850.8,871.3z
		 M848.7,871.8h0.9v1.7h-0.9V871.8z M848.8,871.1l0.1,0l0.1-0.1l0.1,0.1l0.1,0l-0.1,0.1l0.1,0.1l-0.1,0v0.2l-0.1-0.1l-0.1,0.1v-0.2
		l-0.1,0l0.1-0.1L848.8,871.1z M849.9,872.8l0.1,0l0.1-0.1l0.1,0.1l0.1,0l-0.1,0.1l0.1,0.1l-0.1,0v0.2l-0.1-0.1l-0.1,0.1v-0.2
		l-0.1,0l0.1-0.1L849.9,872.8z M850.5,871.4C850.5,871.4,850.4,871.4,850.5,871.4c-0.2-0.1-0.2,0.1-0.3,0.1c0,0-0.1,0-0.1-0.1
		s0.1-0.1,0.1-0.1c-0.6,0-0.6,0.3-0.7,0.3c-0.1,0,0.1-0.3,0.2-0.4c-0.1,0-0.2-0.2-0.3-0.2c0.1-0.1,0.1,0,0.2,0c0-0.1,0-0.1,0.2-0.1
		c0.3,0,0.2,0.2,0.2,0.2s0-0.2,0.2-0.2c0.3,0,0.6,0.7,0.3,0.7C850.4,871.5,850.5,871.4,850.5,871.4 M849.8,869.5l0.1-0.1l-0.1-0.1
		l0.1,0l0.1-0.2l0.1,0.2l0.1,0l-0.1,0.1l0.1,0.1l-0.1,0v0.2l-0.1-0.1l-0.1,0.1v-0.2L849.8,869.5z M849.6,870.7h-0.9v-1.8h0.9V870.7z
		 M851.4,878.3l-2.1-1.3c-0.4-0.3-0.6-0.7-0.6-1.2v-2h2.7V878.3z M850.6,871.8h0.8v1.7h-0.8V871.8z M854.1,878.4l-1,0.6h0
		c-0.2,0.1-0.4,0.1-0.5,0l-1-0.6v-4.6h2.5L854.1,878.4z M854.1,873.6h-2.5v-4.7h2.5V873.6z M857,875.8c0,0.5-0.2,0.9-0.6,1.2
		l-2.1,1.3v-4.5h2.7L857,875.8z M857,873.6h-2.7v-4.7h2.7V873.6z"/>
	<path id="Path_84" class="st0" d="M851.2,875.4c0,0-0.3,0.1-0.2,0.1c0.1-0.1,0.2-0.3,0.3-0.4c0-0.1-0.2,0-0.3,0.1
		c0.5-0.7,0.2-0.4-0.1-0.4c0.4-0.5,0.3-0.5,0-0.3c0.3-0.2,0.3-0.5,0.3-0.5c-0.2,0.3-0.5,0.3-0.5,0.6c0,0.2-0.1,0.4-0.2,0.6
		c-0.1,0.1,0-0.5-0.4-0.5c-0.1,0-0.4,0-0.4,0.1c0.1,0,0.2,0.2,0.2,0.2s0.1,0.3-0.1,0.3s-0.3-0.2-0.3-0.4s0-0.1,0-0.3
		c-0.1-0.3-0.3-0.6-0.7-0.7c0,0.2,0.3,0.2,0.3,0.5c-0.1,0-0.3-0.2-0.3-0.1s0.2,0.2,0.2,0.3s-0.2,0-0.2,0.1c0,0.1,0.1,0.1,0.1,0.2
		c-0.1,0-0.1,0-0.2,0s0,0.1,0.1,0.1c0,0,0,0.1,0,0.3c0,0.6,0.4,0.8,0.6,0.8c0.2,0,0.2-0.1,0.2-0.2c0,0.1,0.1,0,0.1,0.1
		c0,0.2-0.2,0.1-0.2,0.3c0,0.2,0.3,0,0.3,0.2c0,0.1,0,0.2,0,0.4c0,0.1,0.3-0.1,0.3-0.1c0.1,0,0.1,0.2,0.2,0.2c0.1,0,0.1-0.2,0.2-0.2
		c0,0,0.3,0.2,0.3,0.1c0-0.3-0.1-0.1-0.1-0.3c0-0.2,0.4-0.1,0.3-0.2c0-0.1-0.1,0-0.1-0.2c0,0-0.3-0.4,0.1-0.2
		S851.2,875.5,851.2,875.4"/>
	<path id="Path_85" class="st0" d="M860.7,877.3c0.1,0,0.3-0.1,0.3-0.2c0-0.1-0.1-0.3-0.2-0.3c0,0,0,0-0.1,0c-0.1,0-0.3,0.1-0.3,0.2
		C860.3,877.2,860.4,877.3,860.7,877.3C860.6,877.3,860.6,877.3,860.7,877.3"/>
	<path id="Path_86" class="st0" d="M859.5,878c0.1,0,0.3-0.1,0.3-0.2c0-0.1-0.1-0.3-0.2-0.3c0,0,0,0-0.1,0c-0.1,0-0.3,0.1-0.3,0.2
		C859.2,877.9,859.3,878,859.5,878C859.4,878,859.5,878,859.5,878"/>
	<path id="Path_87" class="st0" d="M845.5,879.6c0.1,0,0.2-0.1,0.2-0.3c0-0.1-0.1-0.2-0.3-0.2c-0.1,0-0.2,0.1-0.2,0.3
		C845.2,879.5,845.3,879.6,845.5,879.6C845.5,879.6,845.5,879.6,845.5,879.6"/>
	<path id="Path_88" class="st0" d="M846.4,879.7c0.1,0,0.2-0.1,0.2-0.3c0-0.1-0.1-0.2-0.3-0.2c-0.1,0-0.2,0.1-0.2,0.3
		C846.1,879.6,846.2,879.7,846.4,879.7"/>
	<path id="Path_89" class="st0" d="M871.6,867.5c0.4,0.5,0.5,1.3,0.2,1.9c-0.2,0-0.1-0.2-0.2-0.4c-0.4-0.6-0.5-1.3-0.3-2
		C871.5,867.2,871.5,867.4,871.6,867.5"/>
	<path id="Path_90" class="st0" d="M834.6,868.2c-0.1,0.4-0.1,0.8,0,1.2c-0.1,0.1-0.1-0.1-0.1-0.1c-0.6-0.4-0.3-1.3-0.5-1.9
		c0,0,0.1-0.1,0.2,0C834.4,867.6,834.6,867.9,834.6,868.2"/>
	<path id="Path_91" class="st0" d="M872.9,868.3c0.1,0.2-0.1,0.3-0.2,0.4c-0.1,0-0.3,0-0.4-0.2c0-0.2,0-0.3,0.2-0.4
		C872.6,868.1,872.8,868.1,872.9,868.3"/>
	<path id="Path_92" class="st0" d="M833.7,868.9c0,0.1-0.1,0.3-0.2,0.3c-0.1,0-0.2,0-0.3-0.1c-0.1-0.1-0.1-0.2-0.1-0.3
		c0.1-0.1,0.2-0.1,0.3-0.1C833.5,868.8,833.7,868.8,833.7,868.9"/>
	<path id="Path_93" class="st0" d="M873.5,869.2c0,0.1,0,0.2,0,0.2c-0.1,0.1-0.3,0.2-0.4,0.1c-0.1-0.1-0.2-0.2-0.2-0.3
		c0-0.1,0.1-0.2,0.3-0.3C873.3,869.1,873.4,869.1,873.5,869.2"/>
	<path id="Path_94" class="st0" d="M872.6,869.2c0.1,0.1,0,0.2,0,0.3c-0.1,0.1-0.2,0.2-0.3,0.2c-0.1-0.1-0.2-0.1-0.2-0.2
		c0-0.2,0.1-0.3,0.2-0.4C872.4,869.1,872.5,869.2,872.6,869.2"/>
	<path id="Path_95" class="st0" d="M871.5,869.4c0,0.2,0,0.4-0.2,0.4c-0.2,0.1-0.3-0.1-0.4-0.2c0-0.2,0.1-0.3,0.2-0.4
		C871.3,869.3,871.4,869.4,871.5,869.4"/>
	<path id="Path_96" class="st0" d="M835.4,869.5c0,0.2-0.1,0.2-0.2,0.3c-0.1,0-0.3-0.1-0.3-0.2c-0.1-0.1,0-0.2,0.1-0.3
		C835.1,869.3,835.2,869.3,835.4,869.5C835.4,869.5,835.4,869.5,835.4,869.5"/>
	<path id="Path_97" class="st0" d="M834.5,869.6c0,0.1-0.1,0.2-0.2,0.3c-0.1,0-0.3,0-0.3-0.1c-0.1-0.1,0-0.3,0.1-0.4c0,0,0,0,0,0
		C834.3,869.3,834.4,869.5,834.5,869.6"/>
	<path id="Path_98" class="st0" d="M867.8,869.6c0.2,0.4,0.3,0.7,0.3,1.1c-0.1,0.3,0,0.7-0.2,0.9c-0.2-0.1-0.2-0.3-0.4-0.5
		c-0.2-0.6-0.1-1.2,0.1-1.7C867.7,869.4,867.7,869.6,867.8,869.6"/>
	<path id="Path_99" class="st0" d="M833.7,869.8c0,0.2-0.1,0.3-0.2,0.4c-0.2,0-0.3-0.1-0.4-0.2c0-0.2,0.1-0.3,0.2-0.4
		C833.5,869.6,833.7,869.7,833.7,869.8"/>
	<path id="Path_100" class="st0" d="M870.2,870.3c0.2,0.5,0.2,1,0.1,1.5l-0.1,0.1c-0.3-0.4-0.5-0.8-0.6-1.3c0-0.3,0.1-0.6,0.2-0.9
		c0.1-0.1,0.2,0,0.2,0.1C870,870,870,870.2,870.2,870.3"/>
	<path id="Path_101" class="st0" d="M872.1,870c0,0.2-0.1,0.3-0.2,0.4c-0.1,0-0.3,0-0.4-0.2c0,0,0,0,0,0c0-0.1,0-0.3,0.2-0.4
		C871.9,869.7,872.1,869.9,872.1,870"/>
	<path id="Path_102" class="st0" d="M834.5,870.5c0,0.1-0.1,0.3-0.2,0.3c-0.1,0.1-0.2-0.1-0.3-0.1c-0.1-0.1-0.1-0.2,0-0.4
		c0-0.1,0.2-0.1,0.2-0.1C834.3,870.3,834.4,870.3,834.5,870.5"/>
	<path id="Path_103" class="st0" d="M835.1,870.4c0.1,0.2-0.1,0.2-0.2,0.3c-0.2,0.1-0.3-0.1-0.4-0.2c0-0.1,0.1-0.3,0.2-0.3
		C835,870.1,835.1,870.3,835.1,870.4"/>
	<path id="Path_104" class="st0" d="M872.6,870.4c0,0.2-0.3,0.4-0.4,0.6c-0.2,0.4-0.5,0.7-1,0.9c-0.1,0.1-0.2,0.2-0.4,0.2
		c0-0.3,0.2-0.6,0.4-0.9C871.6,870.8,872.1,870.5,872.6,870.4"/>
	<path id="Path_105" class="st0" d="M834.2,871c0.2,0.3,0.4,0.5,0.6,0.7c0,0.1,0,0.1-0.1,0.2c0,0,0,0,0,0c-0.8,0-1.3-0.8-1.6-1.4
		c0-0.2,0.2,0,0.4,0C833.7,870.7,834,870.7,834.2,871"/>
	<path id="Path_106" class="st0" d="M872.8,871.2c0,0.7-0.4,1.3-1,1.7c-0.2,0.1-0.4,0.2-0.5,0.1c0.4-0.7,0.8-1.3,1.4-1.8
		L872.8,871.2z"/>
	<path id="Path_107" class="st0" d="M869.8,871.7c0,0.2-0.1,0.4-0.3,0.4c-0.2,0-0.3-0.1-0.4-0.2c0-0.2,0.1-0.3,0.2-0.3
		c0.1,0,0.1-0.1,0.2,0C869.7,871.5,869.7,871.6,869.8,871.7"/>
	<path id="Path_108" class="st0" d="M833.3,871.8c0.3,0.2,0.6,0.5,0.8,0.7c-0.2,0.1-0.5,0-0.7,0c-0.5-0.2-0.9-0.6-1.4-0.8
		c0-0.2,0.2-0.1,0.3-0.2C832.7,871.6,833,871.7,833.3,871.8"/>
	<path id="Path_109" class="st0" d="M849.8,867.2c-0.9-0.3-1.4,0.6-2.3,0.5c-0.1,0.1-0.1,0.2-0.1,0.2c0,0-0.1,0-0.2,0
		c0-0.4-0.2-0.7-0.2-1.1c-0.1-0.2,0-0.4-0.1-0.5c-0.5-1.4,1.2-0.3,1.5-1.1c0.3-0.7-0.6-0.8-0.8-1.2v-0.2c-0.2-0.2-0.5-0.3-0.7-0.7
		c0.1-0.4,0.1-0.8,0-1.2c0-0.1-0.1-0.2-0.2-0.2c-0.3,0.4-0.5,0.7-0.8,1.1c-0.3-0.2-0.6-0.5-0.9-0.7c-0.2,0-0.4-0.3-0.7-0.2
		c0,0.1,0,0.2,0,0.2c0,0.6,0.3,1.1,0.8,1.5l0,0.2c-0.2,0.7-0.3,1.4-0.3,2c-0.7,1.8-1.8,3.5-3.3,4.7c-0.9,1-1.9,2-2.1,3.3
		c-0.1,0.2,0,0.5-0.1,0.6c-0.5-0.2-1-0.4-1.4-0.8c-0.7-0.5-1.7-0.4-2.2-1.3c-0.2-0.4,0-0.7,0.2-1c0.5-0.6,0.5-1.4,0.2-2
		c-0.1,0-0.1,0.1-0.1,0.1c0,0.9-0.8,1.6-0.5,2.6c0.1,0.3,0.2,0.5,0.3,0.8c-0.1,0-0.2,0-0.4-0.1c-0.3-0.1-0.7-0.1-1-0.1
		c-0.7,0.3-1.7-0.1-2.3,0.6c-0.1,0-0.2,0-0.2,0.2c0.3,0,0.7,0.1,1,0.1c0.5,0.1,0.9-0.4,1.3-0.6h0.1c0.2-0.2,0.4-0.1,0.6-0.1
		c0.9,0.2,1.8,0.5,2.5,1.1v0.1c-0.3,0.1-0.7,0.2-1,0.4c-0.4,0.2-0.7,0.6-0.9,1c-0.2,0.4,0.1,0.7,0.2,1.1c0,0.2,0,0.3,0.2,0.4
		c0.5-0.5,0-1.2,0.1-1.8c0.2-0.4,0.5-0.7,1-0.8c0.9-0.4,1.5,0.3,2.2,0.7c0,0.7,0,1.4-0.1,2.1c-0.2,0.1-0.5,0.1-0.7,0.1
		c-1.1,0.2-2.2,0.6-3.3,1.1c-0.5,0.2-1.1,0.2-1.6,0.3c0.4,0,0.8,0,1.2,0c1.5-0.2,2.7-1.4,4.3-1.2l0,0c-0.2,0.4-0.4,0.7-0.7,1
		c0-0.2-0.1-0.3-0.2-0.4c-0.1-0.1-0.3,0-0.4,0.1c0,0.1,0,0.2,0,0.2c0.1,0.1,0.2,0.2,0.3,0.2c0,0.1-0.2,0.2-0.3,0.3
		c-0.4,0.7-1.3,0.4-1.8,0.9c-0.1,0.1-0.4,0.2-0.2,0.3c0.6,0.1,1.1-0.1,1.6-0.4c0.6-0.6,1.2-1.2,1.7-1.8c0.1,0.5,0,1-0.3,1.4
		c-0.1-0.1-0.3-0.2-0.4-0.2c-0.1,0-0.3,0.2-0.3,0.3c0.1,0.1,0.1,0.2,0.2,0.3c-0.6,0.3-1.2,0.5-1.8,0.6c-1.1,0.1-2.2,0.2-3.4,0.2
		c-0.6,0.1-1.1,0.1-1.7,0c-0.6,0.1-1.2-0.1-1.7,0.2c-0.1,0.1,0,0.2,0,0.2c0.7,0.5,1.7,0.1,2.5,0.2h6.1c0.4,0,0.9-0.1,1.2-0.2
		c0.7-0.5,1.3-1.2,1.6-2.1c0.2-0.3,0.3-0.6,0.3-0.9c0.2-0.5,0.6-0.9,1.2-0.9c0,0.8,0,1.6-0.3,2.4c-0.1,0.5-0.4,1-0.2,1.5
		c0,0.3,0.3,0.3,0.5,0.3c1.9,0,3.7-0.1,5.7,0c0.3,0.1,0.7,0.1,1,0.2c0,0,0.1-0.1,0.1-0.2c0-0.2-0.2-0.4-0.4-0.4
		c0-0.1-0.2-0.1-0.2-0.1c-1-0.6-2.2-0.3-3.3-0.2c-0.6,0.1-1.2,0.1-1.7-0.2c-0.2-0.3-0.1-1.2-0.1-1.2c0.2-1,0.6-2,1-3
		c0.1-0.2,0.1-0.5,0.1-0.7c0.1-0.3,0.1-0.7,0.1-1.1c0.1-0.5,0.3-1,0.5-1.4c0.1-0.2,0.2-0.5,0.3-0.7c0.1-0.3,0.2-0.6,0.3-0.8
		c0.5,0.3,1,0.3,1.2,0.9l0.2,1.3c0,0.1,0.1,0.2,0.2,0.1c0.4-0.3,0.3-0.9,0.3-1.3c0.1-0.5-0.2-0.7-0.4-1.1c-0.1-0.1-0.2-0.3-0.3-0.4
		c-0.1-0.3-0.8-0.6-0.6-1c0-0.4,0.2-0.7,0.5-0.9c0,0,0.1,0.1,0.1,0.1l0.2-0.1l0-1.3c0.5,0,1.2,0.1,1.8,0.1c0.1,0,0.2,0.2,0.4,0.2
		l0.1-0.2l1.3-0.2C850.7,867.8,850.3,867.2,849.8,867.2"/>
	<path id="Path_110" class="st0" d="M851.2,867.8c0,0,0.1,0,0.1,0L851.2,867.8z"/>
	<path id="Path_111" class="st0" d="M837.8,872.1c0,0.2-0.1,0.3-0.2,0.4c-0.1,0-0.2-0.1-0.3-0.2c-0.1-0.2,0.1-0.3,0.2-0.4
		C837.6,871.9,837.7,871.9,837.8,872.1"/>
	<path id="Path_112" class="st0" d="M836.8,872.1c0.1,0.1,0.1,0.2,0.1,0.4c-0.1,0.1-0.3,0.2-0.4,0c-0.1-0.1-0.2-0.2-0.1-0.3
		C836.4,872.1,836.6,872,836.8,872.1"/>
	<path id="Path_113" class="st0" d="M858.2,872.3C858.2,872.3,858.2,872.3,858.2,872.3"/>
	<path id="Path_114" class="st0" d="M870,872.5c0.1,0.2-0.1,0.3-0.2,0.4c-0.2,0-0.4-0.1-0.4-0.3c0-0.2,0.2-0.3,0.4-0.2
		C869.9,872.4,869.9,872.5,870,872.5"/>
	<path id="Path_115" class="st0" d="M870.8,872.5c0,0.1,0.2,0.2,0,0.3c-0.1,0-0.1,0.1-0.2,0.1c-0.2,0-0.3,0-0.4-0.2
		c0-0.2,0.1-0.3,0.2-0.3C870.6,872.4,870.7,872.4,870.8,872.5"/>
	<path id="Path_116" class="st0" d="M832.9,872.7c0,0.2-0.2,0.3-0.4,0.2c0,0,0,0,0,0c-0.1-0.1-0.1-0.1-0.1-0.2
		c0-0.1,0.1-0.2,0.2-0.3C832.7,872.4,832.8,872.5,832.9,872.7"/>
	<path id="Path_117" class="st0" d="M838.1,872.9c0,0.1-0.2,0.2-0.3,0.3c-0.2,0-0.3-0.1-0.3-0.2c0-0.1,0.1-0.3,0.2-0.3
		C837.8,872.7,838,872.8,838.1,872.9"/>
	<path id="Path_118" class="st0" d="M837.2,872.8c0.1,0.1,0.1,0.2,0,0.2c-0.1,0.1-0.2,0.2-0.4,0.1c-0.1-0.1-0.2-0.1-0.2-0.3
		c0.1-0.1,0.1-0.1,0.2-0.2C837,872.7,837.1,872.8,837.2,872.8"/>
	<path id="Path_119" class="st0" d="M873.2,873c0,0.1-0.1,0.2-0.2,0.3c-0.1,0.1-0.3,0-0.3-0.1c-0.1,0-0.1-0.2-0.1-0.2
		c0.1-0.1,0.2-0.2,0.3-0.2C873,872.8,873.1,872.9,873.2,873"/>
	<path id="Path_120" class="st0" d="M874.1,873.2c0,0.1-0.2,0.2-0.3,0.3c-0.1,0-0.3,0-0.2-0.2c0-0.1,0.1-0.2,0.1-0.3
		C873.9,872.9,874.1,873,874.1,873.2C874.1,873.1,874.1,873.1,874.1,873.2"/>
	<path id="Path_121" class="st0" d="M834.6,873.4c0,0.2,0,0.3-0.2,0.4c-0.1,0.1-0.2,0-0.3-0.1c-0.1-0.1-0.1-0.2-0.1-0.3
		c0-0.1,0.2-0.1,0.3-0.2C834.5,873.2,834.6,873.3,834.6,873.4"/>
	<path id="Path_122" class="st0" d="M835.4,873.5c0,0.1-0.1,0.2-0.1,0.3c-0.1,0.1-0.2,0.1-0.3,0c-0.1-0.1-0.2-0.2-0.1-0.4
		C835,873.2,835.3,873.3,835.4,873.5"/>
	<path id="Path_123" class="st0" d="M872.2,873.4c0,0.2-0.1,0.3-0.2,0.4c-0.1,0-0.3-0.1-0.3-0.2c0-0.1,0.1-0.2,0.2-0.3
		C872,873.3,872.2,873.3,872.2,873.4"/>
	<path id="Path_124" class="st0" d="M873.5,873.7c0,0.1,0,0.3-0.2,0.4c-0.1,0-0.3,0-0.4-0.1c-0.1-0.1-0.1-0.2-0.1-0.3
		c0.1-0.1,0.2-0.2,0.4-0.2C873.4,873.6,873.4,873.6,873.5,873.7"/>
	<path id="Path_125" class="st0" d="M834.1,874c0.1,0.1-0.1,0.2-0.1,0.2c-0.1,0-0.2,0-0.3,0c-0.1-0.1-0.1-0.2,0-0.3
		C833.7,873.6,834,873.8,834.1,874"/>
	<path id="Path_126" class="st0" d="M872.5,874.3c0.1,0,0,0.1,0,0.1c-0.4,0.2-0.9,0.2-1.3-0.1c-0.2-0.1-0.4-0.2-0.6-0.3
		c0.1-0.2,0.4-0.2,0.6-0.2C871.7,873.9,872,874.3,872.5,874.3"/>
	<path id="Path_127" class="st0" d="M834.8,874.2c0,0.1-0.1,0.2-0.1,0.3c-0.1,0.1-0.2,0.1-0.3,0c-0.1-0.1-0.2-0.2-0.1-0.4
		c0,0,0,0,0,0c0.1-0.1,0.3-0.1,0.4,0C834.8,874.1,834.8,874.1,834.8,874.2"/>
	<path id="Path_128" class="st0" d="M836.2,874.3c0,0.1,0,0.3-0.2,0.3c-0.1,0.1-0.2,0-0.3,0c-0.1-0.1-0.2-0.2-0.1-0.4
		C835.8,874,836,874.1,836.2,874.3"/>
	<path id="Path_129" class="st0" d="M854,874.9c0,0.3-0.5,0-0.5,0.4c0,0.3,0.2,0.6,0.3,0.9c0.1,0.2,0.1,0.5,0.1,0.8
		c-0.1,0.2-0.3,0.4-0.6,0.5c-0.4,0-1.1,0.2-1.3-0.3c-0.1-0.2-0.2-0.5-0.3-0.7c0,0,0.1,0,0.2-0.1c0-0.1-0.1-0.2-0.1-0.3
		c0.5-0.1-0.2-0.5,0.2-0.6c0.3,0.4,0.9,0.2,1.2,0.6c0.1,0.1,0.1,0.1,0.2,0.2c-0.1-0.4-0.2-0.7-0.3-1.1c0-0.2,0-0.4,0.2-0.5
		C853.6,874.5,853.8,874.8,854,874.9"/>
	<path id="Path_130" class="st0" d="M837.5,874.8c0,0.2-0.1,0.2-0.2,0.3c-0.1,0.1-0.2-0.1-0.3-0.2c0-0.2,0.1-0.2,0.2-0.3
		C837.3,874.7,837.4,874.7,837.5,874.8"/>
	<path id="Path_131" class="st0" d="M847,875c0.2,0.6,0.1,1.2-0.2,1.7c0,0.1,0,0.3-0.1,0.3c-0.4-0.6-0.1-1.4,0.1-2
		C846.8,874.9,847,874.8,847,875"/>
	<path id="Path_132" class="st0" d="M860.2,875.3c0.2,0.5,0.2,1,0,1.4l-0.1,0.1c-0.2-0.3-0.3-0.7-0.4-1.1c0.1-0.3,0.2-0.5,0.2-0.8
		C860.2,874.9,860.2,875.2,860.2,875.3"/>
	<path id="Path_133" class="st0" d="M838.7,875.4c-0.1,0.2-0.4,0.2-0.5,0.4c-0.4,0.3-0.9,0.4-1.4,0.3c0.4-0.6,1.1-0.9,1.8-0.7
		C838.6,875.4,838.7,875.4,838.7,875.4"/>
	<path id="Path_134" class="st0" d="M832.4,876c0.5,0.4,0.8,0.9,1.1,1.5c0,0.1,0.2,0.1,0.1,0.2c-0.1,0.1-0.2-0.1-0.4-0.1
		c-0.6-0.3-1-0.9-0.9-1.6C832.2,876,832.3,876,832.4,876"/>
	<path id="Path_135" class="st0" d="M859.6,876.5c0,0.2,0,0.3-0.1,0.4c-0.1,0-0.3,0-0.4-0.2c0,0,0,0,0,0c0-0.1,0-0.2,0.1-0.2
		C859.3,876.3,859.5,876.3,859.6,876.5C859.6,876.5,859.6,876.5,859.6,876.5"/>
	<path id="Path_136" class="st0" d="M866.1,877.3c0-0.3,0.1-0.6,0.1-0.9c0.1-0.1,0.1-0.2,0.1-0.3c0.4-0.5,1.1-0.3,1.7-0.3
		c0.2,0.1,0.5,0.1,0.8,0.2c0.1-0.1,0.3-0.1,0.4-0.1c0.5-0.3,0.2-0.8,0.2-1.3l-0.2-0.5c-0.1-0.1-0.1-0.2-0.1-0.3
		c-0.1-0.1-0.2-0.3-0.2-0.4c-0.3-0.6-0.7-1.1-1.2-1.6c-0.9-1-2-1.7-3.3-2c-1.2-0.4-2.5,0.1-3.6,0.5c-0.3-0.1-0.5-0.3-0.6-0.7
		c-0.1-0.6,0-1.1,0.3-1.6c0.1-0.4,0.2-0.7,0.4-1c0.3-0.9,0.5-1.8,0.6-2.7c0-0.5-0.3-1-0.8-1.2c-0.3-0.1-0.6,0-0.8,0.2
		c-0.2,0.4-0.6,0.7-1,0.9c0,0.3,0.3,0.1,0.4,0.2c0.3,0.1,0.7,0,1,0.2c0,0.6-0.3,1.2-0.6,1.6c-0.6,0.8-1,1.6-1.4,2.4l-0.1-0.1
		l0.1,3.8c0.4,0.9,1.1,1.6,2,2.1c0.5,0.4,1.1,0.9,1.8,0.5c0.4-0.1,0.4,0.4,0.6,0.6c0.2,0.6-0.2,1-0.3,1.5l-0.4,0.9
		c-0.4,0.9-0.9,1.8-1.6,2.6c-0.2,0-0.4,0.2-0.6,0.3c-0.1,0.2-0.4,0-0.5,0.1c-0.5,0.2-1.2,0.1-1.5,0.5c0,0,0.1,0.1,0.1,0.1
		c0.9,0,2,0.1,3,0c0.1,0,0.2-0.2,0.2-0.3c-0.1-0.3,0-0.5,0.2-0.7c0.1-0.4,0.3-0.6,0.4-1c0.3-0.6,0.7-1.3,1-1.9l0.5-0.8
		c0.1-0.3,0.3-0.6,0.5-0.9c0.1-0.1,0.2-0.3,0.3-0.4c0-0.2-0.1-0.2-0.2-0.3c0.1-0.1,0.3-0.1,0.4-0.1c0.4,0.2,0.7,0.6,0.9,1l0.1,0.4
		l0.1,0.2l0,0.5l0.1,0.5c0,0.8,0,1.5-0.1,2.3c-0.3,0.9-1.3,0.8-2,1c-0.2,0.1-0.5,0.1-0.5,0.4c1,0.1,1.9,0.1,2.9,0.1
		c0.1-0.1,0.2-0.2,0.3-0.3c0-0.2,0.2-0.4,0.2-0.6c-0.2-0.2,0-0.6-0.1-0.9c0-0.1,0-0.2,0-0.3c0.1-0.4,0.1-1,0.2-1.4L866.1,877.3z"/>
	<path id="Path_137" class="st0" d="M873.7,876.7c-0.4,0.8-1.1,1.4-1.9,1.7c-0.1,0-0.1,0-0.2,0c0.5-0.6,0.8-1.4,1.6-1.6
		C873.4,876.7,873.6,876.7,873.7,876.7"/>
	<path id="Path_138" class="st0" d="M831.6,877.5c-0.1,0.1,0,0.2-0.2,0.2c-0.1,0.1-0.3,0-0.3-0.1c0-0.1,0-0.3,0.2-0.3c0,0,0,0,0,0
		C831.5,877.3,831.6,877.3,831.6,877.5"/>
	<path id="Path_139" class="st0" d="M836.1,877.7c0,0.1-0.1,0.1-0.2,0.2c-0.6,0.2-1.3,0-1.8-0.4c0-0.1,0-0.1,0.1-0.1
		C834.8,877.4,835.5,877.3,836.1,877.7"/>
	<path id="Path_140" class="st0" d="M832.5,877.5c0,0.1,0,0.2,0,0.2c-0.1,0.1-0.2,0.2-0.4,0.1c-0.1,0-0.2-0.1-0.2-0.2
		c0-0.1,0.1-0.3,0.3-0.3C832.3,877.4,832.4,877.4,832.5,877.5"/>
	<path id="Path_141" class="st0" d="M846.9,877.6c0,0.1-0.1,0.2-0.2,0.3c-0.1,0-0.3,0-0.3-0.1c-0.1-0.1,0-0.2,0.1-0.3
		C846.7,877.4,846.9,877.4,846.9,877.6"/>
	<path id="Path_142" class="st0" d="M874.3,877.6c0,0.2-0.1,0.2-0.2,0.3c-0.1,0-0.2,0-0.3,0c0-0.1-0.1-0.1-0.1-0.2
		c0.1-0.1,0.2-0.2,0.4-0.2C874.2,877.5,874.2,877.6,874.3,877.6"/>
	<path id="Path_143" class="st0" d="M875.3,877.6c0.1,0.1,0,0.3-0.1,0.4c-0.1,0.1-0.2,0.1-0.3,0.1c-0.1-0.1-0.2-0.1-0.2-0.3
		c0-0.1,0.1-0.2,0.2-0.3C875.1,877.4,875.2,877.6,875.3,877.6"/>
	<path id="Path_144" class="st0" d="M831,878c0,0.1-0.1,0.2-0.1,0.3c-0.1,0-0.2,0.1-0.2,0.1c-0.1,0-0.2-0.1-0.2-0.2
		c0-0.1,0.1-0.3,0.3-0.3C830.8,877.8,830.9,877.9,831,878"/>
	<path id="Path_145" class="st0" d="M863.5,878c0,0.1,0,0.1,0,0.2c-0.1,0.1-0.2,0.2-0.4,0.2c-0.1-0.1-0.2-0.2-0.2-0.3
		C863,877.9,863.2,877.8,863.5,878C863.4,877.9,863.4,878,863.5,878"/>
	<path id="Path_146" class="st0" d="M833.5,878.2c0,0.1-0.1,0.2-0.2,0.2s-0.2-0.1-0.3-0.2c0-0.1,0-0.3,0.1-0.4c0.1,0,0.3,0,0.3,0.2
		C833.5,878.2,833.5,878.2,833.5,878.2"/>
	<path id="Path_147" class="st0" d="M832,878.3c0,0.1,0,0.3-0.2,0.3c-0.2,0-0.3-0.1-0.4-0.2c0-0.2,0.1-0.3,0.3-0.4
		C831.8,878,831.9,878.2,832,878.3"/>
	<path id="Path_148" class="st0" d="M864.5,878.2c0,0.1,0,0.3-0.2,0.4c-0.2,0.1-0.3-0.1-0.4-0.2c0.1-0.1,0.1-0.3,0.3-0.3
		C864.3,878.1,864.4,878.1,864.5,878.2"/>
	<path id="Path_149" class="st0" d="M832.7,878.3c0,0.1,0,0.2-0.1,0.2c-0.1,0-0.1,0.1-0.2,0.1c-0.1-0.1-0.2-0.1-0.2-0.2
		c0-0.2,0.1-0.2,0.2-0.3C832.5,878.1,832.7,878.2,832.7,878.3"/>
	<path id="Path_150" class="st0" d="M873.5,878.4c0,0.1-0.1,0.2-0.3,0.2c-0.1,0-0.2-0.1-0.3-0.1s0-0.2,0-0.3
		c0.1-0.1,0.3-0.2,0.4-0.1C873.4,878.2,873.5,878.3,873.5,878.4"/>
	<path id="Path_151" class="st0" d="M874.6,878.5c-0.1,0.2-0.2,0.3-0.4,0.3c-0.1-0.1-0.3-0.2-0.2-0.4c0.1-0.1,0.1-0.1,0.2-0.1
		C874.4,878.2,874.6,878.3,874.6,878.5C874.6,878.5,874.6,878.5,874.6,878.5"/>
	<path id="Path_152" class="st0" d="M867.3,878.6c0.1,0.2-0.1,0.3-0.2,0.4c-0.1,0-0.2-0.1-0.3-0.1c0-0.2,0.1-0.3,0.2-0.4
		C867.1,878.4,867.2,878.5,867.3,878.6"/>
	<path id="Path_153" class="st0" d="M863.1,878.8c0.1,0,0,0.1,0,0.2c-0.1,0.1-0.2,0.2-0.4,0.1c-0.1,0-0.2-0.2-0.2-0.3
		C862.7,878.7,862.8,878.6,863.1,878.8C863,878.7,863,878.7,863.1,878.8"/>
	<path id="Path_154" class="st0" d="M863.9,878.9c0,0.1,0,0.2-0.1,0.2c-0.1,0.1-0.2,0-0.3,0c0-0.1-0.1-0.2,0-0.2
		c0.1-0.1,0.1-0.1,0.2-0.1C863.8,878.8,863.9,878.8,863.9,878.9"/>
	<path id="Path_155" class="st0" d="M837.8,878.9c0.1,0.1,0,0.2,0,0.3c-0.1,0.1-0.3,0.2-0.4,0.1c-0.2-0.1-0.1-0.3-0.1-0.4
		c0.1,0,0.1-0.1,0.2-0.1C837.6,878.8,837.7,878.8,837.8,878.9"/>
	<path id="Path_156" class="st0" d="M869,879c0,0.2-0.1,0.2-0.2,0.2c-0.2,0.1-0.3-0.1-0.4-0.2c0-0.1,0.1-0.2,0.1-0.2
		C868.7,878.7,868.9,878.8,869,879"/>
	<path id="Path_157" class="st0" d="M868.1,879c0.1,0.2-0.1,0.2-0.2,0.3c-0.1,0-0.2,0-0.3-0.1c-0.1,0-0.1-0.1-0.1-0.2
		c0.1-0.1,0.1-0.2,0.2-0.2C867.9,878.8,868.1,878.9,868.1,879"/>
	<path id="Path_158" class="st0" d="M875.1,879.2c0,0.2-0.2,0.1-0.4,0.2c-0.7,0.3-1.5,0.2-2.1-0.1c0.1-0.2,0.3-0.1,0.4-0.2
		C873.7,878.6,874.4,879.1,875.1,879.2L875.1,879.2z"/>
	<path id="Path_159" class="st0" d="M832.9,879l-0.1,0.1c-0.6,0.4-1.3,0.5-2,0.4l-0.1-0.1C831.4,878.9,832.1,878.8,832.9,879
		L832.9,879z"/>
	<path id="Path_160" class="st0" d="M870.5,879.1c0,0.1-0.1,0.2-0.2,0.3c-0.2,0.1-0.3,0-0.4-0.2c0,0,0,0,0,0c0-0.1,0.1-0.2,0.2-0.3
		C870.3,878.9,870.5,878.9,870.5,879.1"/>
	<path id="Path_161" class="st0" d="M835.6,879.1c-0.1,0.1,0,0.2-0.2,0.3c-0.2,0-0.3,0-0.4-0.2c0-0.2,0.1-0.2,0.2-0.3
		C835.4,878.9,835.5,879,835.6,879.1"/>
	<path id="Path_162" class="st0" d="M834.5,879.2c0,0.1-0.1,0.2-0.1,0.2c-0.1,0.1-0.2,0.1-0.3,0c-0.1-0.1-0.2-0.2-0.2-0.4
		c0.1-0.1,0.2-0.1,0.2-0.2C834.4,879,834.5,879.1,834.5,879.2"/>
	<path id="Path_163" class="st0" d="M871.6,879.6c0,0.1-0.1,0.2-0.2,0.3c-0.1,0-0.2-0.1-0.3-0.2c0-0.1,0-0.2,0.1-0.3
		c0,0,0.1,0,0.2-0.1C871.5,879.3,871.6,879.4,871.6,879.6"/>
	<path id="Path_164" class="st0" d="M833.4,879.4c0,0.1-0.1,0.2-0.1,0.3c-0.1,0.2-0.2,0.5-0.3,0.7c-0.3,0.4-0.7,0.4-1.1,0.5
		l-0.1-0.1C832.2,880.1,832.7,879.7,833.4,879.4L833.4,879.4z"/>
	<path id="Path_165" class="st0" d="M870.8,879.7c0,0.2-0.1,0.2-0.2,0.3c-0.1,0-0.3-0.1-0.3-0.2c0-0.2,0.1-0.2,0.2-0.3
		C870.6,879.5,870.8,879.6,870.8,879.7"/>
	<path id="Path_166" class="st0" d="M835.2,879.7C835.2,879.8,835.2,879.8,835.2,879.7c0,0.2-0.1,0.3-0.2,0.4
		c-0.1,0-0.3-0.1-0.3-0.2c-0.1-0.1,0-0.3,0.1-0.3c0,0,0,0,0,0C834.9,879.6,835.1,879.6,835.2,879.7"/>
	<path id="Path_167" class="st0" d="M873.7,880.2c0.2,0,0.2-0.2,0.4-0.2c0.1,0,0.3,0,0.4,0.2c0.1,0.2-0.1,0.3-0.2,0.4
		s-0.3-0.1-0.3,0.1c0.1,0.1,0.2,0.2,0.2,0.3c0,0.1-0.1,0-0.2,0c-0.5-0.2-0.9-0.5-1.1-1c-0.1-0.1-0.4-0.2-0.2-0.4
		C873,879.6,873.4,879.9,873.7,880.2"/>
	<path id="Path_168" class="st0" d="M875.2,879.7c0.1,0.1,0.1,0.2,0,0.3c-0.1,0.2-0.3,0.1-0.4,0.1c-0.1-0.1-0.2-0.2-0.1-0.3
		c0.1-0.1,0.1-0.2,0.2-0.2C874.9,879.6,875.1,879.6,875.2,879.7"/>
	<path id="Path_169" class="st0" d="M869.6,880.6c0.1,0.2,0.3,0.4,0.3,0.6c0,0-0.1,0-0.1,0c-0.5-0.3-1.2-0.6-1.4-1.2
		c0-0.1-0.2-0.1-0.2-0.2c0.4,0,0.8,0.1,1.1,0.4C869.4,880.3,869.5,880.4,869.6,880.6"/>
	<path id="Path_170" class="st0" d="M834.3,880c0.1,0.1-0.1,0.2-0.1,0.3c-0.1,0-0.3,0-0.4-0.1c-0.1-0.2,0.1-0.3,0.2-0.4
		C834.1,879.8,834.2,879.9,834.3,880"/>
	<path id="Path_171" class="st0" d="M871.5,880.3c0,0.1-0.1,0.2-0.2,0.2c-0.1,0-0.2,0.1-0.4,0c0-0.1-0.1-0.2,0-0.3
		C871.1,880,871.4,880.2,871.5,880.3"/>
	<path id="Path_172" class="st0" d="M875.3,880.6c0,0.2-0.1,0.3-0.2,0.4c-0.1,0-0.3,0-0.4-0.1c-0.1-0.1,0-0.2,0-0.3
		c0.1-0.1,0.3-0.2,0.4-0.1C875.2,880.4,875.3,880.5,875.3,880.6"/>
	<path id="Path_173" class="st0" d="M864.7,882.7c0,0.2-0.3,0.1-0.5,0.3c-0.5,0.2-1.1,0.3-1.6,0.2v-0.1
		C863.1,882.6,863.9,882.5,864.7,882.7"/>
	<path id="Path_174" class="st0" d="M842.2,883.4c0,0.1-0.1,0.2-0.2,0.3c-0.1,0-0.2-0.1-0.3-0.2c-0.1-0.2,0.1-0.3,0.2-0.3
		C842,883.1,842.1,883.2,842.2,883.4"/>
	<path id="Path_175" class="st0" d="M864.4,883.5c0,0.2-0.1,0.3-0.2,0.4c-0.1,0-0.2,0-0.3-0.1c-0.1-0.1,0-0.2,0-0.2
		c0.1-0.2,0.3-0.3,0.4-0.2C864.3,883.4,864.4,883.5,864.4,883.5"/>
	<path id="Path_176" class="st0" d="M867.5,883.6c-0.4,0.3-0.8,0.5-1.3,0.5l-0.8,0l-0.1-0.1C865.8,883.5,866.7,883.3,867.5,883.6
		L867.5,883.6z"/>
	<path id="Path_177" class="st0" d="M837.9,884c0,0.1-0.1,0.3-0.2,0.3c-0.1,0-0.3,0-0.3-0.2c0-0.1,0-0.2,0.1-0.3
		C837.7,883.7,837.9,883.9,837.9,884"/>
	<path id="Path_178" class="st0" d="M838.7,884.1c0,0.1,0,0.1-0.1,0.2c-0.1,0.1-0.2,0.1-0.3,0c-0.1,0-0.1-0.2-0.1-0.3
		c0-0.1,0.1-0.1,0.2-0.1C838.6,884,838.6,884,838.7,884.1"/>
	<path id="Path_179" class="st0" d="M832.8,885.7c-0.2,0.2-0.4,0-0.6-0.1c-0.5-0.3-0.5-0.9-1.1-1.3c0.1-0.2,0.2,0,0.3,0
		c0.1,0.1,0.2,0.1,0.3,0.2C832.3,884.7,832.4,885.2,832.8,885.7"/>
	<path id="Path_180" class="st0" d="M877.8,879.7c-0.2-0.4-0.7-0.7-1.2-0.6c-0.4,0-0.7,0.3-0.9,0.6c-0.1,0.3,0,0.7,0.3,0.9
		c0.1,0.1,0.2,0,0.3-0.1c0.1-0.2-0.1-0.2-0.2-0.4c-0.1-0.2,0-0.4,0.2-0.5c0.2-0.2,0.4-0.1,0.6-0.1c0.2,0.1,0.4,0.3,0.5,0.4
		c0.1,0.3,0.1,0.6,0,0.8c-0.2,0.4-0.5,0.7-1,0.8c-1.3,0.2-15.3,0.1-15.3,0.1c-1.7,0.2-3.5-0.3-5,0.6c-0.6,0.4-1,1-1.1,1.7
		c-0.4,0.4-0.8,0.8-1.2,1.2l0,0c0.1-0.4,0.2-0.7,0.3-1.1c0.2-0.3,0.2-0.7,0.4-1.1c0.5-1,1.2-1.9,2-2.6c0.4-0.5,1.1-0.4,1.7-0.4
		c0.7,0.3,1.4,0.4,2.1,0.3c0,0,0-0.1,0-0.1c-0.2-0.2-0.6-0.3-0.8-0.5c-0.6-0.3-1.2,0.1-1.9,0c0,0-0.1,0,0-0.1c0.6-0.4,1.2-0.8,1.9-1
		c0.5-0.3,1.1-0.5,1.7-0.7c0.2,0,0.4-0.2,0.7-0.1l0.8-0.2c0,0,0.1,0.1,0.1,0c0.8-0.1,1.6-0.1,2.4,0l0.1,0.1l0.7,0.2
		c0.3,0,0.4,0.4,0.7,0.4c0.2-0.2-0.2-0.3-0.2-0.5c0.4-0.1,0.7,0,1,0.2l-0.2,0.2c-0.1,0.2,0,0.3,0.2,0.4c0.1,0,0.2,0,0.3-0.1
		c0.2-0.1,0-0.3,0-0.4c1.1,0.2,2.2,0.5,3.3,0.9c0.3,0.2,0.6,0.3,0.9,0.3c-0.4-0.3-0.8-0.5-1.2-0.6c-0.3-0.2-0.6-0.2-0.8-0.4
		c0-0.1,0.2,0,0.2-0.1c0.5-0.1,1-0.4,1.3-0.9c0-0.1,0.2-0.1,0.2-0.2c-0.1-0.2-0.4,0-0.6,0c-0.7,0.1-0.9,0.9-1.6,1
		c-0.8-0.2-1.6-0.4-2.4-0.6c-0.4,0-0.8-0.1-1.2-0.2l-0.9-0.1h-1.6c0,0-0.1,0,0-0.1c0.6-0.1,1-0.5,1.6-0.6l4.1-1.9
		c0.4-0.4,0.8-0.8,1.2-1.3c0-0.1-0.1-0.2-0.2-0.3c-0.1-0.1-0.2,0-0.3,0.1c-0.2,0.1,0,0.3,0,0.5c-0.2,0.2-0.4,0.5-0.7,0.6
		c-0.1,0-4.3,1.9-4.3,1.9c-0.6,0.3-1.2,0.5-1.9,0.7l-0.9,0.1c-0.1,0.2-0.2,0.3-0.4,0.4c-0.2,0.1-0.5,0.2-0.7,0.2
		c-2.1,0.7-4,1.7-5.7,3.2c0.1-0.2,0.1-0.4,0.2-0.7c0-0.2,0-0.5-0.2-0.7c0-0.1-0.2-0.3-0.1-0.4l-0.2,0.1c-0.2,0.4-0.2,0.9-0.1,1.3
		c0,0.3,0.3,0.6,0.1,0.9c-0.7,0.9-1.2,1.9-1.7,3c-0.2,0-0.3-0.2-0.4-0.4c0.6-0.7,0.9-1.4,1.1-2.3c0.1-0.1,0-0.3,0.1-0.4
		c0-0.2,0.1-0.5,0-0.7c0.1-0.3-0.5-0.7-0.1-0.9l-0.3,0.1c-0.7,0.9,0.3,2.2-0.4,3v0.1c-0.2,0.3-0.4,0.5-0.6,0.7
		c-0.4-0.2-0.5-0.6-0.7-0.9c-0.3-0.4-0.4-1-0.1-1.4c0.1-0.4-0.1-0.8-0.1-1.2l-0.2-0.1c-0.4,0.5-0.5,1.2-0.2,1.8
		c0.2,0.3,0.2,0.7,0.4,0.9c0.2,0.4,0.4,0.8,0.7,1.2c0.1,0.2-0.1,0.2-0.2,0.3c-0.2-0.1-0.1-0.4-0.3-0.5c-0.5-1-1.2-2-2-2.8
		c0-0.1-0.2-0.3-0.1-0.4c0.3-0.3,0.4-0.8,0.2-1.2c0-0.1-0.1-0.2-0.1-0.2l-0.2-0.2c0,0.5-0.3,1-0.2,1.6v0c-1.6-1.2-3.3-2.2-5.1-3.1
		l-0.1,0.4c0.6,0.2,1.1,0.5,1.7,0.8c0.5,0.2,1.1,0.5,1.5,0.8c2,1.2,3.6,3,4.4,5.2c0,0.2,0.2,0.4,0.1,0.5c-0.4-0.4-0.7-0.8-1.2-1.2
		c-0.1-0.7-0.5-1.4-1.2-1.7c-0.2-0.3-0.7-0.4-1.1-0.5l-5.6,0c-4.6-0.1-8.7,0.1-13.3,0.1c-0.6-0.1-1.4-0.3-1.6-0.9
		c-0.1-0.3-0.1-0.6,0-0.9c0.2-0.3,0.5-0.4,0.8-0.4c0.2,0.1,0.4,0.2,0.5,0.4c0,0.2-0.2,0.4-0.2,0.6c0,0.1,0.1,0.2,0.2,0.1
		c0.2-0.1,0.3-0.3,0.4-0.5c0-0.1,0.1-0.3,0-0.3c-0.1-0.3-0.4-0.6-0.7-0.6c-0.7-0.1-1.3,0.4-1.4,1c0,0.2,0,0.4,0.1,0.6
		c0.3,0.7,0.9,1.2,1.7,1.2l15,0.1c1.5-0.1,3.1,0,4.6,0.1c0.6,0.2,1.1,0.6,1.2,1.2c0,0-0.1,0-0.1,0c-1.3-0.8-2.9-1.1-4.4-0.9
		c-0.6,0-1.2,0.1-1.7,0.4c-0.3,0-0.6-0.1-0.8-0.3c-0.7-0.4-1.5-0.5-2.2-0.3c0,0,0,0.1,0,0.1c0.8-0.1,1.2,0.6,1.9,0.7
		c0.2,0,0.3-0.1,0.4,0c-0.7,0.4-1.4,0.7-2.2,1c-0.2,0-0.3-0.3-0.5-0.4c-0.3-0.3-0.8-0.2-1.2-0.2c-0.1,0-0.3-0.1-0.4,0
		c0.2,0.2,0.4,0.4,0.7,0.5c0.4,0.2,0.8,0,1.2,0.2c-0.1,0.1-0.2,0.2-0.3,0.2c-0.7,0.3-1.3,0.9-2.1,0.9c-0.8,0.1-1.7-0.2-2.3-0.7
		c-0.3-0.6-0.9-1-1.6-0.9c0,0-0.1,0-0.1,0.1c0.3,0.2,0.6,0.6,0.9,0.8c0.2,0.3,0.6,0,0.8,0.3c0.3,0.2,0.6,0.4,1,0.4
		c0.3,0.1,0.5,0.2,0.8,0.2l-0.1,0.1c-1.5,0.4-3.1,0.6-4.6,0.5c-0.5,0-0.9-0.2-1.4-0.1c0.1,0.1,0.2,0.2,0.4,0.2
		c-0.1,0.1-0.3,0.1-0.4,0.1c-0.2,0-0.4,0.1-0.6,0.2c-0.2,0-0.5,0.1-0.7,0.2c-0.2,0.3-0.5,0.5-0.9,0.7c0,0.1,0,0.2,0.1,0.2
		c0.3-0.1,0.7,0,1-0.2c0.5,0,0.8-0.6,1.2-0.8c0.5-0.3,1-0.3,1.6-0.2c0.3,0.1,0,0.2,0.1,0.4c0.1,0.1,0.2,0.2,0.4,0.2
		c0,0,0.1-0.1,0.1-0.1c0.1-0.1,0.1-0.3,0-0.4c0.2-0.1,0.5,0,0.7-0.1c0.6,0,1.2-0.1,1.7-0.2c0.1,0,0.2-0.1,0.3,0
		c0,0.1-0.2,0.1-0.1,0.3c0,0.1,0.2,0.2,0.3,0.2c0.2-0.1,0.3-0.2,0.2-0.4c0-0.1-0.2-0.1-0.2-0.2c0.3-0.2,0.7-0.2,1-0.4
		c0.2,0,0.4-0.1,0.6-0.2c0.2,0,0.4-0.2,0.6-0.1c-0.1,0.3-0.2,0.5-0.3,0.7c-0.3,0.9-0.3,1.8,0,2.7c0,0,0.1,0,0.1,0
		c-0.3-0.8-0.2-1.7,0.1-2.5c0.2-1.3,1.6-1.7,2.5-2.2l0,0.1c-0.4,0.7-0.6,1.4-0.6,2.2c0,0.1-0.1,0.3,0,0.4c0.3-0.2,0.5-0.4,0.6-0.7
		c0.1-0.7-0.3-1.6,0.4-2.1c1.2-0.6,2.5-1,3.9-1.2c0,0,0.2,0,0.2,0.1c-0.3,0.3-0.8,0.7-0.9,1.1c-0.4,0.8-0.5,1.8-0.3,2.7
		c0.1,0.5-0.3,0.7-0.5,1.1c-0.1,0.1-0.1,0.4-0.2,0.5l0.3,0c0.3-0.3,0.5-0.6,0.5-1c0,0.1,0.1,0.3,0.3,0.3c0.1-0.2-0.1-0.3-0.1-0.5
		c0.2-0.1,0.4,0.2,0.6,0.2c0.3,0.1,0.6,0.2,0.9,0.2l0.1-0.1c-0.4-0.5-1-0.7-1.6-0.7c-0.3-0.5-0.4-1.2-0.3-1.8c0-0.3,0.2-0.7,0.3-1
		c0.1-0.2,0.3-0.4,0.4-0.6c0.3-0.3,0.6-0.4,1-0.5h0c0,0,0,0,0,0.1c-0.4,0.3-0.5,0.8-0.7,1.2c-0.3,0.4-0.3,0.9-0.1,1.3
		c0.1,0.2,0,0.5,0.3,0.7c0.2-0.3,0.3-0.6,0.3-0.9c0-0.5-0.4-1-0.1-1.5c0.2-0.3,0.5-0.6,0.8-0.7c0.8,0,1.6,0.3,2.3,0.7
		c0.2,0.1,0.4,0.2,0.4,0.4c0,0.7-0.6,1.3-1.3,1.2c-0.3,0-0.5-0.1-0.7-0.2c-0.2-0.3-0.3-0.6-0.2-0.9c0.2-0.2,0.4-0.3,0.7-0.2
		c0.2,0.1,0.3,0.2,0.5,0.1c0.1-0.1,0.1-0.2,0.1-0.2c-0.2-0.1-0.2-0.3-0.5-0.4c-0.3-0.1-0.6,0-0.8,0.2c-0.3,0.3-0.4,0.7-0.4,1.1
		c0.1,0.5,0.5,0.9,1,1c0.7,0.2,1.5-0.1,1.9-0.7c0.2-0.2,0.3-0.4,0.3-0.7c0.7,0.5,1.3,1.2,1.6,2c0,0.3,0,0.5,0,0.8l0.5,0
		c0-0.1,0-0.3,0-0.4c0.2-1,0.8-1.9,1.6-2.5c0.3-0.2,0.2,0.2,0.3,0.3c0.2,0.6,0.7,1,1.3,1.2c0.6,0.1,1.3-0.1,1.7-0.5
		c0.2-0.4,0.4-0.9,0.1-1.3c-0.2-0.3-0.5-0.4-0.9-0.4c-0.4,0-0.7,0.2-0.8,0.6c0,0.1,0,0.3,0.1,0.3c0.1,0,0.2,0,0.2-0.1
		c0-0.2,0.2-0.3,0.4-0.5c0.2-0.1,0.4,0,0.5,0.1c0.2,0.2,0.2,0.4,0.2,0.6c0,0.3-0.2,0.6-0.5,0.7c-0.5,0.2-1,0.2-1.5-0.1
		c-0.2-0.2-0.3-0.4-0.4-0.7c0-0.2-0.1-0.5,0-0.7c0.7-0.4,1.4-0.7,2.2-0.8c0.3,0.1,0.6,0.3,0.8,0.5c0.7,0.7-0.2,1.8,0.3,2.6
		c0.2,0,0.2-0.3,0.3-0.4c0.1-0.6,0-1.2-0.2-1.7c-0.1-0.3-0.3-0.6-0.6-0.9c0.1,0,0.1,0,0.2,0c0.4,0.2,0.7,0.5,0.9,0.8
		c0.5,0.8,0.7,1.7,0.6,2.5c-0.1,0.5-0.6,0.7-1,0.9c-0.2,0.1-0.3,0.3-0.4,0.5c0.2,0.1,0.4,0,0.6-0.1c0.3-0.1,0.5-0.5,0.7-0.7
		c0,0,0,0.1,0,0.1c0,0.2-0.1,0.4,0.1,0.5c0.1-0.3,0.1-0.5,0.1-0.8c0.2,0.2,0.3,0.5,0.3,0.8c0.1,0.3,0.4,0.7,0.7,0.7
		c0.1-0.1,0-0.3,0-0.4c0-0.4-0.4-0.6-0.6-0.9c-0.5-0.7-0.3-1.9-0.7-2.7c-0.2-0.4-0.5-0.8-0.8-1.1l0.1-0.1c0.7,0,1.4,0.2,2.1,0.4
		c0.8,0.4,2.1,0.3,2.5,1.4c0.2,0.6,0.5,1.2,0.9,1.7l0,0c0.1-0.2,0.1-0.4,0-0.6c-0.1-0.8-0.8-1-1.1-1.6l0-0.1
		c0.4,0.1,0.8,0.2,1.1,0.4c1.2,0.4,2.1,1.5,2.2,2.8c0,0.9-0.2,1.8-0.6,2.7c0,0.1-0.3,0.3-0.1,0.4c0.2-0.1,0.2-0.3,0.3-0.5
		c0.6-0.9,0.7-2.1,0.5-3.1c0-0.2-0.2-0.4-0.1-0.6c0.1,0.1,0.2,0.1,0.3,0.1c0.1-0.1,0.2-0.1,0.3-0.2c0-0.1,0.1-0.2,0-0.3
		c-0.1-0.1-0.3-0.1-0.4-0.1c-0.1,0.1-0.2,0.2-0.2,0.3c-0.1-0.3-0.3-0.6-0.6-0.8l0,0c0.7,0.2,1.3,0.6,2,0.8c0.2,0.1,0.3,0.2,0.5,0.2
		c0.6,0.2,1.3,0.4,1.9,0.5c0.5,0,0.9,0.2,1.3,0.1v0l0,0c-0.2-0.2-0.5,0-0.7-0.2c-1-0.1-2.1-0.4-3-0.8c0,0,0.1,0,0.1,0
		c0.2,0,0.3-0.2,0.3-0.3c0-0.2-0.2-0.3-0.3-0.3c0,0,0,0-0.1,0c-0.1,0.1-0.2,0.1-0.2,0.3c0,0.1,0.1,0.2,0.2,0.3c0,0-0.1,0-0.1,0
		c-0.5-0.2-0.9-0.4-1.4-0.6c-0.2,0-0.3-0.2-0.5-0.2c-0.4-0.2-0.7-0.3-1.1-0.5c-1-0.5-2.1-0.8-3.1-1.2l-0.7-0.2
		c-0.4-0.1-0.8-0.2-1.2-0.3c-1.4-0.4-2.9-0.3-4.2,0.4c-0.2-0.1-0.3,0.2-0.4,0c0.4-0.8,1.2-1.2,2.1-1.2c6.2-0.1,12-0.1,18.1-0.2
		c0.7,0.1,1.4-0.3,1.8-0.9C877.9,880.7,878,880.2,877.8,879.7 M853.2,885.4c-0.1,0.2-0.2,0.3-0.2,0.5l-0.1,0c0-0.2-0.2-0.4-0.1-0.6
		c-0.1-0.2-0.1-0.4-0.2-0.6c-0.1-0.2,0.1-0.4,0.2-0.5c0.2,0.1,0.3,0.3,0.5,0.5C853.4,885,853.2,885.2,853.2,885.4"/>
	<path id="Path_181" class="st0" d="M870,884.4c0,0,0.1,0.1,0.1,0.1c-0.6,0.5-1.3,0.7-2.1,0.7c-0.1,0-0.1,0.1-0.2,0
		c-0.1,0-0.1-0.1,0-0.1C868.3,884.5,869.1,884.2,870,884.4"/>
	<path id="Path_182" class="st0" d="M867.5,884.7c0.1,0.2-0.1,0.3-0.2,0.4c-0.1,0-0.3-0.1-0.3-0.2c0-0.1,0.1-0.2,0.1-0.3
		C867.1,884.5,867.3,884.5,867.5,884.7C867.4,884.6,867.5,884.6,867.5,884.7"/>
	<path id="Path_183" class="st0" d="M838.2,884.7c0,0.1,0,0.2-0.1,0.3c-0.1,0.1-0.2,0.1-0.3,0.1c-0.1,0-0.2-0.1-0.2-0.2
		c0-0.1,0.1-0.2,0.2-0.3C837.9,884.6,838.1,884.6,838.2,884.7"/>
	<path id="Path_184" class="st0" d="M835.4,885.7v0.1c-0.4,0.1-0.7,0-1-0.2c-0.2-0.3-0.5-0.6-0.8-0.8c0-0.1-0.1-0.1,0-0.1
		C834.3,884.7,834.8,885.3,835.4,885.7"/>
	<path id="Path_185" class="st0" d="M872.3,884.7c-0.4,0.5-0.7,1.2-1.3,1.4c-0.1,0-0.2,0.2-0.3,0c0.3-0.6,0.8-1.2,1.4-1.5
		C872.2,884.7,872.2,884.7,872.3,884.7"/>
	<path id="Path_186" class="st0" d="M839.1,884.9c0,0.2-0.1,0.2-0.2,0.3c-0.1,0-0.2-0.1-0.3-0.2c-0.1-0.2,0.1-0.2,0.2-0.3
		C838.9,884.7,839,884.8,839.1,884.9"/>
	<path id="Path_187" class="st0" d="M874.2,885c-0.1,0.2-0.1,0.5-0.2,0.7c-0.3,0.4-0.6,0.8-1.1,0.8c-0.1-0.2,0.1-0.3,0.2-0.5
		C873.3,885.6,873.7,885.1,874.2,885L874.2,885z"/>
	<path id="Path_188" class="st0" d="M830.6,885.1c0.1,0.1,0.1,0.2,0,0.3c-0.1,0.1-0.2,0.1-0.4,0.1c-0.1-0.1-0.2-0.2-0.1-0.4
		C830.2,885,830.5,884.9,830.6,885.1"/>
	<path id="Path_189" class="st0" d="M829.7,885.3c0,0.1,0.1,0.1,0,0.2c0,0.1-0.1,0.2-0.2,0.2c-0.2,0-0.3-0.1-0.4-0.2
		c0-0.1,0-0.3,0.2-0.3C829.5,885.1,829.7,885.2,829.7,885.3"/>
	<path id="Path_190" class="st0" d="M831.6,885.4c0,0.1,0.1,0.3-0.1,0.4c-0.2,0.1-0.3-0.1-0.5-0.2c0-0.1,0.1-0.2,0.2-0.3
		C831.3,885.2,831.5,885.3,831.6,885.4"/>
	<path id="Path_191" class="st0" d="M834.1,885.6c0,0.1,0,0.3-0.1,0.3c-0.1,0.1-0.2,0-0.3,0c0-0.1-0.2-0.2-0.1-0.3
		c0.1-0.1,0.1-0.1,0.2-0.2C833.9,885.5,834,885.5,834.1,885.6"/>
	<path id="Path_192" class="st0" d="M875.7,885.7c0,0.1-0.1,0.2-0.2,0.2c-0.1,0-0.3,0-0.4-0.2c-0.1-0.2,0.1-0.3,0.2-0.3
		C875.5,885.5,875.7,885.5,875.7,885.7"/>
	<path id="Path_193" class="st0" d="M872.9,885.8c0,0.1-0.1,0.2-0.2,0.3c-0.2,0.1-0.4,0-0.5-0.2c0,0,0,0,0,0c0-0.1,0.1-0.2,0.3-0.3
		C872.7,885.5,872.8,885.6,872.9,885.8"/>
	<path id="Path_194" class="st0" d="M874.8,885.7c0,0.1-0.1,0.2-0.1,0.3c-0.1,0.1-0.3,0-0.4-0.1c-0.1-0.1,0-0.2,0.1-0.3
		C874.5,885.5,874.8,885.6,874.8,885.7"/>
	<path id="Path_195" class="st0" d="M830.2,886c0,0.2,0,0.3-0.2,0.4c-0.1,0-0.3-0.1-0.3-0.2c0-0.1,0-0.3,0.2-0.3
		C830,885.8,830.1,885.9,830.2,886"/>
	<path id="Path_196" class="st0" d="M872.1,886.2c0,0.2-0.1,0.3-0.2,0.4c-0.1,0-0.2,0-0.3-0.1c-0.1-0.1-0.1-0.2,0-0.3
		c0.1-0.1,0.3-0.2,0.4-0.1C872.1,886.1,872.1,886.1,872.1,886.2"/>
	<path id="Path_197" class="st0" d="M838.5,886.3c0.1,0.2-0.1,0.2-0.2,0.3c-0.1,0-0.2,0-0.2,0c-0.1-0.1-0.2-0.2-0.1-0.3
		c0.1-0.1,0.1-0.1,0.2-0.2C838.4,886.1,838.4,886.3,838.5,886.3"/>
	<path id="Path_198" class="st0" d="M875.5,886.5c0,0.1-0.1,0.2-0.1,0.2c-0.1,0.1-0.2,0.1-0.4,0.1c-0.1-0.1-0.1-0.2-0.1-0.3
		c0.1-0.1,0.1-0.1,0.2-0.2C875.3,886.2,875.4,886.3,875.5,886.5"/>
	<path id="Path_199" class="st0" d="M874.5,886.5c0.1,0.2-0.1,0.3-0.2,0.3c-0.1,0-0.2,0-0.2,0.1c0.4,0.2,0.7,0.5,1,0.8v0.1
		c-0.6,0-1.1-0.2-1.5-0.6c-0.1-0.1-0.3-0.1-0.4-0.2c0.2-0.2,0.6-0.1,0.9-0.1c0.2-0.2-0.2-0.4,0-0.6c0.1,0,0.2-0.1,0.3-0.1
		C874.4,886.3,874.4,886.4,874.5,886.5"/>
	<path id="Path_200" class="st0" d="M868.2,886.5c0,0.1-0.1,0.2-0.1,0.3c-0.1,0.1-0.2,0.1-0.3,0.1c-0.1-0.1-0.2-0.2-0.2-0.4
		C867.7,886.2,868.1,886.3,868.2,886.5"/>
	<path id="Path_201" class="st0" d="M833.7,887.1c0,0.1-0.1,0.2-0.3,0.2c-0.1,0-0.2-0.1-0.3-0.2c0-0.1,0.1-0.2,0.1-0.3
		C833.4,886.7,833.7,886.8,833.7,887.1"/>
	<path id="Path_202" class="st0" d="M835,886.9c0,0.2-0.2,0.3-0.3,0.6c-0.2,0.5-0.7,0.9-1.2,1c-0.1-0.1,0.2-0.3,0.3-0.4
		C834,887.5,834.4,887.1,835,886.9L835,886.9z"/>
	<path id="Path_203" class="st0" d="M867.8,887.1c0,0.2-0.1,0.3-0.3,0.4c-0.1,0-0.2-0.1-0.3-0.1c-0.1-0.1,0-0.2,0-0.4
		C867.4,886.8,867.7,886.9,867.8,887.1"/>
	<path id="Path_204" class="st0" d="M868.8,887.2c0,0.2-0.1,0.3-0.3,0.3c0,0-0.1,0-0.2,0c-0.1,0-0.2-0.2-0.2-0.3
		c0.1-0.1,0.1-0.2,0.2-0.2C868.5,887,868.7,887,868.8,887.2"/>
	<path id="Path_205" class="st0" d="M837.3,887.2c0,0.1-0.1,0.3-0.2,0.3c-0.1,0-0.2-0.1-0.3-0.2c0-0.1,0.1-0.2,0.2-0.3
		C837.2,886.9,837.2,887.1,837.3,887.2"/>
	<path id="Path_206" class="st0" d="M838.4,887.2c0,0.1-0.2,0.2-0.3,0.3c-0.1,0-0.2-0.1-0.3-0.2c0-0.2,0.1-0.2,0.2-0.3
		C838.2,887,838.4,887.1,838.4,887.2"/>
	<path id="Path_207" class="st0" d="M872.1,888.3c0.1,0.1,0.2,0.1,0.2,0.2c-0.2,0.1-0.4-0.2-0.7-0.2c-0.4-0.3-0.6-0.8-0.8-1.2
		c0.1-0.1,0.3,0,0.4,0.1C871.6,887.5,871.9,887.9,872.1,888.3"/>
	<path id="Path_208" class="st0" d="M872.7,887.2c0,0.1,0,0.2,0,0.3c-0.1,0.2-0.3,0.1-0.4,0.1c-0.1-0.1-0.2-0.2-0.1-0.4
		c0-0.1,0.2-0.2,0.3-0.2C872.5,887.1,872.6,887.2,872.7,887.2"/>
	<path id="Path_209" class="st0" d="M839.8,887.6c0,0.1,0,0.3-0.1,0.4c-0.2,0-0.3,0-0.4-0.2c-0.1-0.2,0.1-0.2,0.2-0.3
		C839.6,887.5,839.8,887.5,839.8,887.6"/>
	<path id="Path_210" class="st0" d="M868.7,888.7c0.2,0.3,0.4,0.7,0.4,1.1c0,0.1,0.1,0.2,0,0.3h-0.1c-0.6-0.5-1-1.2-1.1-1.9
		c-0.1,0-0.1-0.1-0.1-0.2c0.2-0.1,0.3,0.1,0.4,0.2L868.7,888.7z"/>
	<path id="Path_211" class="st0" d="M841.8,888.1C841.8,888.1,841.8,888.1,841.8,888.1c-0.6,0.5-1.5,0.6-2.2,0.3
		c0-0.1,0-0.1,0.1-0.1c0.4-0.2,0.9-0.3,1.4-0.3L841.8,888.1z"/>
	<path id="Path_212" class="st0" d="M838.3,888.2c-0.5,0.3-1,1-1.6,1.1c-0.1,0-0.2,0.2-0.4,0.1c0.3-0.8,1.1-1.3,2-1.4L838.3,888.2z"
		/>
	<path id="Path_213" class="st0" d="M867.8,888.9c0.1,0.1,0,0.3-0.1,0.3c-0.1,0.1-0.2,0.1-0.3,0c-0.1-0.1-0.1-0.2-0.1-0.3
		c0-0.1,0.2-0.1,0.2-0.2C867.6,888.8,867.7,888.8,867.8,888.9"/>
	<path id="Path_214" class="st0" d="M866.5,889c-0.1,0.2-0.3,0.3-0.6,0.4c-0.5,0.1-1,0-1.5-0.2c0-0.1,0.2-0.1,0.2-0.2
		c0.5-0.2,1-0.2,1.6-0.1C866.4,888.9,866.5,888.9,866.5,889"/>
	<path id="Path_215" class="st0" d="M838.3,889.4c0,0.1-0.1,0.2-0.2,0.2c-0.1,0-0.2,0-0.3-0.1c0-0.1-0.1-0.2-0.1-0.3
		c0-0.1,0.2-0.1,0.2-0.2C838.2,889.2,838.3,889.3,838.3,889.4"/>
	<path id="Path_216" class="st0" d="M839.2,889.6c0,0.1-0.1,0.2-0.2,0.3c-0.1,0-0.2,0-0.3-0.1c-0.1-0.1-0.1-0.2,0-0.3
		c0-0.1,0.1-0.1,0.2-0.1C839,889.3,839.2,889.4,839.2,889.6"/>
	<path id="Path_217" class="st0" d="M867.5,889.7c0,0.1,0,0.2-0.1,0.3c-0.1,0.1-0.2,0.1-0.3,0.1c-0.1,0-0.1-0.1-0.2-0.2
		c-0.1-0.1,0.1-0.2,0.1-0.3C867.2,889.4,867.4,889.5,867.5,889.7C867.5,889.7,867.5,889.7,867.5,889.7"/>
	<path id="Path_218" class="st0" d="M868.2,889.7c0,0.1,0.1,0.2,0,0.2c-0.1,0.1-0.2,0.3-0.3,0.2c-0.1,0-0.1-0.1-0.2-0.1
		c-0.1-0.1,0-0.3,0.1-0.4c0,0,0,0,0.1,0C868,889.5,868.1,889.6,868.2,889.7"/>
	<path id="Path_219" class="st0" d="M838.7,890.1c0,0.2,0,0.3-0.2,0.4c-0.2,0-0.4,0-0.4-0.2c0-0.2,0-0.4,0.2-0.5
		C838.4,889.9,838.6,890,838.7,890.1"/>
	<path id="Path_220" class="st0" d="M839.5,890.1c0,0.5-0.2,0.9-0.6,1.2c-0.2,0.1-0.5,0.3-0.7,0.1v-0.1
		C838.7,890.9,839.1,890.5,839.5,890.1"/>
	<path id="Path_221" class="st0" d="M865.1,890.4c0.1,0.1,0,0.2-0.1,0.2c-0.1,0.1-0.3,0.1-0.4,0s-0.1-0.2-0.1-0.3
		c0-0.1,0.1-0.1,0.2-0.2C864.9,890.2,865,890.3,865.1,890.4"/>
	<path id="Path_222" class="st0" d="M841.1,891.2c0.2,0.4,0.1,0.8,0.2,1.2c-0.3,0-0.4-0.3-0.5-0.4c-0.2-0.5-0.4-1.1-0.4-1.6
		c0,0,0.1-0.1,0.1,0c0.2,0.2,0.4,0.4,0.6,0.7C841,891.1,841.1,891.1,841.1,891.2"/>
	<path id="Path_223" class="st0" d="M865.9,890.6c0,0.1-0.1,0.2-0.2,0.2c-0.1,0-0.2-0.1-0.3-0.1c0-0.2,0.1-0.2,0.2-0.3
		C865.6,890.3,865.8,890.4,865.9,890.6C865.9,890.5,865.9,890.5,865.9,890.6"/>
	<path id="Path_224" class="st0" d="M867.7,891.9c0,0.1,0,0.1-0.1,0.1h-0.1c-0.5-0.3-0.8-0.9-0.8-1.5l0.1,0
		C867.3,890.9,867.6,891.4,867.7,891.9"/>
	<path id="Path_225" class="st0" d="M866.6,891.4c0,0.1,0,0.2-0.1,0.3c-0.2,0-0.4,0-0.5-0.2c0-0.2,0.2-0.2,0.2-0.3
		C866.3,891.2,866.5,891.3,866.6,891.4"/>
	<path id="Path_226" class="st0" d="M865.5,891.8c-0.2,0.6-0.8,0.9-1.2,1.3c-0.1,0,0-0.2,0-0.2c0.2-0.6,0.6-1.1,1.2-1.4
		C865.7,891.5,865.5,891.6,865.5,891.8"/>
	<path id="Path_227" class="st0" d="M866.7,892.2c0,0.1-0.1,0.2-0.2,0.3c-0.1,0-0.3-0.1-0.3-0.2c0-0.2,0.1-0.2,0.2-0.3
		C866.5,892,866.6,892.1,866.7,892.2"/>
	<path id="Path_228" class="st0" d="M855.2,864c0.2,0,0.4,0.2,0.4,0.4c0,0.2-0.2,0.4-0.4,0.4h-4.6c-0.2,0-0.4-0.2-0.4-0.4
		c0-0.2,0.2-0.4,0.4-0.4H855.2z M852,864.7c0.4,0,0-0.5-0.2-0.5h-0.4c-0.4,0,0,0.5,0.2,0.5H852z M853.9,864.7c0.4,0,0-0.5-0.2-0.5
		h-0.4c-0.5,0,0,0.5,0.2,0.5H853.9z M855.2,864.2h-0.2c-0.4,0-0.1,0.5,0.2,0.5C855.5,864.7,855.6,864.2,855.2,864.2"/>
	<path id="Path_229" class="st0" d="M854.8,869.3l0.9,0.3l0.9-0.3l-0.3,1.3l0.7-0.1l-0.2,0.8l0.2,0.7l-0.6-0.2l0.3,1.4l-0.9-0.3
		l-0.9,0.3l0.4-1.4l-0.7,0.2l0.2-0.8l-0.2-0.7l0.7,0.1L854.8,869.3z M856.1,871.6c0.2,0,0.2-0.3,0.2-0.5c0-0.5-0.4,0-0.6-0.5
		c-0.2,0.4-0.6,0-0.6,0.5c0,0.3,0,0.5,0.3,0.5L856.1,871.6z M855.2,871.1c0,0.2,0.3,0.1,0.5,0.1s0.5,0.1,0.5-0.1
		c0-0.3-0.3-0.2-0.5-0.2S855.2,870.8,855.2,871.1"/>
	<path id="Path_230" class="st0" d="M852.8,871.2V871l-0.1,0l0.1-0.1l-0.1-0.1l0.2,0l0.1-0.2l0.1,0.2l0.2,0l-0.1,0.1l0.1,0.1l-0.1,0
		v0.2l-0.1-0.1L852.8,871.2z"/>
	<path id="Path_231" class="st0" d="M852.1,872v-0.2l-0.1,0l0.1-0.1l-0.1-0.1l0.1,0l0.1-0.2l0.1,0.2l0.2,0l-0.1,0.1l0.1,0.1l-0.2,0
		v0.2l-0.1-0.1L852.1,872z"/>
	<path id="Path_232" class="st0" d="M853.2,871.9v-0.2l-0.2,0l0.1-0.1l-0.1-0.1l0.2,0l0.1-0.2l0.1,0.2l0.1,0l-0.1,0.1l0.1,0.1
		l-0.1,0v0.2l-0.1-0.1L853.2,871.9z"/>
	<path id="Path_233" class="st0" d="M853.4,872.6L853.4,872.6l-0.1-0.1l0.1-0.1l0-0.1l0.1,0l0.1-0.1l0,0.1l0.1,0l0,0.1l0.1,0.1
		l-0.1,0v0.1H853.4L853.4,872.6z"/>
	<path id="Path_234" class="st0" d="M852.3,873.3v-0.3l-0.3,0l0.2-0.2l-0.1-0.2l0.3,0l0.2-0.3l0.2,0.3l0.3,0l-0.1,0.2l0.2,0.2
		l-0.2,0v0.3l-0.2-0.2L852.3,873.3z"/>
	<path id="Path_235" class="st0" d="M852.9,858.7l0.5,1.3l1.4-0.4l-0.7,1.3l1.2,0.8l-1.4,0.2l0.1,1.4l-1.1-1l-1.1,1l0.1-1.4
		l-1.4-0.2l1.2-0.8l-0.7-1.3l1.4,0.4L852.9,858.7z"/>
	<path id="Path_236" class="st0" d="M847.9,888.6c-0.2,0.1-0.2,0.1-0.2,0.3l0.2,0.8c0.1,0.2,0,0.4-0.1,0.5c-0.1,0.2-0.3,0.3-0.6,0.3
		c-0.2,0.1-0.4,0.1-0.7,0c-0.2-0.1-0.3-0.2-0.3-0.4l-0.2-0.9c-0.1-0.2-0.1-0.2-0.3-0.2l0-0.1l1-0.2l0,0.1c-0.2,0.1-0.3,0.1-0.2,0.3
		l0.2,0.9c0,0.1,0.1,0.5,0.6,0.4c0.3,0,0.5-0.3,0.4-0.5c0,0,0-0.1,0-0.1l-0.2-0.8c0-0.2-0.1-0.2-0.4-0.2l0-0.1L847.9,888.6
		L847.9,888.6z"/>
	<path id="Path_237" class="st0" d="M849.4,888.8c-0.1-0.3-0.4-0.4-0.7-0.3c-0.2,0-0.3,0.2-0.3,0.3c0,0.1,0.1,0.2,0.4,0.2l0.5,0.1
		c0.2,0,0.4,0.2,0.4,0.4c0.1,0.2-0.1,0.6-0.6,0.7c-0.2,0-0.4,0-0.5,0c-0.1,0-0.1,0.1-0.1,0.1l-0.1,0l-0.1-0.6l0.1,0
		c0.1,0.3,0.4,0.5,0.8,0.4c0.4-0.1,0.3-0.3,0.3-0.4c0-0.2-0.2-0.2-0.4-0.2l-0.2,0c-0.6-0.1-0.6-0.3-0.6-0.4c0-0.2,0-0.5,0.6-0.7
		c0.2,0,0.3,0,0.5,0c0.1,0,0.1-0.1,0.1-0.1l0.1,0L849.4,888.8L849.4,888.8z"/>
	<path id="Path_238" class="st0" d="M851.4,889.8l-1.1,0.1l0-0.1c0.2,0,0.3-0.1,0.3-0.3l-0.1-1.4c-0.2,0-0.5,0.1-0.6,0.5l-0.1,0
		l0-0.5l1.9-0.2l0.1,0.5h-0.1c-0.1-0.4-0.4-0.4-0.6-0.4l0.1,1.4C851.1,889.8,851.2,889.8,851.4,889.8L851.4,889.8z"/>
	<path id="Path_239" class="st0" d="M854.1,889.8l-0.6,0l-0.6-0.8h-0.1v0.5c0,0.2,0.1,0.2,0.3,0.2v0.1l-1.1,0v-0.1
		c0.2,0,0.3,0,0.3-0.2l0-1.2c0-0.2-0.1-0.2-0.3-0.2V888l1,0c0.2,0,0.9,0,0.9,0.5c0,0.3-0.3,0.4-0.5,0.4l0.6,0.8
		C854,889.7,854,889.8,854.1,889.8L854.1,889.8z M852.7,888.9c0.4,0,0.6,0,0.6-0.4c0-0.3-0.1-0.4-0.4-0.4c-0.2,0-0.2,0-0.2,0.1
		L852.7,888.9z"/>
	<path id="Path_240" class="st0" d="M856.1,890.1l-1-0.1l0-0.1c0.2,0,0.2,0,0.3-0.1c0-0.1,0-0.2-0.1-0.4l-0.7-0.1
		c-0.1,0.1-0.1,0.2-0.2,0.3c0,0.1,0.1,0.1,0.2,0.1l0,0.1l-0.6-0.1l0-0.1c0.2,0,0.2-0.1,0.3-0.3l0.9-1.3l0.1,0l0.5,1.5
		C855.9,889.9,856,890,856.1,890.1L856.1,890.1z M855.2,889.4l-0.2-0.7l-0.4,0.6L855.2,889.4z"/>
	<path id="Path_241" class="st0" d="M858,890.5l-1.8-0.3l0-0.1c0.2,0,0.3,0,0.3-0.1l0.2-1.3c0-0.2-0.1-0.2-0.2-0.2l0-0.1l1.1,0.2
		l0,0.1c-0.2,0-0.3,0-0.4,0.2l-0.2,1.2c0,0.1,0,0.2,0.2,0.2c0.3,0.1,0.7-0.1,0.9-0.4l0.1,0L858,890.5z"/>
	<path id="Path_242" class="st0" d="M859.1,890.7l-1.1-0.2l0-0.1c0.2,0,0.3,0,0.3-0.1l0.3-1.2c0-0.2-0.1-0.2-0.2-0.2l0-0.1l1.1,0.2
		l0,0.1c-0.1,0-0.3-0.1-0.3,0.1l-0.3,1.2C858.9,890.6,859,890.6,859.1,890.7L859.1,890.7z"/>
	<path id="Path_243" class="st0" d="M861.3,891l-1-0.1l0-0.1c0.2,0,0.3,0,0.3-0.1c0-0.1-0.1-0.3-0.1-0.4l-0.7-0.1
		c-0.1,0.1-0.1,0.2-0.2,0.3c0,0.1,0.1,0.1,0.2,0.1l0,0.1l-0.6-0.1l0-0.1c0.2,0,0.2-0.1,0.3-0.3l0.8-1.4l0.1,0l0.6,1.5
		C861.1,890.8,861.2,890.9,861.3,891L861.3,891z M860.4,890.3l-0.2-0.7l-0.4,0.6L860.4,890.3z"/>
	<path id="Path_244" class="st0" d="M853.3,869.7c0-0.6-0.4,0-0.5-0.6c-0.1,0.5-0.6,0.1-0.6,0.6c0,0.2,0,0.3,0.1,0.4v0.2
		c0,0,0,0.1,0.1,0.1h0.7c0,0,0.1,0,0.1-0.1c0,0,0,0,0,0V870C853.2,870,853.3,869.8,853.3,869.7 M852.7,869.8c-0.2,0-0.4,0.1-0.4-0.1
		c0-0.3,0.2-0.2,0.4-0.2s0.5-0.1,0.5,0.2C853.2,870,852.9,869.8,852.7,869.8"/>
	<path id="Path_245" class="st0" d="M858.8,877.5c0.1,0,0.3-0.1,0.3-0.2c0-0.1-0.1-0.3-0.2-0.3c0,0,0,0-0.1,0
		c-0.1,0-0.3,0.1-0.3,0.2C858.5,877.3,858.6,877.5,858.8,877.5C858.8,877.5,858.8,877.5,858.8,877.5"/>
	<path id="Path_246" class="st0" d="M857.4,868.1c-0.1,0.1-0.1,0.2-0.1,0.3c0,0.1,0.1,0.1,0.1,0.2s0.1-0.1,0.2-0.1c0,0,0,0,0,0
		L857.4,868.1"/>
	<path id="Path_247" class="st0" d="M848.1,868.1c-0.1,0.1-0.1,0.2-0.1,0.3c0,0.1,0.1,0.1,0.1,0.2c0,0,0,0,0,0
		c0.1,0,0.1-0.1,0.1-0.2c0,0,0,0,0,0L848.1,868.1"/>
	<path id="Path_248" class="st0" d="M850.4,868.1c-0.1,0.1-0.1,0.2-0.1,0.3c0,0.1,0.1,0.1,0.1,0.2s0.1-0.1,0.2-0.1c0,0,0,0,0,0
		L850.4,868.1"/>
	<path id="Path_249" class="st0" d="M852.8,868.1c-0.1,0.1-0.1,0.2-0.1,0.3c0,0.1,0.1,0.1,0.1,0.2c0,0,0,0,0,0
		c0.1,0,0.1-0.1,0.1-0.2L852.8,868.1"/>
	<path id="Path_250" class="st0" d="M855.1,868.1c-0.1,0.1-0.1,0.2-0.1,0.3c0,0.1,0,0.1,0.1,0.1s0.1,0,0.1-0.1c0,0,0,0,0,0
		L855.1,868.1"/>
	<path id="Path_251" class="st0" d="M848.1,871.3c0.1,0.1,0.1,0.2,0.1,0.3c0,0.1,0,0.1-0.1,0.2c-0.1,0-0.1,0-0.2-0.1c0,0,0,0,0,0
		L848.1,871.3"/>
	<path id="Path_252" class="st0" d="M848.1,874.4c0.1,0.1,0.1,0.2,0.1,0.3c0,0.1,0,0.1-0.1,0.2c-0.1,0-0.1,0-0.2-0.1c0,0,0,0,0,0
		C848,874.7,848.1,874.4,848.1,874.4"/>
	<path id="Path_253" class="st0" d="M848.5,876.9c0.1,0.1,0.1,0.2,0.1,0.3c0,0.1-0.1,0.1-0.1,0.1c0,0,0,0,0,0
		c-0.1,0-0.1-0.1-0.1-0.1c0,0,0,0,0,0L848.5,876.9"/>
	<path id="Path_254" class="st0" d="M850.4,878.2c0.1,0.1,0.1,0.2,0.1,0.3c0,0.1-0.1,0.1-0.1,0.1c0,0,0,0,0,0
		c-0.1,0-0.1-0.1-0.1-0.1v0C850.3,878.4,850.4,878.2,850.4,878.2"/>
	<path id="Path_255" class="st0" d="M857.6,871.3c-0.1,0.1-0.1,0.2-0.1,0.3c0,0.1,0.1,0.1,0.1,0.1c0.1,0,0.1-0.1,0.1-0.1l0,0
		L857.6,871.3"/>
	<path id="Path_256" class="st0" d="M857.6,874.4c-0.1,0.1-0.1,0.2-0.1,0.3c0,0.1,0.1,0.1,0.1,0.1c0.1,0,0.1-0.1,0.1-0.1
		C857.7,874.7,857.6,874.4,857.6,874.4"/>
	<path id="Path_257" class="st0" d="M857.2,876.9c-0.1,0.1-0.1,0.2-0.1,0.3c0,0.1,0.1,0.1,0.1,0.1c0,0,0,0,0,0
		c0.1,0,0.1-0.1,0.1-0.1c0,0,0,0,0,0L857.2,876.9"/>
	<path id="Path_258" class="st0" d="M855.2,878.2c-0.1,0.1-0.1,0.2-0.1,0.3c0,0.1,0.1,0.1,0.1,0.1c0,0,0,0,0,0
		c0.1,0,0.1-0.1,0.1-0.1c0,0,0,0,0,0C855.4,878.4,855.2,878.2,855.2,878.2"/>
	<path id="Path_259" class="st0" d="M852.9,879.6c-0.1,0.1-0.1,0.2-0.1,0.3c0,0.1,0.1,0.1,0.1,0.2c0,0,0,0,0,0
		c0.1,0,0.1-0.1,0.1-0.2L852.9,879.6"/>
	<path id="Path_260" class="st0" d="M856.6,874.9c0,0,0.1,0.1,0.2,0l0.1-0.2c0-0.1-0.1-0.1-0.2-0.1c-0.2,0.1-0.5,0.1-0.7,0.3
		c0,0.2,0.1,0.3,0.2,0.4c0.1,0,0.1,0.1,0.2,0.1c0,0.1,0,0.1-0.1,0.1c0,0,0,0,0,0c-0.2-0.2-0.5,0.1-0.6-0.2c0.1-0.2,0.2-0.5,0-0.7
		c0,0,0.1-0.1,0-0.1c-0.1-0.2-0.3,0-0.4,0c-0.2,0-0.4,0.1-0.5,0.3c0,0.1,0.1,0.2,0.1,0.2c0.1,0,0.1,0,0.1,0.1l-0.1,0.1
		c0,0,0,0.1,0.1,0.2c-0.1,0-0.2-0.1-0.2-0.2c0-0.1,0-0.3-0.1-0.4c0,0-0.1,0-0.1,0c0,0.1-0.1,0.2-0.1,0.2c0,0.1,0,0.2,0.1,0.3
		c0.2,0.2,0.4,0.3,0.6,0.5c-0.1,0.3-0.1,0.6-0.4,0.8c-0.1,0.1-0.1,0.1-0.1,0.2l0.1,0.1c0.2-0.1,0.6-0.1,0.5-0.5
		c0.1-0.1,0.2-0.3,0.3-0.4c0.1,0,0.3,0,0.3,0.2c0,0.2-0.2,0.4-0.4,0.4c0,0,0,0.1,0,0.1c0.1,0.1,0.2,0.1,0.3,0
		c0.3-0.2,0.4-0.5,0.6-0.5c0,0.1-0.3,0.2-0.1,0.3c0.1,0,0.3,0,0.4-0.2c-0.1-0.3,0.3-0.4,0.1-0.6c0-0.2,0.2-0.3,0.2-0.5
		c-0.1-0.2-0.4-0.2-0.4-0.5C856.4,874.9,856.6,874.9,856.6,874.9"/>
	<path id="Path_261" class="st0" d="M845.9,877.6c0.1,0,0.2-0.1,0.2-0.3c0-0.1-0.1-0.2-0.3-0.2c-0.1,0-0.2,0.1-0.2,0.3
		C845.7,877.5,845.8,877.6,845.9,877.6C845.9,877.6,845.9,877.6,845.9,877.6"/>
	<path id="Path_262" class="st0" d="M830.8,886.4c0.2,0,0.3-0.1,0.3-0.3c0-0.2-0.1-0.3-0.3-0.3c-0.1,0-0.3,0.1-0.3,0.3
		C830.6,886.3,830.7,886.4,830.8,886.4C830.8,886.4,830.8,886.4,830.8,886.4"/>
	<path id="Path_263" class="st0" d="M840.4,888.6L840.4,888.6L840.4,888.6L840.4,888.6L840.4,888.6
		C840.4,888.6,840.4,888.6,840.4,888.6L840.4,888.6C840.4,888.6,840.4,888.6,840.4,888.6L840.4,888.6
		C840.4,888.5,840.4,888.5,840.4,888.6L840.4,888.6L840.4,888.6C840.4,888.5,840.4,888.5,840.4,888.6
		C840.4,888.6,840.4,888.5,840.4,888.6L840.4,888.6L840.4,888.6z M840.4,888.5C840.4,888.5,840.4,888.5,840.4,888.5
		C840.4,888.5,840.4,888.5,840.4,888.5C840.4,888.5,840.4,888.5,840.4,888.5L840.4,888.5z"/>
	<path id="Path_264" class="st0" d="M840.5,888.5C840.5,888.5,840.5,888.5,840.5,888.5C840.5,888.5,840.5,888.5,840.5,888.5
		C840.5,888.5,840.5,888.5,840.5,888.5L840.5,888.5C840.5,888.5,840.5,888.5,840.5,888.5C840.5,888.6,840.5,888.6,840.5,888.5
		L840.5,888.5L840.5,888.5L840.5,888.5C840.5,888.6,840.5,888.6,840.5,888.5C840.5,888.6,840.5,888.6,840.5,888.5
		C840.5,888.6,840.5,888.6,840.5,888.5L840.5,888.5C840.4,888.6,840.4,888.5,840.5,888.5C840.4,888.5,840.5,888.5,840.5,888.5
		L840.5,888.5L840.5,888.5L840.5,888.5L840.5,888.5L840.5,888.5z"/>
	<path id="Path_265" class="st0" d="M840.6,888.5C840.6,888.5,840.6,888.5,840.6,888.5L840.6,888.5L840.6,888.5L840.6,888.5
		L840.6,888.5L840.6,888.5L840.6,888.5L840.6,888.5L840.6,888.5L840.6,888.5L840.6,888.5L840.6,888.5L840.6,888.5L840.6,888.5
		L840.6,888.5L840.6,888.5C840.5,888.5,840.5,888.5,840.6,888.5L840.6,888.5L840.6,888.5L840.6,888.5
		C840.6,888.5,840.6,888.5,840.6,888.5L840.6,888.5L840.6,888.5L840.6,888.5C840.6,888.5,840.6,888.5,840.6,888.5L840.6,888.5
		L840.6,888.5L840.6,888.5z"/>
	<path id="Path_266" class="st0" d="M840.6,888.6C840.6,888.6,840.6,888.6,840.6,888.6L840.6,888.6L840.6,888.6
		C840.6,888.5,840.6,888.5,840.6,888.6C840.6,888.5,840.6,888.5,840.6,888.6C840.6,888.5,840.6,888.5,840.6,888.6
		C840.6,888.6,840.6,888.6,840.6,888.6 M840.6,888.5L840.6,888.5L840.6,888.5C840.6,888.5,840.6,888.5,840.6,888.5
		C840.6,888.5,840.6,888.5,840.6,888.5C840.6,888.5,840.6,888.5,840.6,888.5L840.6,888.5z"/>
	<path id="Path_267" class="st0" d="M840.6,888.5C840.6,888.5,840.7,888.5,840.6,888.5C840.7,888.5,840.7,888.5,840.6,888.5
		C840.7,888.6,840.7,888.6,840.6,888.5L840.6,888.5C840.6,888.6,840.6,888.6,840.6,888.5L840.6,888.5
		C840.7,888.6,840.7,888.6,840.6,888.5C840.7,888.6,840.7,888.6,840.6,888.5L840.6,888.5L840.6,888.5L840.6,888.5L840.6,888.5
		L840.6,888.5L840.6,888.5z"/>
	<path id="Path_268" class="st0" d="M858.2,867.7L858.2,867.7h-10.8l0,0l0,8.2c-0.1,0.7,0.3,1.4,0.8,1.8l4.1,2.6
		c0.1,0.1,0.2,0.2,0.4,0.2c0.1,0,0.2,0,0.3-0.1l4.2-2.7c0.6-0.4,0.9-1.1,0.8-1.8L858.2,867.7L858.2,867.7z M857.9,876.1
		c0,0.6-0.3,1.1-0.7,1.4l-4.1,2.6h0c-0.2,0.1-0.4,0.1-0.6,0l-4-2.6c-0.4-0.3-0.7-0.9-0.7-1.4v-8h10.1L857.9,876.1z"/>
	<path id="Path_269" class="st0" d="M854.3,879.7l0.1-0.1C854.4,879.7,854.3,879.7,854.3,879.7"/>
	<path id="Path_270" class="st0" d="M846.2,890.9l-1,0.1l0-0.1c0.2,0,0.2,0,0.2-0.1c0-0.1-0.1-0.2-0.2-0.3l-0.7,0.1
		c0,0.1-0.1,0.2-0.1,0.4c0,0.1,0.2,0.1,0.3,0.1l0,0.1l-0.6,0.1l0-0.1c0.2,0,0.2-0.1,0.3-0.3l0.5-1.5l0.1,0l0.9,1.3
		C846,890.8,846,890.9,846.2,890.9L846.2,890.9z M845.2,890.4l-0.4-0.6l-0.2,0.7L845.2,890.4z"/>
	<path id="Path_271" class="st0" d="M864,887.1c-0.2-0.5-0.6-0.8-1.1-1c-0.5-0.1-1,0-1.3,0.3c-0.6,0.4-0.2,1.2-0.2,1.8
		c0,0.1,0,0.2-0.1,0.3c-2.2-0.2-4.3-0.8-6.5-1c-0.5-0.1-1-0.1-1.5-0.2l-0.6-0.1c-1.9,0-3.8,0.2-5.7,0.6c-0.4,0.1-0.8,0.2-1.2,0.3
		c-0.3,0-0.5,0.2-0.8,0.1l-0.5,0.1c-0.1,0-0.1,0-0.2,0c-0.2-0.6,0.5-1,0.3-1.6c-0.2-0.4-0.6-0.7-1.1-0.6c-0.5,0-1,0.2-1.2,0.6
		c-0.4,0.8,0.1,1.6,0.2,2.3c0,0.2,0.2,0.5,0,0.7c-0.5-0.4-1.1-0.5-1.7-0.4c-0.2,0.1-0.5,0-0.6,0.2c0.7,0.3,1.5,0.4,2.2,0.3
		c0.1,0,0.2,0,0.2,0c0.1,0.4-0.1,0.9,0.2,1.3c0.3,0.3,0.7,0.5,1.2,0.5c1.4-0.1,2.7-0.4,4-0.8c0.2,0,0.4-0.1,0.6-0.1
		c0.7-0.2,1.5-0.3,2.2-0.3c-0.3,0.4-0.5,0.9-0.6,1.4c-0.2,0.4,0.3,0.5,0.5,0.7c-0.4,0.2-0.9,0.4-1.3,0.7c-0.9,0.1-1.8,0.2-2.7,0.5
		c0,0.2,0.3,0.1,0.4,0.3c0,0.1-0.2,0.2-0.3,0.2c0,0.1,0,0.1,0.1,0.1c0.1-0.1,0.3,0,0.4-0.1c0.3,0,0.6-0.1,0.9-0.1
		c0.3-0.1,0.5-0.2,0.8-0.3c0.3-0.1,0.5-0.3,0.8-0.4c0.5,0,0.9-0.2,1.3-0.2v0.1c-0.4,0.6-0.7,1.2-1.1,1.7c0,0.1,0,0.2,0.1,0.2
		c0,0,0,0,0,0c0.2,0.1,0.4,0,0.6-0.1c0.3-0.6,0.6-1.1,0.9-1.7c0.2-0.5,0.5-0.9,0.9-1.2c0.1,0,0.2-0.1,0.2,0
		c-0.3,0.3-0.5,0.7-0.7,1.1c-0.2,0.5-0.1,1,0.2,1.3c0.2,0.2,0.5,0.1,0.7,0.1c0.6-0.3,1.4,0.2,1.8-0.4c0.3,0,0.3,0.3,0.5,0.4
		c0.3,0.1,0.5,0.3,0.8,0.2c0-0.2-0.2-0.3-0.3-0.5c-0.2-0.3-0.4-0.6-0.6-0.9c-0.1-0.2-0.2-0.4-0.2-0.6c0.3,0.1,0.5,0.2,0.8,0.3
		c0.3,0.1,0.6,0.1,0.8,0.2c0.2,0.2,0.5,0.4,0.8,0.6c0.4,0.2,0.8,0.2,1.2,0.4c0.2,0,0.4,0.1,0.5,0c-0.1-0.1-0.1-0.1-0.2-0.2
		c0-0.2,0.3-0.1,0.4-0.3c0-0.1-0.1-0.1-0.2-0.1c-0.2-0.1-0.8-0.2-0.9-0.2c-0.2,0-0.4-0.1-0.5-0.2c-0.9,0-1.4-0.8-2.2-1.2
		c0.2-0.2,0.4-0.3,0.5-0.5c0.2-0.2,0.2-0.6,0-0.8c-0.1-0.5-0.8-0.4-1.1-0.7l0-0.1c0.6,0,1.1,0.1,1.7,0.2c1.4,0.4,2.9,0.6,4.4,0.8
		c0.8,0,1.9,0,2.3-0.8c0.1-0.5,0.2-1,0.3-1.4C863.7,888.7,863.9,887.9,864,887.1 M847.3,894.2l-0.2-0.2c0.1-0.1,0.3-0.1,0.5-0.2
		c0.4-0.2,0.9-0.2,1.3-0.2C848.4,893.9,847.9,894.1,847.3,894.2 M857,893.9c0.5,0.2,1.1,0.3,1.6,0.4c0,0.2-0.4,0-0.4,0.3
		c-0.5-0.1-1-0.3-1.4-0.7C856.9,894,856.9,893.9,857,893.9 M842.5,887.3c0-0.3,0.1-0.6,0.4-0.8c0.4-0.2,0.8-0.2,1.2,0.1
		c0.1,0.1,0.2,0.2,0.2,0.3c0.1,0.3,0,0.5-0.2,0.7h-0.2c0-0.2,0-0.5,0.1-0.7c0-0.2-0.2-0.2-0.3-0.3c-0.2,0-0.5,0-0.7,0.2
		c-0.2,0.2-0.3,0.4-0.2,0.7c0.1,0.2,0,0.4,0.1,0.6l0,0.1C842.7,887.9,842.4,887.7,842.5,887.3 M843.2,887.8c0.2,0.2,0.6,0.1,0.8,0.1
		c0.1,0.2,0,0.4-0.1,0.5c-0.3-0.1-0.6,0-0.7-0.3C843.2,888,843.2,887.9,843.2,887.8 M843.2,887.2c0-0.1,0-0.3,0.2-0.3
		c0.1,0,0.3,0,0.3,0.1c0,0.2,0,0.4-0.1,0.5C843.4,887.6,843.2,887.4,843.2,887.2 M850.4,892.2c-0.1-0.5,0.1-1,0.5-1.4
		c0.2-0.1,0.5-0.1,0.7,0c-0.4,0.1-0.9,0.2-1,0.7c0,0.2,0,0.3,0,0.5c0.2,0.3,0.6,0.2,0.8,0.4c0,0.1-0.1,0.2-0.1,0.2
		C850.9,892.5,850.7,892.4,850.4,892.2 M849.8,893.3c0.4-0.2,0.8-0.5,1.2-0.3C850.7,893.2,850.3,893.3,849.8,893.3 M851.3,893.5
		c-0.2,0.5-0.5,1-0.8,1.5c0,0.1-0.2,0.1-0.2,0.1c0-0.2,0.2-0.4,0.3-0.6c0.3-0.4,0.4-0.9,0.8-1.3
		C851.5,893.3,851.3,893.3,851.3,893.5 M851.7,892.6L851.7,892.6L851.7,892.6L851.7,892.6L851.7,892.6
		C851.7,892.5,851.7,892.5,851.7,892.6L851.7,892.6z M851.6,892.1c-0.3,0-0.5-0.1-0.7-0.2c-0.2-0.2,0-0.3,0-0.5
		c0.2-0.4,0.7-0.5,1.1-0.2c0,0,0,0,0,0C851.9,891.6,851.8,891.9,851.6,892.1 M851.9,892.1c0.1-0.2,0.1-0.4,0.2-0.7
		C852.1,891.7,852,891.9,851.9,892.1 M852.1,890.9c-0.2,0-0.3-0.3-0.5-0.3c0.2-0.1,0.4-0.1,0.6,0
		C852.2,890.7,852.1,890.8,852.1,890.9 M852.2,891.3L852.2,891.3l0-0.2h0V891.3z M852.3,892.1c0-0.1,0-0.1,0-0.2
		c0.1-0.1,0.2,0.1,0.2,0.1C852.4,892,852.3,892.1,852.3,892.1 M852.5,891.1c0-0.2,0.1-0.4,0.2-0.6c0.1,0,0.3,0,0.4,0.1
		c0,0.3,0.4,0.7,0,1c-0.1,0.1-0.3,0.2-0.5,0.1C852.5,891.5,852.4,891.3,852.5,891.1 M853.6,890.7c0-0.1,0.1,0,0.2-0.1l0.5,0
		C854,890.6,853.7,891.1,853.6,890.7 M854.4,890.9c-0.2,0.1-0.3,0.3-0.5,0.3C854,891,854.2,890.9,854.4,890.9 M853.7,891.9
		L853.7,891.9L853.7,891.9L853.7,891.9L853.7,891.9z M853.8,892.8c0,0,0,0.1,0,0.1l-0.4-0.3C853.5,892.6,853.7,892.6,853.8,892.8
		 M853.4,892.3c0,0,0.1,0,0.1,0H853.4z M853.1,892.1c0.1-0.1,0.1-0.2,0.3-0.2c0,0,0,0,0,0C853.3,891.9,853.2,892,853.1,892.1
		 M852.8,892L852.8,892L852.8,892C852.9,892,852.8,892,852.8,892 M852.8,892.6c0.2-0.2,0.4,0.1,0.5,0.3c0.2,0.3,0.8,0.7,0.6,1.1
		c-0.3,0.3-0.8,0-1.1,0.2c-0.2,0-0.5,0-0.6-0.1C852.4,893.6,852.6,893.1,852.8,892.6 M852.4,892.9l0.1-0.1c-0.1,0.4-0.3,0.8-0.5,1.1
		C851.9,893.5,852.3,893.2,852.4,892.9 M853.1,894.8c-0.3,0-0.7,0.2-1-0.1c0-0.1-0.1-0.2-0.1-0.3c0.2-0.1,0.5,0.2,0.7,0
		c0.4,0,0.7,0,1.1,0c0.2,0,0.4-0.3,0.5,0C854.1,895,853.5,894.6,853.1,894.8 M854,892.5L854,892.5L854,892.5L854,892.5L854,892.5z
		 M854.1,893.5c0,0.2,0.2,0.2,0.1,0.4C854.1,893.8,854,893.6,854.1,893.5 M854.5,894.4L854.5,894.4c-0.2,0-0.1-0.2-0.1-0.3
		C854.5,894.2,854.6,894.3,854.5,894.4 M855.3,894.8c0,0-0.1,0-0.1,0c-0.4-0.6-0.7-1.2-1-1.9l0.1,0
		C854.6,893.6,854.9,894.2,855.3,894.8 M855.8,893.4C855.8,893.4,855.8,893.4,855.8,893.4c-0.4,0-0.8-0.1-1.1-0.4l0-0.1
		C855.1,893,855.5,893.1,855.8,893.4 M855.4,891.3c0.2,0,0.2,0.2,0.2,0.4c0,0.3-0.2,0.6-0.5,0.8c-0.2,0.1-0.4,0.1-0.6,0.1
		c0.4,0,0.7-0.2,0.9-0.5L855.4,891.3z M855.1,891.3c0.1,0.2,0.2,0.4,0.1,0.7c-0.2,0.3-0.5,0.3-0.7,0.4c-0.1,0-0.3,0-0.4-0.1
		c0-0.1,0-0.1-0.1-0.2c0-0.2-0.4-0.4-0.1-0.6C854.3,891.2,854.8,890.7,855.1,891.3 M862.9,890.1c-0.1,0.2,0,0.4-0.2,0.5
		c0,0.3-0.2,0.4-0.4,0.5c-1.8,0.4-3.6-0.2-5.4-0.5c-2.6-0.6-5.3-0.6-7.9-0.1c-1.2,0.2-2.3,0.5-3.5,0.8c-0.7,0.2-1.5,0.1-2.2,0
		c-0.6-0.3-0.3-1-0.5-1.5c0-0.4-0.1-0.7-0.1-1.1c0-0.1-0.1-0.3-0.1-0.4c0.2,0.1,0.5,0.2,0.7,0.3c1.2,0.1,2.5,0,3.7-0.4
		c1.2-0.3,2.4-0.4,3.6-0.5c1.4-0.1,2.8,0,4.1,0.1c0.4,0,0.8,0.1,1.2,0.2c0.9,0.1,1.7,0.3,2.5,0.4c0.2,0,0.3,0.1,0.5,0.1
		c1.4,0.2,2.9,0.6,4.3,0C863.2,889.1,863.1,889.6,862.9,890.1 M862.5,888.2c0,0.2-0.2,0.2-0.3,0.3h-0.4c-0.1-0.1-0.1-0.3,0-0.4
		C862,888.1,862.3,888.1,862.5,888.2 M862.3,887.8c0.2-0.2,0-1.1,0.4-0.5c0,0.1,0,0.3-0.1,0.4C862.6,887.8,862.5,887.9,862.3,887.8
		 M863.6,887.7c-0.1,0.3-0.4,0.5-0.7,0.5c0-0.4,0.4-0.6,0.2-1.1c-0.2-0.3-0.6-0.4-1-0.3c-0.1,0.1-0.1,0.3-0.1,0.4l-0.1,0.5
		c-0.3,0-0.3-0.3-0.4-0.5c0-0.3,0.2-0.6,0.5-0.8c0.3-0.1,0.6-0.1,0.9,0c0.2,0,0.4,0.1,0.5,0.3C863.7,887,863.6,887.4,863.6,887.7"/>
	<rect id="Rectangle_51" x="913.6" y="858.4" class="st0" width="0.5" height="48.9"/>
</g>
</svg>
