<svg xmlns="http://www.w3.org/2000/svg" width="248.469" height="50.582" viewBox="0 0 248.469 50.582">
  <g id="Layer_6" data-name="Layer 6" transform="translate(-804.439 -858.392)">
    <text id="R_D_Tax_Incentive" data-name="R &amp; D Tax Incentive" transform="translate(926.908 905.974)" fill="#fff" font-size="13" font-family="Gotham-Medium, Gotham" font-weight="500"><tspan x="0" y="0">R &amp; D Tax Incentive</tspan></text>
    <g id="Business" transform="translate(927.892 864.333)">
      <path id="Path_53" data-name="Path 53" d="M1031.646,870.688h9.661a7.782,7.782,0,0,1,5.635,1.91,4.815,4.815,0,0,1,1.445,3.567v.064a5.124,5.124,0,0,1-3.081,4.8c2.528.862,4.281,2.307,4.281,5.232v.061c0,3.847-3.17,5.908-7.967,5.908h-9.974Zm12.954,6.094c0-1.693-1.354-2.739-3.783-2.739h-5.447v5.725h5.167c2.434,0,4.063-.955,4.063-2.925Zm-3.231,6.187h-6v5.908h6.279c2.584,0,4.151-1.016,4.151-2.955v-.063c0-1.814-1.445-2.889-4.431-2.889" transform="translate(-1031.646 -869.948)" fill="#fff"/>
      <path id="Path_54" data-name="Path 54" d="M1069.705,890.771V880.434h3.724v9.231c0,2.523,1.264,3.938,3.478,3.938,2.156,0,3.66-1.477,3.66-4v-9.17h3.757v16.245h-3.757v-2.521a5.833,5.833,0,0,1-5.074,2.859c-3.663,0-5.788-2.461-5.788-6.246" transform="translate(-1049.026 -874.399)" fill="#fff"/>
      <path id="Path_55" data-name="Path 55" d="M1101.033,894.324l1.661-2.523a9.2,9.2,0,0,0,5.323,2c1.6,0,2.523-.678,2.523-1.754v-.062c0-1.264-1.724-1.692-3.628-2.277-2.4-.677-5.08-1.66-5.08-4.771v-.063c0-3.078,2.559-4.952,5.788-4.952a11.235,11.235,0,0,1,5.97,1.846l-1.479,2.645a9.423,9.423,0,0,0-4.584-1.536c-1.449,0-2.278.676-2.278,1.6v.064c0,1.2,1.753,1.688,3.663,2.3,2.368.74,5.046,1.817,5.046,4.74v.063c0,3.416-2.646,5.108-6.031,5.108a11.417,11.417,0,0,1-6.893-2.432" transform="translate(-1063.331 -874.165)" fill="#fff"/>
      <path id="Path_56" data-name="Path 56" d="M1130.257,869.326h4v3.539h-4Zm.155,6.035h3.724v16.245h-3.724Z" transform="translate(-1076.676 -869.326)" fill="#fff"/>
      <path id="Path_57" data-name="Path 57" d="M1144.645,880.146h3.725v2.491a5.885,5.885,0,0,1,5.076-2.834c3.662,0,5.784,2.464,5.784,6.218v10.37h-3.72V887.16c0-2.523-1.264-3.968-3.476-3.968-2.156,0-3.663,1.5-3.663,4.029v9.17h-3.725Z" transform="translate(-1083.247 -874.11)" fill="#fff"/>
      <path id="Path_58" data-name="Path 58" d="M1176.421,888.331v-.063c0-4.647,3.294-8.464,7.941-8.464,5.171,0,7.789,4.064,7.789,8.742,0,.339-.031.675-.063,1.048h-11.941a4.535,4.535,0,0,0,4.678,4.123,5.916,5.916,0,0,0,4.4-1.939l2.184,1.939a8.231,8.231,0,0,1-6.648,3.047,8.109,8.109,0,0,1-8.342-8.432m12.035-1.2c-.248-2.4-1.662-4.281-4.126-4.281-2.277,0-3.875,1.756-4.213,4.281Z" transform="translate(-1097.757 -874.111)" fill="#fff"/>
      <path id="Path_59" data-name="Path 59" d="M1208.133,894.324l1.664-2.523a9.191,9.191,0,0,0,5.324,2c1.6,0,2.529-.678,2.529-1.754v-.062c0-1.264-1.726-1.692-3.635-2.277-2.4-.677-5.076-1.66-5.076-4.771v-.063c0-3.078,2.552-4.952,5.784-4.952a11.238,11.238,0,0,1,5.97,1.846l-1.477,2.645a9.4,9.4,0,0,0-4.587-1.536c-1.445,0-2.277.676-2.277,1.6v.064c0,1.2,1.757,1.688,3.663,2.3,2.367.74,5.047,1.817,5.047,4.74v.063c0,3.416-2.647,5.108-6.032,5.108a11.439,11.439,0,0,1-6.9-2.432" transform="translate(-1112.238 -874.165)" fill="#fff"/>
      <path id="Path_60" data-name="Path 60" d="M1234.814,894.324l1.664-2.523a9.206,9.206,0,0,0,5.326,2c1.6,0,2.523-.678,2.523-1.754v-.062c0-1.264-1.726-1.692-3.632-2.277-2.4-.677-5.08-1.66-5.08-4.771v-.063c0-3.078,2.557-4.952,5.788-4.952a11.248,11.248,0,0,1,5.972,1.846l-1.48,2.645a9.394,9.394,0,0,0-4.583-1.536c-1.449,0-2.277.676-2.277,1.6v.064c0,1.2,1.751,1.688,3.657,2.3,2.372.74,5.047,1.817,5.047,4.74v.063c0,3.416-2.646,5.108-6.027,5.108a11.436,11.436,0,0,1-6.9-2.432" transform="translate(-1124.422 -874.165)" fill="#fff"/>
    </g>
    <path id="Path_61" data-name="Path 61" d="M808.633,937.66h-2.4l-.286.661a1.448,1.448,0,0,0-.141.543.445.445,0,0,0,.232.423,1.92,1.92,0,0,0,.665.124v.187h-2.262v-.187a1.032,1.032,0,0,0,.6-.3,4.235,4.235,0,0,0,.581-1.029l2.43-5.422h.1l2.448,5.572a3.268,3.268,0,0,0,.583,1,.771.771,0,0,0,.477.183v.187H808.37v-.187h.132a.983.983,0,0,0,.556-.114.259.259,0,0,0,.115-.228.52.52,0,0,0-.032-.184,3.317,3.317,0,0,0-.151-.377Zm-.174-.371-1.012-2.34-1.041,2.34Z" transform="translate(0 -33.913)" fill="#fff" fill-rule="evenodd"/>
    <path id="Path_62" data-name="Path 62" d="M821.561,936.8v3.669a1.4,1.4,0,0,0,.1.671.585.585,0,0,0,.407.166v.184h-1.909v-.633a2.4,2.4,0,0,1-.67.59,1.559,1.559,0,0,1-.754.178,1.125,1.125,0,0,1-.707-.238,1.21,1.21,0,0,1-.407-.572,4.156,4.156,0,0,1-.108-1.139v-1.861a1.286,1.286,0,0,0-.1-.659.6.6,0,0,0-.408-.173V936.8h1.911V940a2.994,2.994,0,0,0,.046.65.459.459,0,0,0,.148.22.425.425,0,0,0,.244.072.61.61,0,0,0,.325-.09,2.229,2.229,0,0,0,.48-.526v-2.511a1.373,1.373,0,0,0-.1-.659.622.622,0,0,0-.41-.173V936.8Z" transform="translate(-5.736 -35.804)" fill="#fff"/>
    <path id="Path_63" data-name="Path 63" d="M829.922,936.55l.076,1.6h-.176a2.475,2.475,0,0,0-.631-.971,1.037,1.037,0,0,0-.653-.26.491.491,0,0,0-.349.141.411.411,0,0,0-.143.316.4.4,0,0,0,.1.26,4.822,4.822,0,0,0,.9.707,3.651,3.651,0,0,1,.97.846,1.344,1.344,0,0,1,.233.779,1.642,1.642,0,0,1-.194.768,1.382,1.382,0,0,1-.552.574,1.55,1.55,0,0,1-.785.2,2.689,2.689,0,0,1-.9-.208.68.68,0,0,0-.208-.055c-.108,0-.2.081-.273.252h-.166l-.08-1.687h.172a2.132,2.132,0,0,0,.618.992,1.186,1.186,0,0,0,.744.334.521.521,0,0,0,.389-.149.477.477,0,0,0,.154-.361.6.6,0,0,0-.149-.415,3.909,3.909,0,0,0-.669-.532,5.113,5.113,0,0,1-.994-.812,1.408,1.408,0,0,1-.329-.906,1.451,1.451,0,0,1,.371-.976,1.337,1.337,0,0,1,1.083-.443,1.571,1.571,0,0,1,.735.187.506.506,0,0,0,.216.073.278.278,0,0,0,.149-.034,1.121,1.121,0,0,0,.177-.217Z" transform="translate(-10.312 -35.686)" fill="#fff"/>
    <path id="Path_64" data-name="Path 64" d="M835.234,933.642v1.716h1.113v.493h-1.113v2.893a2.591,2.591,0,0,0,.031.524.458.458,0,0,0,.137.192.311.311,0,0,0,.174.072c.217,0,.428-.167.619-.5l.152.111a1.376,1.376,0,0,1-1.32.964,1.171,1.171,0,0,1-.753-.246,1.093,1.093,0,0,1-.394-.558,4.7,4.7,0,0,1-.051-.923v-2.531h-.612v-.174a6.256,6.256,0,0,0,1.075-.937,5.842,5.842,0,0,0,.777-1.1Z" transform="translate(-13.141 -34.363)" fill="#fff"/>
    <path id="Path_65" data-name="Path 65" d="M841.576,936.681v1.06a3.347,3.347,0,0,1,.818-.96,1.213,1.213,0,0,1,.678-.241.573.573,0,0,1,.444.176.647.647,0,0,1,.169.481.776.776,0,0,1-.164.524.5.5,0,0,1-.391.184.68.68,0,0,1-.462-.168,2.026,2.026,0,0,0-.231-.191.216.216,0,0,0-.116-.03.411.411,0,0,0-.274.11.993.993,0,0,0-.311.484,3.417,3.417,0,0,0-.161,1.073v1.081l0,.281a1.2,1.2,0,0,0,.033.364.465.465,0,0,0,.176.2,1.128,1.128,0,0,0,.4.077v.184h-2.53v-.184a.549.549,0,0,0,.411-.166,1.525,1.525,0,0,0,.11-.755v-2.593a1.918,1.918,0,0,0-.039-.512.412.412,0,0,0-.144-.2.765.765,0,0,0-.339-.092v-.183Z" transform="translate(-16.084 -35.686)" fill="#fff"/>
    <path id="Path_66" data-name="Path 66" d="M849.732,940.676a2.464,2.464,0,0,1-1.54.756.9.9,0,0,1-.93-.923,1.279,1.279,0,0,1,.461-.961,8.473,8.473,0,0,1,2.01-1.141v-.474a2.08,2.08,0,0,0-.061-.666.51.51,0,0,0-.215-.244.659.659,0,0,0-.361-.1.9.9,0,0,0-.534.146.246.246,0,0,0-.13.21.424.424,0,0,0,.14.261.647.647,0,0,1,.189.416.577.577,0,0,1-.183.421.692.692,0,0,1-.479.169.753.753,0,0,1-.53-.188.58.58,0,0,1-.212-.448,1.045,1.045,0,0,1,.284-.685,1.783,1.783,0,0,1,.8-.5,3.178,3.178,0,0,1,1.063-.177,1.729,1.729,0,0,1,1.052.285,1.316,1.316,0,0,1,.507.612,4.042,4.042,0,0,1,.073.97v1.817a1.9,1.9,0,0,0,.023.4.25.25,0,0,0,.074.122.183.183,0,0,0,.115.039.359.359,0,0,0,.268-.182l.15.118a1.875,1.875,0,0,1-.524.54,1.086,1.086,0,0,1-.605.166.951.951,0,0,1-.625-.185.848.848,0,0,1-.277-.571m0-.368v-1.566a2.907,2.907,0,0,0-.9.76.905.905,0,0,0-.193.545.585.585,0,0,0,.162.405.458.458,0,0,0,.353.137.964.964,0,0,0,.581-.281" transform="translate(-19.555 -35.686)" fill="#fff" fill-rule="evenodd"/>
    <path id="Path_67" data-name="Path 67" d="M857.648,932.916v5.824a1.131,1.131,0,0,0,.118.636.643.643,0,0,0,.454.156v.183h-2.535v-.183a.6.6,0,0,0,.462-.181,1.08,1.08,0,0,0,.1-.611v-4.855a1.094,1.094,0,0,0-.114-.626.622.622,0,0,0-.448-.16v-.183Z" transform="translate(-23.401 -34.031)" fill="#fff"/>
    <path id="Path_68" data-name="Path 68" d="M862.193,932.616a.773.773,0,0,1,.546,1.326.759.759,0,0,1-.546.223.749.749,0,0,1-.545-.223.738.738,0,0,1-.229-.55.792.792,0,0,1,.774-.776m.7,2.273V938.6a1.123,1.123,0,0,0,.116.636.64.64,0,0,0,.452.156v.184h-2.53v-.184a.6.6,0,0,0,.457-.181,1.092,1.092,0,0,0,.1-.611v-2.738a1.092,1.092,0,0,0-.117-.631.623.623,0,0,0-.442-.161v-.182Z" transform="translate(-25.797 -33.894)" fill="#fff" fill-rule="evenodd"/>
    <path id="Path_69" data-name="Path 69" d="M868.542,940.676a2.463,2.463,0,0,1-1.536.756.9.9,0,0,1-.933-.923,1.274,1.274,0,0,1,.461-.961,8.481,8.481,0,0,1,2.008-1.141v-.474a2.346,2.346,0,0,0-.055-.666.546.546,0,0,0-.221-.244.657.657,0,0,0-.359-.1.9.9,0,0,0-.537.146.253.253,0,0,0-.128.21.448.448,0,0,0,.139.261.63.63,0,0,1,.19.416.561.561,0,0,1-.185.421.675.675,0,0,1-.475.169.758.758,0,0,1-.53-.188.576.576,0,0,1-.213-.448,1.037,1.037,0,0,1,.286-.685,1.766,1.766,0,0,1,.8-.5,3.192,3.192,0,0,1,1.066-.177,1.713,1.713,0,0,1,1.048.285,1.25,1.25,0,0,1,.505.612,3.873,3.873,0,0,1,.074.97v1.817a1.9,1.9,0,0,0,.025.4.25.25,0,0,0,.074.122.181.181,0,0,0,.114.039.348.348,0,0,0,.267-.182l.15.118a1.863,1.863,0,0,1-.52.54,1.1,1.1,0,0,1-.607.166.954.954,0,0,1-.626-.185.867.867,0,0,1-.277-.571m0-.368v-1.566a2.927,2.927,0,0,0-.9.76.906.906,0,0,0-.2.545.574.574,0,0,0,.167.405.447.447,0,0,0,.349.137.96.96,0,0,0,.581-.281" transform="translate(-28.145 -35.686)" fill="#fff" fill-rule="evenodd"/>
    <path id="Path_70" data-name="Path 70" d="M876.472,936.681v.606a2.668,2.668,0,0,1,.688-.566,1.451,1.451,0,0,1,.715-.181,1.138,1.138,0,0,1,.755.255,1.221,1.221,0,0,1,.4.629,4.93,4.93,0,0,1,.08,1.095v1.825a1.463,1.463,0,0,0,.092.677.587.587,0,0,0,.412.166v.184h-2.371v-.184a.493.493,0,0,0,.382-.221,1.35,1.35,0,0,0,.082-.622v-2.086a3.319,3.319,0,0,0-.048-.724.407.407,0,0,0-.154-.231.377.377,0,0,0-.235-.083c-.288,0-.556.205-.8.615v2.51a1.456,1.456,0,0,0,.094.666.5.5,0,0,0,.365.177v.184h-2.368v-.184a.586.586,0,0,0,.418-.191,1.375,1.375,0,0,0,.088-.652V937.7a1.276,1.276,0,0,0-.1-.659.586.586,0,0,0-.4-.173v-.183Z" transform="translate(-32.022 -35.686)" fill="#fff"/>
    <path id="Path_71" data-name="Path 71" d="M895.255,932.624v2.4h-.187a3.025,3.025,0,0,0-1.008-1.493,2.355,2.355,0,0,0-1.468-.515,1.881,1.881,0,0,0-1.264.434,2.269,2.269,0,0,0-.717,1.192,5.839,5.839,0,0,0-.211,1.575,5.95,5.95,0,0,0,.226,1.713,1.984,1.984,0,0,0,.743,1.082,2.155,2.155,0,0,0,1.224.346,2.414,2.414,0,0,0,.5-.051,3.412,3.412,0,0,0,.529-.154v-1.412a1.482,1.482,0,0,0-.054-.519.508.508,0,0,0-.231-.216.859.859,0,0,0-.416-.093h-.176v-.186h3.305v.186a1.494,1.494,0,0,0-.528.1.516.516,0,0,0-.226.259,1.451,1.451,0,0,0-.044.466v1.412a6.723,6.723,0,0,1-1.36.439,6.946,6.946,0,0,1-1.456.146,4.28,4.28,0,0,1-1.612-.259,4.16,4.16,0,0,1-1.125-.691,3.3,3.3,0,0,1-.761-.965,3.352,3.352,0,0,1-.351-1.551,3.505,3.505,0,0,1,1.076-2.592,3.714,3.714,0,0,1,2.709-1.058,4.8,4.8,0,0,1,.916.083,4.117,4.117,0,0,1,.71.228,3.107,3.107,0,0,0,.588.186.385.385,0,0,0,.258-.1.894.894,0,0,0,.221-.388Z" transform="translate(-38.427 -33.895)" fill="#fff"/>
    <path id="Path_72" data-name="Path 72" d="M905.009,936.54a2.2,2.2,0,0,1,1.139.313,2,2,0,0,1,.791.9,2.952,2.952,0,0,1,.28,1.272,2.692,2.692,0,0,1-.506,1.669,2,2,0,0,1-1.69.81,1.954,1.954,0,0,1-1.633-.741,2.912,2.912,0,0,1,.016-3.473,1.909,1.909,0,0,1,1.6-.751m.017.354a.593.593,0,0,0-.44.2,1.4,1.4,0,0,0-.242.763c-.035.378-.053.9-.053,1.58a6.878,6.878,0,0,0,.07,1,.964.964,0,0,0,.234.541.548.548,0,0,0,.414.186.57.57,0,0,0,.375-.124.806.806,0,0,0,.258-.48,11.045,11.045,0,0,0,.1-1.922,4.689,4.689,0,0,0-.1-1.167.936.936,0,0,0-.278-.469.548.548,0,0,0-.346-.106" transform="translate(-44.926 -35.686)" fill="#fff" fill-rule="evenodd"/>
    <path id="Path_73" data-name="Path 73" d="M912.994,941.623l-1.583-3.631a3.81,3.81,0,0,0-.442-.833.6.6,0,0,0-.341-.178V936.8h2.488v.183a.445.445,0,0,0-.319.089.333.333,0,0,0-.119.258,2.173,2.173,0,0,0,.22.7l.772,1.762.615-1.522a2.784,2.784,0,0,0,.266-.923.319.319,0,0,0-.11-.247.638.638,0,0,0-.4-.113V936.8h1.534v.183a.656.656,0,0,0-.362.17,3.193,3.193,0,0,0-.419.795l-1.56,3.676Z" transform="translate(-48.491 -35.804)" fill="#fff"/>
    <path id="Path_74" data-name="Path 74" d="M923.224,938.853h-2.571a2.4,2.4,0,0,0,.493,1.475,1.043,1.043,0,0,0,.832.417.983.983,0,0,0,.545-.162,2.234,2.234,0,0,0,.53-.607l.171.109a2.9,2.9,0,0,1-.844,1.1,1.8,1.8,0,0,1-1.069.319,1.78,1.78,0,0,1-1.577-.8,2.835,2.835,0,0,1-.434-1.607,2.672,2.672,0,0,1,.635-1.865,1.958,1.958,0,0,1,1.488-.695,1.6,1.6,0,0,1,1.233.587,2.668,2.668,0,0,1,.568,1.727m-1.237-.335a4.593,4.593,0,0,0-.087-1.107.892.892,0,0,0-.275-.455.4.4,0,0,0-.278-.092.5.5,0,0,0-.426.256,2.205,2.205,0,0,0-.3,1.223v.175Z" transform="translate(-52.451 -35.686)" fill="#fff" fill-rule="evenodd"/>
    <path id="Path_75" data-name="Path 75" d="M929,936.681v1.06a3.391,3.391,0,0,1,.814-.96,1.219,1.219,0,0,1,.677-.241.592.592,0,0,1,.45.176.659.659,0,0,1,.168.481.765.765,0,0,1-.168.524.492.492,0,0,1-.391.184.663.663,0,0,1-.457-.168,2.442,2.442,0,0,0-.234-.191.221.221,0,0,0-.115-.03.419.419,0,0,0-.276.11,1.039,1.039,0,0,0-.312.484,3.534,3.534,0,0,0-.156,1.073v1.362a1.26,1.26,0,0,0,.035.364.424.424,0,0,0,.179.2,1.1,1.1,0,0,0,.4.077v.184h-2.528v-.184a.539.539,0,0,0,.407-.166,1.488,1.488,0,0,0,.115-.755v-2.593a1.871,1.871,0,0,0-.042-.512.4.4,0,0,0-.145-.2.745.745,0,0,0-.334-.092v-.183Z" transform="translate(-56.007 -35.686)" fill="#fff"/>
    <path id="Path_76" data-name="Path 76" d="M936.957,936.681v.606a2.813,2.813,0,0,1,.688-.566,1.472,1.472,0,0,1,.717-.181,1.127,1.127,0,0,1,.756.255,1.229,1.229,0,0,1,.4.629,4.918,4.918,0,0,1,.078,1.095v1.825a1.39,1.39,0,0,0,.1.677.566.566,0,0,0,.411.166v.184h-2.371v-.184a.492.492,0,0,0,.378-.221,1.387,1.387,0,0,0,.081-.622v-2.086a3.932,3.932,0,0,0-.04-.724A.459.459,0,0,0,938,937.3a.374.374,0,0,0-.238-.083c-.285,0-.553.205-.8.615v2.51a1.472,1.472,0,0,0,.094.666.516.516,0,0,0,.366.177v.184h-2.369v-.184a.586.586,0,0,0,.423-.191,1.446,1.446,0,0,0,.08-.652V937.7a1.361,1.361,0,0,0-.1-.659.6.6,0,0,0-.407-.173v-.183Z" transform="translate(-59.642 -35.686)" fill="#fff"/>
    <path id="Path_77" data-name="Path 77" d="M946.953,936.681v.618a2.757,2.757,0,0,1,.715-.589,1.551,1.551,0,0,1,.717-.171,1.215,1.215,0,0,1,1.23.85,3.046,3.046,0,0,1,.769-.65,1.634,1.634,0,0,1,.768-.2,1.2,1.2,0,0,1,.774.226,1.112,1.112,0,0,1,.4.566,3.824,3.824,0,0,1,.113,1.091v1.921a1.353,1.353,0,0,0,.1.674.6.6,0,0,0,.408.169v.184h-2.419v-.184a.54.54,0,0,0,.419-.221,1.31,1.31,0,0,0,.092-.622v-2.015a3.684,3.684,0,0,0-.052-.8.461.461,0,0,0-.157-.252.394.394,0,0,0-.254-.085.767.767,0,0,0-.437.161,2.052,2.052,0,0,0-.444.472v2.515a1.437,1.437,0,0,0,.085.638.523.523,0,0,0,.438.2v.184H947.8v-.184a.513.513,0,0,0,.3-.1.4.4,0,0,0,.15-.208,2.024,2.024,0,0,0,.04-.538v-2.015a3.79,3.79,0,0,0-.046-.8.472.472,0,0,0-.173-.252.4.4,0,0,0-.25-.089.644.644,0,0,0-.368.107,2,2,0,0,0-.5.529v2.515a1.475,1.475,0,0,0,.1.657.523.523,0,0,0,.414.186v.184h-2.416v-.184a.575.575,0,0,0,.418-.191,1.356,1.356,0,0,0,.089-.652V937.7a1.257,1.257,0,0,0-.105-.659.576.576,0,0,0-.4-.173v-.183Z" transform="translate(-64.208 -35.686)" fill="#fff"/>
    <path id="Path_78" data-name="Path 78" d="M963.974,938.853H961.4a2.436,2.436,0,0,0,.5,1.475,1.037,1.037,0,0,0,.829.417.972.972,0,0,0,.549-.162,2.241,2.241,0,0,0,.528-.607l.173.109a2.888,2.888,0,0,1-.846,1.1,1.8,1.8,0,0,1-1.07.319,1.784,1.784,0,0,1-1.576-.8,2.844,2.844,0,0,1-.433-1.607,2.675,2.675,0,0,1,.635-1.865,1.954,1.954,0,0,1,1.486-.695,1.6,1.6,0,0,1,1.235.587,2.673,2.673,0,0,1,.57,1.727m-1.24-.335a4.28,4.28,0,0,0-.088-1.107.874.874,0,0,0-.268-.455.415.415,0,0,0-.282-.092.492.492,0,0,0-.426.256,2.2,2.2,0,0,0-.3,1.223v.175Z" transform="translate(-71.058 -35.686)" fill="#fff" fill-rule="evenodd"/>
    <path id="Path_79" data-name="Path 79" d="M969.51,936.681v.606a2.668,2.668,0,0,1,.691-.566,1.439,1.439,0,0,1,.711-.181,1.138,1.138,0,0,1,.758.255,1.206,1.206,0,0,1,.4.629,4.966,4.966,0,0,1,.08,1.095v1.825a1.467,1.467,0,0,0,.095.677.58.58,0,0,0,.407.166v.184h-2.366v-.184a.489.489,0,0,0,.38-.221,1.4,1.4,0,0,0,.081-.622v-2.086a3.242,3.242,0,0,0-.047-.724.423.423,0,0,0-.155-.231.368.368,0,0,0-.235-.083c-.289,0-.555.205-.8.615v2.51a1.376,1.376,0,0,0,.1.666.49.49,0,0,0,.369.177v.184H967.6v-.184a.587.587,0,0,0,.422-.191,1.41,1.41,0,0,0,.085-.652V937.7a1.3,1.3,0,0,0-.1-.659.611.611,0,0,0-.408-.173v-.183Z" transform="translate(-74.507 -35.686)" fill="#fff"/>
    <path id="Path_80" data-name="Path 80" d="M978.88,933.642v1.716h1.114v.493H978.88v2.893a2.468,2.468,0,0,0,.036.524.418.418,0,0,0,.136.192.3.3,0,0,0,.18.072c.214,0,.423-.167.613-.5l.149.111a1.366,1.366,0,0,1-1.314.964,1.2,1.2,0,0,1-.758-.246,1.1,1.1,0,0,1-.392-.558,4.626,4.626,0,0,1-.049-.923v-2.531h-.611v-.174a6.345,6.345,0,0,0,1.074-.937,5.717,5.717,0,0,0,.776-1.1Z" transform="translate(-78.739 -34.363)" fill="#fff"/>
    <path id="Path_81" data-name="Path 81" d="M878.462,913.13a.329.329,0,0,1-.129.128" transform="translate(-33.744 -24.996)" fill="#fff"/>
    <path id="Path_82" data-name="Path 82" d="M880.522,895.822a.248.248,0,0,0,0-.5.248.248,0,0,0,0,.5" transform="translate(-34.631 -16.865)" fill="#fff"/>
    <path id="Path_83" data-name="Path 83" d="M894.223,877.155v-.006h-8.84v.006h0l.006,7.142a1.614,1.614,0,0,0,.693,1.475l3.4,2.033a.41.41,0,0,0,.585.031l3.454-2.064a1.619,1.619,0,0,0,.693-1.475l.01-7.142Zm-5.9,2.064h-.766V877.4h.766Zm-.555.64.107-.114-.066-.125.141.014.086-.148.083.148.148-.014-.066.125.109.114-.142.027v.156l-.132-.1-.13.1v-.156Zm-2.134.539h.931v1.736h-.931Zm.151-.778.144.014.089-.148.081.148.145-.014-.065.125.1.114-.136.027v.156l-.131-.1-.135.1v-.156l-.138-.027.11-.114Zm1.051,1.765.142.016.086-.148.084.148.145-.016-.066.127.108.115-.142.023v.155l-.129-.1-.131.1v-.155l-.136-.023.106-.115Zm.616-1.393c0-.052-.068-.064-.09-.064-.085,0-.119.139-.191.146-.049,0-.084,0-.084-.057s.107-.085.143-.123c-.574,0-.581.263-.674.263-.148,0,.128-.279.207-.359-.114-.017-.186-.158-.312-.234.061-.082.1-.047.171.012,0-.059.044-.131.178-.131.259,0,.183.247.223.247s0-.247.171-.247c.255,0,.575.652.286.652-.122,0-.025-.089-.028-.106m-.654-1.912.106-.114-.067-.122.142.013.086-.151.084.151.145-.013-.066.122.108.114-.142.028v.153l-.129-.1-.131.1v-.153Zm-.232,1.139h-.931V877.4h.931Zm1.758,7.608-2.116-1.264a1.516,1.516,0,0,1-.573-1.178v-2.009h2.689Zm-.767-6.429h.767v1.736h-.767Zm3.494,6.576-.977.582h-.021a.411.411,0,0,1-.519,0l-.974-.578v-4.6h2.491Zm0-4.841h-2.492V877.4h2.492Zm2.927,2.252a1.514,1.514,0,0,1-.569,1.178l-2.12,1.264v-4.451h2.689Zm0-2.252h-2.689V877.4h2.689Z" transform="translate(-36.962 -8.565)" fill="#fff"/>
    <path id="Path_84" data-name="Path 84" d="M888.477,888.588c-.014-.028-.337.11-.246.1a.984.984,0,0,1,.269-.367c-.013-.114-.158-.008-.311.072.5-.724.182-.426-.1-.376.444-.485.325-.476,0-.325.255-.207.317-.452.275-.523-.248.323-.471.276-.471.574a1.24,1.24,0,0,1-.174.636c-.129.141-.033-.532-.377-.532-.11,0-.371-.009-.449.125.07,0,.174.178.174.25s.067.269-.052.269-.258-.249-.258-.366-.005-.094-.005-.268a.956.956,0,0,0-.655-.685c0,.2.261.247.261.5-.111,0-.27-.207-.27-.079s.168.152.168.263-.19-.041-.19.08c0,.1.1.084.131.187-.076-.022-.146-.013-.161.028s.024.08.079.111c-.027.025-.049.085-.049.251,0,.566.355.83.614.83.185,0,.156-.133.179-.2.009.1.1-.046.1.117,0,.18-.181.1-.181.252,0,.2.282-.008.282.215a3,3,0,0,1-.029.366c0,.072.3-.1.276-.129.071.027.068.237.2.231.086-.006.1-.217.169-.234-.036.01.274.2.274.106,0-.266-.114-.149-.114-.333,0-.166.368-.136.308-.218-.045-.072-.084-.028-.12-.151.011.021-.284-.422.066-.19s.4-.556.383-.6" transform="translate(-37.262 -13.142)" fill="#fff"/>
    <path id="Path_85" data-name="Path 85" d="M907.649,892.787a.258.258,0,1,0,0-.512.258.258,0,1,0,0,.512" transform="translate(-46.997 -15.473)" fill="#fff"/>
    <path id="Path_86" data-name="Path 86" d="M905.48,894.073a.259.259,0,1,0,0-.514.259.259,0,1,0,0,.514" transform="translate(-46.005 -16.059)" fill="#fff"/>
    <path id="Path_87" data-name="Path 87" d="M879.758,897.039a.259.259,0,1,0-.29-.258.273.273,0,0,0,.29.258" transform="translate(-34.262 -17.413)" fill="#fff"/>
    <path id="Path_88" data-name="Path 88" d="M881.419,897.184a.256.256,0,1,0-.29-.255.275.275,0,0,0,.29.255" transform="translate(-35.02 -17.482)" fill="#fff"/>
    <path id="Path_89" data-name="Path 89" d="M927.681,874.845a1.827,1.827,0,0,1,.217,1.927c-.17-.018-.142-.234-.17-.357a2.291,2.291,0,0,1-.276-1.955c.2.029.121.278.229.385" transform="translate(-56.117 -7.337)" fill="#fff"/>
    <path id="Path_90" data-name="Path 90" d="M859.507,875.8a2.693,2.693,0,0,0,0,1.228c-.079.075-.063-.079-.139-.064-.6-.434-.323-1.288-.478-1.892a.122.122,0,0,1,.155-.036,1.129,1.129,0,0,1,.462.763" transform="translate(-24.865 -7.595)" fill="#fff"/>
    <path id="Path_91" data-name="Path 91" d="M929.919,876.409c.094.172-.078.342-.2.418a.4.4,0,0,1-.385-.169.349.349,0,0,1,.185-.4.4.4,0,0,1,.4.155" transform="translate(-57.027 -8.155)" fill="#fff"/>
    <path id="Path_92" data-name="Path 92" d="M857.8,877.63a.448.448,0,0,1-.2.343c-.094,0-.232,0-.293-.079a.282.282,0,0,1-.062-.328.36.36,0,0,1,.293-.137c.105.043.217.076.258.2" transform="translate(-24.103 -8.694)" fill="#fff"/>
    <path id="Path_93" data-name="Path 93" d="M931.033,878.155a.328.328,0,0,1,0,.248.348.348,0,0,1-.415.142.424.424,0,0,1-.171-.267.476.476,0,0,1,.264-.278.486.486,0,0,1,.322.155" transform="translate(-57.541 -8.954)" fill="#fff"/>
    <path id="Path_94" data-name="Path 94" d="M929.482,878.241c.124.062.031.219.013.312-.072.077-.183.2-.321.153-.077-.077-.169-.077-.2-.186a.348.348,0,0,1,.216-.36.4.4,0,0,1,.293.08" transform="translate(-56.868 -9.024)" fill="#fff"/>
    <path id="Path_95" data-name="Path 95" d="M927.382,878.6c0,.169.015.386-.186.419-.183.064-.309-.094-.354-.216a.364.364,0,0,1,.232-.373.415.415,0,0,1,.308.171" transform="translate(-55.894 -9.15)" fill="#fff"/>
    <path id="Path_96" data-name="Path 96" d="M860.925,878.716c.044.153-.109.245-.205.324a.312.312,0,0,1-.309-.172c-.106-.109.032-.2.064-.294a.289.289,0,0,1,.451.142" transform="translate(-25.541 -9.187)" fill="#fff"/>
    <path id="Path_97" data-name="Path 97" d="M859.257,878.788a.317.317,0,0,1-.167.3.272.272,0,0,1-.308-.139.264.264,0,0,1,.135-.358c.173-.062.279.094.34.2" transform="translate(-24.802 -9.215)" fill="#fff"/>
    <path id="Path_98" data-name="Path 98" d="M920.668,878.924a3.3,3.3,0,0,1,.308,1.115c-.061.3.048.683-.17.887-.215-.079-.233-.342-.368-.483a2.688,2.688,0,0,1,.058-1.707c.122-.046.122.109.173.187" transform="translate(-52.911 -9.286)" fill="#fff"/>
    <path id="Path_99" data-name="Path 99" d="M857.854,879.255c.046.188-.1.282-.2.39-.183.047-.306-.094-.385-.216a.306.306,0,0,1,.586-.174" transform="translate(-24.124 -9.434)" fill="#fff"/>
    <path id="Path_100" data-name="Path 100" d="M924.909,879.75a2.214,2.214,0,0,1,.073,1.49l-.089.08a6.2,6.2,0,0,1-.633-1.259,2.084,2.084,0,0,1,.183-.884c.113-.079.175.015.217.108a.608.608,0,0,0,.249.465" transform="translate(-54.716 -9.478)" fill="#fff"/>
    <path id="Path_101" data-name="Path 101" d="M928.529,879.564a.411.411,0,0,1-.231.372.28.28,0,0,1-.356-.186.342.342,0,0,1,.167-.373c.174-.092.341.062.421.187" transform="translate(-56.391 -9.57)" fill="#fff"/>
    <path id="Path_102" data-name="Path 102" d="M859.205,880.381a.329.329,0,0,1-.232.294c-.126.095-.215-.062-.325-.106a.383.383,0,0,1,0-.36c.048-.092.156-.092.247-.122.14.077.276.136.31.293" transform="translate(-24.734 -9.907)" fill="#fff"/>
    <path id="Path_103" data-name="Path 103" d="M860.513,880.3c.062.155-.107.23-.168.31-.185.061-.278-.079-.356-.185a.343.343,0,0,1,.172-.341c.185-.047.278.077.353.216" transform="translate(-25.364 -9.899)" fill="#fff"/>
    <path id="Path_104" data-name="Path 104" d="M928.426,880.4c-.016.2-.327.4-.358.606a1.553,1.553,0,0,1-.955.868.718.718,0,0,1-.355.2c-.031-.311.247-.591.417-.869a2.27,2.27,0,0,1,1.251-.807" transform="translate(-55.855 -10.049)" fill="#fff"/>
    <path id="Path_105" data-name="Path 105" d="M858.21,881.122a5.645,5.645,0,0,0,.635.733.13.13,0,0,1-.111.155c-.752-.046-1.26-.825-1.632-1.365.043-.173.243-.032.353-.049.263.2.555.264.755.527" transform="translate(-24.048 -10.122)" fill="#fff"/>
    <path id="Path_106" data-name="Path 106" d="M928.976,882a2.006,2.006,0,0,1-.953,1.677c-.173.064-.359.235-.528.124a7.815,7.815,0,0,1,1.358-1.8Z" transform="translate(-56.193 -10.781)" fill="#fff"/>
    <path id="Path_107" data-name="Path 107" d="M924.252,882.676a.373.373,0,0,1-.264.447c-.167.017-.278-.121-.351-.245a.316.316,0,0,1,.217-.342.256.256,0,0,1,.183-.046c.1.028.139.105.216.186" transform="translate(-54.431 -11.004)" fill="#fff"/>
    <path id="Path_108" data-name="Path 108" d="M856.517,882.915a8.419,8.419,0,0,1,.84.73c-.2.139-.454.017-.679.017-.529-.186-.881-.638-1.423-.794.014-.172.215-.11.326-.153a2.688,2.688,0,0,1,.936.2" transform="translate(-23.205 -11.105)" fill="#fff"/>
    <path id="Path_109" data-name="Path 109" d="M871.268,869.994c-.862-.339-1.436.562-2.317.45-.1.064-.075.171-.136.249-.048.047-.125.016-.167-.015-.048-.374-.173-.717-.218-1.074-.093-.155-.049-.371-.125-.524-.491-1.353,1.2-.328,1.543-1.119.292-.685-.573-.763-.833-1.243v-.2c-.247-.248-.506-.328-.662-.653a2.187,2.187,0,0,0,.045-1.2c-.016-.091-.076-.216-.215-.169-.289.406-.508.73-.787,1.12a8,8,0,0,0-.908-.686c-.233-.029-.446-.265-.707-.171a.2.2,0,0,0,.044.232,2.231,2.231,0,0,0,.756,1.526l.048.23a7.019,7.019,0,0,0-.281,2.05A11.314,11.314,0,0,1,863,873.5c-.877.993-1.927,1.957-2.064,3.325-.051.217.027.482-.141.638a5.388,5.388,0,0,1-1.434-.764c-.706-.5-1.728-.436-2.189-1.336-.187-.359.047-.712.215-.975a1.807,1.807,0,0,0,.172-1.991c-.061-.014-.082.063-.125.079-.047.914-.771,1.552-.494,2.561.062.3.217.482.3.76a2.484,2.484,0,0,1-.355-.077,3.884,3.884,0,0,0-1.035-.14c-.712.328-1.682-.076-2.251.576-.094.014-.217.029-.186.169.341,0,.665.094,1.007.078.535.093.894-.358,1.261-.56h.093c.152-.155.414-.064.617-.094a6.243,6.243,0,0,1,2.528,1.056v.065c-.3.139-.663.234-.97.4a2.108,2.108,0,0,0-.864,1.042c-.244.387.077.731.231,1.058.01.154.028.342.166.4.5-.528.034-1.181.112-1.786a1.26,1.26,0,0,1,1-.808c.879-.374,1.511.341,2.222.747a10.93,10.93,0,0,1-.078,2.1,1.852,1.852,0,0,1-.725.111,13.228,13.228,0,0,0-3.27,1.133c-.492.171-1.077.155-1.573.342a3.851,3.851,0,0,0,1.188-.046c1.513-.217,2.67-1.384,4.3-1.182l.031.047a3.689,3.689,0,0,1-.724,1.01c-.048-.171-.061-.31-.216-.406a.288.288,0,0,0-.355.127.2.2,0,0,0,0,.23.491.491,0,0,0,.337.22c-.03.14-.2.2-.293.326-.426.727-1.309.435-1.819.947-.077.108-.354.17-.23.342a2.331,2.331,0,0,0,1.589-.4c.567-.64,1.173-1.244,1.741-1.85a1.84,1.84,0,0,1-.337,1.413,1.786,1.786,0,0,0-.416-.232.372.372,0,0,0-.277.31.923.923,0,0,0,.228.311,5.478,5.478,0,0,1-1.789.577,31.316,31.316,0,0,1-3.364.247,7.6,7.6,0,0,1-1.663,0c-.589.109-1.221-.078-1.7.247-.06.079.016.155.016.234.71.467,1.683.092,2.483.233h6.08a2.67,2.67,0,0,0,1.249-.233,4.479,4.479,0,0,0,1.619-2.051,3.34,3.34,0,0,0,.327-.93,1.335,1.335,0,0,1,1.156-.947,6.924,6.924,0,0,1-.265,2.36c-.089.5-.414.977-.212,1.5.048.251.309.251.505.283,1.87-.033,3.733-.113,5.711.03a4.743,4.743,0,0,0,1.047.154c.031-.048.135-.061.094-.154a.592.592,0,0,0-.372-.438c-.03-.092-.168-.061-.216-.124-.985-.557-2.172-.262-3.33-.247a2.5,2.5,0,0,1-1.712-.168c-.232-.282-.059-1.169-.059-1.169a22.326,22.326,0,0,1,.952-3,2.625,2.625,0,0,0,.091-.715,2.911,2.911,0,0,0,.094-1.056,7.146,7.146,0,0,1,.48-1.445c.091-.233.165-.48.258-.714a2.389,2.389,0,0,1,.309-.807c.505.319,1,.308,1.239.879l.211,1.3c0,.077.064.234.171.145.4-.269.277-.858.277-1.262.095-.485-.244-.719-.384-1.137a1.867,1.867,0,0,1-.286-.447c-.062-.343-.81-.578-.64-1a1.263,1.263,0,0,1,.525-.886.177.177,0,0,1,.078.111l.181-.13.023-1.3c.5,0,1.244.061,1.754.061.136.048.246.156.4.169l.125-.169,1.252-.243c-.529.059-.854-.553-1.358-.553" transform="translate(-21.434 -2.783)" fill="#fff"/>
    <path id="Path_110" data-name="Path 110" d="M890.484,875.622a1.062,1.062,0,0,0,.116-.022Z" transform="translate(-39.292 -7.858)" fill="#fff"/>
    <path id="Path_111" data-name="Path 111" d="M865.307,883.446a.34.34,0,0,1-.235.353.458.458,0,0,1-.291-.184c-.058-.169.094-.294.216-.356.127.031.279.045.31.187" transform="translate(-27.549 -11.356)" fill="#fff"/>
    <path id="Path_112" data-name="Path 112" d="M863.537,883.554a.324.324,0,0,1,.064.353c-.109.1-.275.174-.369.05-.093-.093-.184-.2-.111-.328.111-.108.3-.2.417-.076" transform="translate(-26.785 -11.463)" fill="#fff"/>
    <path id="Path_113" data-name="Path 113" d="M903.424,883.915a.045.045,0,0,1,.012.023" transform="translate(-45.201 -11.655)" fill="#fff"/>
    <path id="Path_114" data-name="Path 114" d="M924.59,884.265c.06.17-.074.292-.2.356-.155-.047-.356-.079-.356-.28a.3.3,0,0,1,.555-.077" transform="translate(-54.613 -11.739)" fill="#fff"/>
    <path id="Path_115" data-name="Path 115" d="M926.142,884.247c.048.076.153.2.027.28a.676.676,0,0,0-.153.122.3.3,0,0,1-.37-.183c-.033-.173.109-.252.234-.329.1-.031.183.048.262.11" transform="translate(-55.347 -11.753)" fill="#fff"/>
    <path id="Path_116" data-name="Path 116" d="M856.334,884.464a.307.307,0,0,1-.418.2.7.7,0,0,1-.122-.2.288.288,0,0,1,.173-.265.373.373,0,0,1,.367.265" transform="translate(-23.451 -11.785)" fill="#fff"/>
    <path id="Path_117" data-name="Path 117" d="M865.849,884.966c-.017.124-.156.233-.264.292-.153.019-.26-.1-.339-.215a.308.308,0,0,1,.186-.308.344.344,0,0,1,.417.232" transform="translate(-27.767 -12.021)" fill="#fff"/>
    <path id="Path_118" data-name="Path 118" d="M864.252,884.879a.244.244,0,0,1,.045.248c-.1.076-.233.216-.389.124-.092-.077-.2-.141-.166-.3a.635.635,0,0,1,.225-.185c.127-.033.186.046.285.108" transform="translate(-27.078 -12.042)" fill="#fff"/>
    <path id="Path_119" data-name="Path 119" d="M930.4,885.132a.405.405,0,0,1-.2.294.294.294,0,0,1-.339-.078c-.092-.028-.059-.152-.059-.232a.519.519,0,0,1,.292-.2.57.57,0,0,1,.308.216" transform="translate(-57.241 -12.112)" fill="#fff"/>
    <path id="Path_120" data-name="Path 120" d="M932.274,885.416a.39.39,0,0,1-.293.281c-.089-.018-.263-.048-.232-.187a.278.278,0,0,1,.143-.251.269.269,0,0,1,.382.157" transform="translate(-58.134 -12.255)" fill="#fff"/>
    <path id="Path_121" data-name="Path 121" d="M859.536,885.82a.3.3,0,0,1-.187.372c-.1.062-.215-.017-.293-.08a.268.268,0,0,1-.078-.31c.031-.137.171-.107.267-.169a.382.382,0,0,1,.291.187" transform="translate(-24.894 -12.44)" fill="#fff"/>
    <path id="Path_122" data-name="Path 122" d="M860.941,886.062c.043.123-.1.168-.125.26a.257.257,0,0,1-.279.035c-.108-.095-.232-.232-.127-.373.127-.233.452-.108.531.078" transform="translate(-25.541 -12.542)" fill="#fff"/>
    <path id="Path_123" data-name="Path 123" d="M928.785,885.98c.016.155-.125.263-.216.356a.268.268,0,0,1-.311-.188.331.331,0,0,1,.174-.295.336.336,0,0,1,.353.127" transform="translate(-56.541 -12.538)" fill="#fff"/>
    <path id="Path_124" data-name="Path 124" d="M931.028,886.384c-.03.142-.016.3-.172.391a.45.45,0,0,1-.369-.065.292.292,0,0,1-.06-.327.368.368,0,0,1,.37-.185c.109.063.139.141.23.185" transform="translate(-57.521 -12.695)" fill="#fff"/>
    <path id="Path_125" data-name="Path 125" d="M858.524,886.944c.059.125-.076.158-.122.218a.315.315,0,0,1-.309-.03c-.109-.063-.062-.214-.048-.3.139-.264.417-.076.479.108" transform="translate(-24.469 -12.929)" fill="#fff"/>
    <path id="Path_126" data-name="Path 126" d="M928.216,887.272c.063.018.033.108.018.141a1.174,1.174,0,0,1-1.254-.061,4.79,4.79,0,0,0-.612-.342c.073-.2.352-.189.553-.233.444.061.8.48,1.3.5" transform="translate(-55.679 -12.962)" fill="#fff"/>
    <path id="Path_127" data-name="Path 127" d="M859.883,887.279c.03.123-.062.17-.093.262-.062.1-.185.062-.264.03a.272.272,0,0,1-.105-.385.276.276,0,0,1,.462.093" transform="translate(-25.087 -13.107)" fill="#fff"/>
    <path id="Path_128" data-name="Path 128" d="M862.315,887.445a.276.276,0,0,1-.155.34c-.113.062-.2-.03-.294-.047-.08-.107-.215-.23-.08-.355.144-.232.417-.109.529.063" transform="translate(-26.161 -13.18)" fill="#fff"/>
    <path id="Path_129" data-name="Path 129" d="M893.75,888.542c-.03.31-.543-.045-.473.367a2.4,2.4,0,0,0,.312.873c.146.208.068.533.058.782a1.364,1.364,0,0,1-.591.5c-.437-.041-1.083.222-1.289-.323a2.253,2.253,0,0,1-.252-.738c.049-.026.109-.026.154-.073,0-.1-.121-.162-.106-.263.5-.091-.206-.533.221-.563.35.369.922.25,1.23.647a1.307,1.307,0,0,0,.218.192c-.057-.367-.234-.736-.291-1.135a.517.517,0,0,1,.174-.517c.264-.208.484.09.634.252" transform="translate(-39.763 -13.621)" fill="#fff"/>
    <path id="Path_130" data-name="Path 130" d="M864.915,888.5c.049.154-.073.247-.166.325-.141.061-.217-.095-.28-.172-.045-.154.062-.234.158-.312a.323.323,0,0,1,.288.158" transform="translate(-27.408 -13.678)" fill="#fff"/>
    <path id="Path_131" data-name="Path 131" d="M882.375,888.844a2.148,2.148,0,0,1-.187,1.741c-.015.122.029.327-.139.31-.416-.574-.109-1.382.061-1.988.029-.154.217-.217.266-.063" transform="translate(-35.345 -13.865)" fill="#fff"/>
    <path id="Path_132" data-name="Path 132" d="M906.74,889.158a1.747,1.747,0,0,1,.029,1.444l-.123.122a3.5,3.5,0,0,1-.356-1.1,3.567,3.567,0,0,0,.185-.824c.216-.048.2.235.265.36" transform="translate(-46.51 -13.882)" fill="#fff"/>
    <path id="Path_133" data-name="Path 133" d="M865.924,889.652c-.093.189-.356.235-.526.361a1.857,1.857,0,0,1-1.373.262,1.681,1.681,0,0,1,1.758-.73c.032.063.109.029.141.107" transform="translate(-27.21 -14.208)" fill="#fff"/>
    <path id="Path_134" data-name="Path 134" d="M855.721,890.805a4.254,4.254,0,0,1,1.064,1.522c.042.06.195.078.136.2-.121.089-.248-.1-.418-.066a1.714,1.714,0,0,1-.939-1.6c0-.062.095-.062.158-.062" transform="translate(-23.345 -14.801)" fill="#fff"/>
    <path id="Path_135" data-name="Path 135" d="M905.585,891.571c.014.156-.018.311-.142.355a.283.283,0,0,1-.357-.185c-.043-.109.048-.171.082-.248a.275.275,0,0,1,.418.077" transform="translate(-45.955 -15.085)" fill="#fff"/>
    <path id="Path_136" data-name="Path 136" d="M910.924,881.228a6.676,6.676,0,0,1,.108-.852.592.592,0,0,0,.061-.326c.37-.5,1.127-.343,1.712-.3a3.082,3.082,0,0,0,.772.17.555.555,0,0,1,.385-.079c.5-.263.169-.836.2-1.287l-.186-.465a1.523,1.523,0,0,1-.122-.313c-.094-.107-.155-.311-.246-.418a6.292,6.292,0,0,0-1.207-1.618,6.568,6.568,0,0,0-3.251-2c-1.22-.417-2.454.126-3.551.511a.878.878,0,0,1-.6-.65,3.1,3.1,0,0,1,.29-1.645,6.2,6.2,0,0,1,.421-1.041,11.153,11.153,0,0,0,.63-2.674,1.4,1.4,0,0,0-.835-1.226.843.843,0,0,0-.845.171,2.234,2.234,0,0,1-1,.9c-.029.266.294.093.4.186.341.063.726-.046,1,.17a2.645,2.645,0,0,1-.644,1.6,12.271,12.271,0,0,0-1.408,2.419l-.058-.058.07,3.8a4.369,4.369,0,0,0,2.025,2.059c.495.4,1.113.883,1.776.526.353-.105.38.391.553.592.187.573-.232.981-.261,1.507l-.4.854a11.086,11.086,0,0,1-1.586,2.626c-.234,0-.372.25-.6.264-.121.174-.37.048-.522.11-.48.2-1.157.078-1.481.526a.236.236,0,0,0,.124.08c.937.015,1.989.078,2.99.028a.371.371,0,0,0,.249-.293c-.137-.263.048-.5.17-.7.076-.372.324-.607.43-.962.324-.64.7-1.258,1.05-1.9l.479-.775a5.038,5.038,0,0,1,.48-.869,2.2,2.2,0,0,0,.279-.422c.012-.156-.064-.213-.158-.325.105-.108.277-.076.415-.108a1.758,1.758,0,0,1,.868,1.027l.135.4.063.19-.031.508.059.484a10.881,10.881,0,0,1-.136,2.252c-.265.9-1.3.812-2.038,1.01-.184.124-.538.063-.538.372a13.511,13.511,0,0,0,2.9.061c.149-.061.181-.2.259-.34.031-.2.229-.371.172-.59-.172-.219-.019-.561-.068-.852a.439.439,0,0,0,0-.3c.126-.448.1-.992.187-1.429Z" transform="translate(-44.787 -3.919)" fill="#fff"/>
    <path id="Path_137" data-name="Path 137" d="M930.24,892.069a3.864,3.864,0,0,1-1.882,1.741c-.062,0-.125.031-.156-.046.527-.561.807-1.43,1.625-1.633a.5.5,0,0,1,.414-.062" transform="translate(-56.516 -15.367)" fill="#fff"/>
    <path id="Path_138" data-name="Path 138" d="M854.045,893.27c-.077.063-.016.2-.153.219a.249.249,0,0,1-.323-.139.273.273,0,0,1,.2-.343c.122.063.246.109.275.262" transform="translate(-22.428 -15.807)" fill="#fff"/>
    <path id="Path_139" data-name="Path 139" d="M860.991,893.543c.043.138-.11.138-.186.169a1.682,1.682,0,0,1-1.775-.449c0-.065,0-.127.06-.139.635.157,1.375.03,1.9.419" transform="translate(-24.929 -15.86)" fill="#fff"/>
    <path id="Path_140" data-name="Path 140" d="M855.554,893.416a.376.376,0,0,1,.033.234.341.341,0,0,1-.386.14.457.457,0,0,1-.2-.2.363.363,0,0,1,.262-.293.475.475,0,0,1,.29.122" transform="translate(-23.09 -15.938)" fill="#fff"/>
    <path id="Path_141" data-name="Path 141" d="M882.177,893.55c.029.138-.09.233-.184.294a.305.305,0,0,1-.324-.122.229.229,0,0,1,.107-.3c.137-.029.355-.011.4.126" transform="translate(-35.259 -15.992)" fill="#fff"/>
    <path id="Path_142" data-name="Path 142" d="M932.547,893.648c.05.151-.09.23-.2.324a.335.335,0,0,1-.3-.048c-.014-.078-.1-.14-.077-.248a.339.339,0,0,1,.356-.187,1.944,1.944,0,0,1,.215.16" transform="translate(-58.237 -16.026)" fill="#fff"/>
    <path id="Path_143" data-name="Path 143" d="M934.426,893.575c.093.138.013.252-.064.357a.214.214,0,0,1-.278.092c-.091-.092-.214-.14-.234-.278,0-.126.143-.219.234-.267.155-.06.216.1.341.1" transform="translate(-59.096 -16.016)" fill="#fff"/>
    <path id="Path_144" data-name="Path 144" d="M852.777,894.3c.013.113-.08.17-.109.267-.077.024-.153.09-.245.06a.458.458,0,0,1-.234-.249.405.405,0,0,1,.276-.313.412.412,0,0,1,.312.234" transform="translate(-21.805 -16.289)" fill="#fff"/>
    <path id="Path_145" data-name="Path 145" d="M912.61,894.388a.41.41,0,0,1,.017.2c-.091.127-.216.234-.372.157-.09-.09-.2-.187-.151-.328a.3.3,0,0,1,.506-.03" transform="translate(-49.159 -16.38)" fill="#fff"/>
    <path id="Path_146" data-name="Path 146" d="M857.44,894.664c-.029.109-.078.216-.217.233s-.184-.109-.258-.175c0-.135-.021-.278.117-.353a.282.282,0,0,1,.358.3" transform="translate(-23.985 -16.422)" fill="#fff"/>
    <path id="Path_147" data-name="Path 147" d="M854.631,894.785a.316.316,0,0,1-.153.339.365.365,0,0,1-.418-.216.446.446,0,0,1,.277-.359c.141,0,.218.157.294.236" transform="translate(-22.659 -16.511)" fill="#fff"/>
    <path id="Path_148" data-name="Path 148" d="M914.43,894.779a.305.305,0,0,1-.169.371c-.183.062-.341-.093-.417-.216.076-.122.1-.294.275-.328a.355.355,0,0,1,.311.173" transform="translate(-49.959 -16.537)" fill="#fff"/>
    <path id="Path_149" data-name="Path 149" d="M856.031,894.849c.047.114-.047.158-.078.239-.078,0-.122.093-.212.062-.065-.08-.19-.11-.2-.218-.011-.158.092-.234.2-.3a.281.281,0,0,1,.291.214" transform="translate(-23.333 -16.55)" fill="#fff"/>
    <path id="Path_150" data-name="Path 150" d="M930.958,895.013a.446.446,0,0,1-.256.248c-.126.031-.206-.074-.3-.124s-.047-.2-.013-.276a.306.306,0,0,1,.566.152" transform="translate(-57.5 -16.587)" fill="#fff"/>
    <path id="Path_151" data-name="Path 151" d="M933.131,895.172a.4.4,0,0,1-.37.265c-.137-.064-.3-.171-.183-.359.058-.061.09-.122.183-.141a.3.3,0,0,1,.37.234" transform="translate(-58.497 -16.682)" fill="#fff"/>
    <path id="Path_152" data-name="Path 152" d="M919.7,895.438c.078.2-.108.26-.231.355a.72.72,0,0,1-.294-.124.362.362,0,0,1,.219-.405.372.372,0,0,1,.306.174" transform="translate(-52.389 -16.838)" fill="#fff"/>
    <path id="Path_153" data-name="Path 153" d="M911.931,895.824c.077.029.043.138.029.185-.09.063-.213.218-.354.124a.264.264,0,0,1-.154-.3.287.287,0,0,1,.479-.015" transform="translate(-48.864 -17.037)" fill="#fff"/>
    <path id="Path_154" data-name="Path 154" d="M913.5,895.994a.208.208,0,0,1-.12.248c-.107.109-.232-.015-.34-.046a.254.254,0,0,1-.017-.235.363.363,0,0,1,.2-.122c.108.03.23.03.274.155" transform="translate(-49.577 -17.1)" fill="#fff"/>
    <path id="Path_155" data-name="Path 155" d="M865.3,896.022c.092.094-.018.2-.03.3a.3.3,0,0,1-.386.076c-.156-.06-.141-.266-.109-.388.094-.033.094-.139.216-.139a.526.526,0,0,1,.31.154" transform="translate(-27.543 -17.113)" fill="#fff"/>
    <path id="Path_156" data-name="Path 156" d="M922.685,896.086c.036.156-.119.219-.228.25-.185.06-.277-.079-.356-.205,0-.091.1-.155.127-.23.214-.095.354.061.458.185" transform="translate(-53.73 -17.115)" fill="#fff"/>
    <path id="Path_157" data-name="Path 157" d="M921.156,896.11c.06.156-.108.235-.172.311a.317.317,0,0,1-.34-.06c-.078-.047-.078-.141-.078-.235.092-.078.142-.171.249-.2a.4.4,0,0,1,.34.185" transform="translate(-53.03 -17.139)" fill="#fff"/>
    <path id="Path_158" data-name="Path 158" d="M932.388,896.33c.029.217-.247.109-.355.168a2.491,2.491,0,0,1-2.1-.137c.052-.2.28-.126.4-.2.662-.417,1.341.094,2.006.124Z" transform="translate(-57.307 -17.171)" fill="#fff"/>
    <path id="Path_159" data-name="Path 159" d="M854.983,896.194l-.06.109a2.52,2.52,0,0,1-1.991.357l-.061-.093a2.792,2.792,0,0,1,2.068-.419Z" transform="translate(-22.116 -17.223)" fill="#fff"/>
    <path id="Path_160" data-name="Path 160" d="M925.6,896.324a.353.353,0,0,1-.155.3.307.307,0,0,1-.4-.171c-.041-.124.077-.248.2-.3.108,0,.294.015.355.172" transform="translate(-55.072 -17.243)" fill="#fff"/>
    <path id="Path_161" data-name="Path 161" d="M861.349,896.4c-.059.126-.027.249-.182.31a.33.33,0,0,1-.385-.2c-.049-.17.078-.216.153-.294.189-.1.324.046.414.185" transform="translate(-25.724 -17.257)" fill="#fff"/>
    <path id="Path_162" data-name="Path 162" d="M859.353,896.516c.043.1-.052.17-.082.249a.279.279,0,0,1-.3.044c-.112-.093-.218-.2-.172-.372a.772.772,0,0,1,.247-.171.352.352,0,0,1,.31.25" transform="translate(-24.817 -17.295)" fill="#fff"/>
    <path id="Path_163" data-name="Path 163" d="M927.589,897.173a.328.328,0,0,1-.246.277.346.346,0,0,1-.3-.154.251.251,0,0,1,.062-.3c.034-.046.141-.046.2-.078a.336.336,0,0,1,.276.252" transform="translate(-55.978 -17.594)" fill="#fff"/>
    <path id="Path_164" data-name="Path 164" d="M856.373,897.041c.049.125-.061.174-.078.265a2.306,2.306,0,0,1-.332.669c-.3.358-.714.358-1.13.466l-.063-.125a4,4,0,0,1,1.562-1.3Z" transform="translate(-22.983 -17.636)" fill="#fff"/>
    <path id="Path_165" data-name="Path 165" d="M926.187,897.522c.027.188-.128.216-.231.3a.356.356,0,0,1-.312-.189c-.047-.171.11-.23.2-.31a.319.319,0,0,1,.343.2" transform="translate(-55.344 -17.773)" fill="#fff"/>
    <path id="Path_166" data-name="Path 166" d="M860.529,897.575c-.016.032.013.06.045.076-.012.173-.136.22-.23.3a.419.419,0,0,1-.339-.155.257.257,0,0,1,.155-.356c.137-.015.321,0,.369.141" transform="translate(-25.363 -17.826)" fill="#fff"/>
    <path id="Path_167" data-name="Path 167" d="M930.93,898.042c.158-.014.185-.2.358-.232a.377.377,0,0,1,.366.17c.066.188-.078.281-.2.359s-.341-.1-.328.106a.489.489,0,0,1,.22.315c-.033.059-.135.044-.187.014a1.956,1.956,0,0,1-1.11-.963c-.06-.142-.353-.248-.184-.374a1.441,1.441,0,0,1,1.063.606" transform="translate(-57.253 -17.828)" fill="#fff"/>
    <path id="Path_168" data-name="Path 168" d="M934.092,897.571a.237.237,0,0,1-.013.292c-.082.156-.311.094-.447.079-.081-.079-.159-.155-.127-.281a.515.515,0,0,1,.234-.2.405.405,0,0,1,.352.109" transform="translate(-58.935 -17.837)" fill="#fff"/>
    <path id="Path_169" data-name="Path 169" d="M923.147,898.5a2.187,2.187,0,0,1,.344.621c-.035.045-.114.029-.143.029-.524-.293-1.2-.619-1.4-1.24-.049-.065-.172-.142-.153-.248a1.412,1.412,0,0,1,1.062.437c.109.152.229.229.291.4" transform="translate(-53.589 -17.925)" fill="#fff"/>
    <path id="Path_170" data-name="Path 170" d="M858.956,897.969c.062.138-.061.249-.141.31a.369.369,0,0,1-.355-.121c-.108-.173.1-.313.22-.374.125-.016.2.109.276.185" transform="translate(-24.655 -17.987)" fill="#fff"/>
    <path id="Path_171" data-name="Path 171" d="M927.36,898.607c.015.093-.111.155-.153.216-.126.018-.249.059-.353-.047-.034-.077-.111-.2-.018-.278.168-.218.413-.05.524.108" transform="translate(-55.872 -18.267)" fill="#fff"/>
    <path id="Path_172" data-name="Path 172" d="M934.384,899.033a.37.37,0,0,1-.22.389.4.4,0,0,1-.368-.141c-.076-.094-.016-.187,0-.294a.384.384,0,0,1,.4-.11.906.906,0,0,1,.186.156" transform="translate(-59.054 -18.477)" fill="#fff"/>
    <path id="Path_173" data-name="Path 173" d="M913.5,903.049c0,.185-.339.14-.477.279a3.241,3.241,0,0,1-1.62.235v-.094a2.293,2.293,0,0,1,2.1-.421" transform="translate(-48.845 -20.35)" fill="#fff"/>
    <path id="Path_174" data-name="Path 174" d="M873.422,904.16a.292.292,0,0,1-.233.263.3.3,0,0,1-.261-.154c-.066-.184.092-.263.2-.341a.357.357,0,0,1,.294.232" transform="translate(-31.268 -20.794)" fill="#fff"/>
    <path id="Path_175" data-name="Path 175" d="M914.265,904.492a.444.444,0,0,1-.236.359.416.416,0,0,1-.336-.109c-.077-.059-.031-.169-.046-.25a.334.334,0,0,1,.618,0" transform="translate(-49.869 -20.957)" fill="#fff"/>
    <path id="Path_176" data-name="Path 176" d="M918.543,904.685a2.484,2.484,0,0,1-1.321.545l-.833-.019-.08-.06a2.556,2.556,0,0,1,2.235-.561Z" transform="translate(-51.085 -21.085)" fill="#fff"/>
    <path id="Path_177" data-name="Path 177" d="M865.609,905.277a.282.282,0,0,1-.2.293.268.268,0,0,1-.2-.493c.169-.11.341.078.4.2" transform="translate(-27.684 -21.303)" fill="#fff"/>
    <path id="Path_178" data-name="Path 178" d="M867.1,905.587c.043.083-.032.123-.061.206a.257.257,0,0,1-.294,0,.2.2,0,0,1-.09-.265c.042-.094.139-.079.186-.139a.432.432,0,0,1,.259.2" transform="translate(-28.399 -21.461)" fill="#fff"/>
    <path id="Path_179" data-name="Path 179" d="M855.241,907.39c-.152.184-.4-.043-.572-.141-.54-.309-.522-.914-1.063-1.27.064-.188.2.012.311-.018a1.87,1.87,0,0,0,.322.173c.526.294.649.792,1,1.256" transform="translate(-22.452 -21.693)" fill="#fff"/>
    <path id="Path_180" data-name="Path 180" d="M897.4,891.983a1.232,1.232,0,0,0-1.158-.636,1.054,1.054,0,0,0-.864.636.79.79,0,0,0,.294.855.233.233,0,0,0,.306-.079c.079-.2-.137-.2-.167-.357a.515.515,0,0,1,.167-.545c.159-.154.416-.075.6-.075a1.056,1.056,0,0,1,.465.447,1.277,1.277,0,0,1,0,.825,1.377,1.377,0,0,1-.954.779c-1.282.183-15.33.122-15.33.122-1.657.155-3.533-.313-4.952.559a2.457,2.457,0,0,0-1.142,1.66,11.262,11.262,0,0,0-1.206,1.227l-.045-.045c.077-.375.248-.7.325-1.072.234-.31.234-.73.4-1.073a8.463,8.463,0,0,1,2.049-2.58c.382-.513,1.064-.416,1.65-.416a4.094,4.094,0,0,0,2.145.307.136.136,0,0,0,.047-.107c-.219-.2-.573-.282-.821-.48-.616-.3-1.2.092-1.851.045-.027-.031-.06-.045-.043-.092a9.089,9.089,0,0,1,1.911-1.028,13.008,13.008,0,0,1,1.682-.667c.232,0,.448-.2.661-.064l.818-.216c.033.019.063.061.125.046a8.47,8.47,0,0,1,2.357-.027l.109.089.74.186c.276.033.4.357.7.376.155-.218-.171-.31-.249-.454a1.7,1.7,0,0,1,1.036.158l-.153.168c-.1.174.045.3.181.36.106.032.188-.05.265-.079.2-.139-.017-.28.045-.406a14.962,14.962,0,0,1,3.286.935,2.587,2.587,0,0,0,.9.3,4.08,4.08,0,0,0-1.173-.619c-.265-.158-.636-.175-.832-.389.045-.078.151-.048.2-.109a2.287,2.287,0,0,0,1.344-.869c.029-.1.2-.062.185-.187-.138-.156-.37.046-.553.03-.651.122-.924.886-1.571,1.026-.79-.187-1.591-.374-2.377-.575a4.9,4.9,0,0,1-1.157-.249l-.865-.08h-1.571c-.018-.028-.064-.044-.049-.09.555-.142,1.035-.467,1.588-.609l4.135-1.892a9.829,9.829,0,0,0,1.171-1.275.287.287,0,0,0-.17-.3.25.25,0,0,0-.306.064c-.187.137,0,.311,0,.478a2.554,2.554,0,0,1-.713.607c-.06-.014-4.252,1.914-4.252,1.914a11.033,11.033,0,0,1-1.885.7l-.895.137a.585.585,0,0,1-.387.359,3.529,3.529,0,0,1-.707.2,15.671,15.671,0,0,0-5.674,3.185,1.727,1.727,0,0,0,.151-.65,1.3,1.3,0,0,0-.168-.685c-.038-.086-.15-.337-.117-.427l-.221.147a2.145,2.145,0,0,0-.124,1.318c.044.283.277.606.062.855a14.187,14.187,0,0,0-1.654,3.017c-.184-.037-.274-.2-.357-.375a5.07,5.07,0,0,0,1.1-2.267c.11-.076.034-.281.136-.374-.026-.249.144-.494.019-.7.1-.342-.452-.653-.1-.873l-.293.138c-.659.872.347,2.175-.411,3.017v.061a2.686,2.686,0,0,1-.615.747c-.371-.158-.509-.575-.726-.886a1.383,1.383,0,0,1-.136-1.448c.136-.445-.095-.835-.141-1.24l-.156-.093a1.79,1.79,0,0,0-.214,1.817c.153.278.17.669.4.9a5.124,5.124,0,0,0,.665,1.15c.062.155-.091.191-.171.263-.168-.108-.138-.353-.292-.462a11.182,11.182,0,0,0-1.975-2.843c-.029-.141-.168-.265-.094-.421a1.132,1.132,0,0,0,.2-1.179c-.029-.078-.125-.173-.108-.25l-.229-.185c.029.541-.324,1.022-.174,1.6v.029a29.438,29.438,0,0,0-5.127-3.1l-.149.4a10.362,10.362,0,0,1,1.654.843,10.82,10.82,0,0,1,1.542.825,10.593,10.593,0,0,1,4.426,5.234c.015.171.171.359.062.528a8.906,8.906,0,0,0-1.17-1.18,2.254,2.254,0,0,0-1.176-1.722c-.228-.343-.723-.375-1.107-.479l-5.615-.036c-4.566-.064-8.728.14-13.265.061-.632-.061-1.4-.277-1.588-.948a1.052,1.052,0,0,1,0-.852.946.946,0,0,1,.787-.42.811.811,0,0,1,.522.435c0,.2-.169.388-.244.559.014.06.076.186.185.141a.746.746,0,0,0,.4-.5c.011-.108.055-.262-.049-.342a1.022,1.022,0,0,0-.724-.635,1.212,1.212,0,0,0-1.3,1.664,2.087,2.087,0,0,0,1.668,1.241l15.01.06a32.275,32.275,0,0,1,4.593.124,1.777,1.777,0,0,1,1.25,1.18c-.013.03-.062.015-.109.015a6.7,6.7,0,0,0-4.382-.9,5.2,5.2,0,0,0-1.724.359.887.887,0,0,1-.761-.252,2.547,2.547,0,0,0-2.232-.278c0,.048-.019.09.012.11.757-.062,1.206.587,1.887.666.151.032.274-.137.414-.017a13.8,13.8,0,0,1-2.15.966c-.226-.047-.348-.266-.533-.387-.292-.328-.836-.187-1.233-.222-.144.035-.263-.06-.355,0a1.3,1.3,0,0,0,.66.515c.39.171.837-.012,1.19.219a1.756,1.756,0,0,1-.323.215c-.729.28-1.326.933-2.129.883a2.733,2.733,0,0,1-2.283-.742,1.554,1.554,0,0,0-1.557-.9c-.049.034-.111.034-.093.111.34.2.6.6.942.838.216.263.63,0,.829.3a2.914,2.914,0,0,0,1.006.432,4.644,4.644,0,0,0,.8.215l-.105.063a13.226,13.226,0,0,1-4.6.451c-.461-.018-.909-.155-1.373-.141a.929.929,0,0,0,.371.22.993.993,0,0,1-.418.122,2.648,2.648,0,0,0-.583.156,1.545,1.545,0,0,0-.667.155,3.086,3.086,0,0,1-.879.712c0,.065-.018.159.065.159.29-.126.66-.033.954-.159.508-.047.8-.6,1.2-.839a2.051,2.051,0,0,1,1.575-.184c.31.079-.032.2.059.4.125.109.23.23.4.187a.258.258,0,0,1,.106-.078.354.354,0,0,0,.016-.387c.215-.144.509.012.74-.079.588-.017,1.173-.14,1.74-.154.1-.015.2-.112.3-.015-.043.122-.2.138-.14.306.031.142.187.205.31.238.152-.064.293-.173.234-.375-.032-.111-.155-.123-.234-.169.325-.159.7-.205,1.019-.36a3.306,3.306,0,0,0,.647-.214c.2-.019.369-.2.553-.127a3.116,3.116,0,0,1-.323.746,3.734,3.734,0,0,0,0,2.7c.047.017.063-.014.093-.031a3.7,3.7,0,0,1,.138-2.548c.218-1.317,1.573-1.706,2.548-2.2l.043.058a4.977,4.977,0,0,0-.586,2.162c.033.136-.058.281,0,.372a1.654,1.654,0,0,0,.574-.716c.106-.7-.3-1.567.416-2.079a10.818,10.818,0,0,1,3.915-1.166c.05.05.156-.029.172.061-.309.345-.756.668-.894,1.091a3.509,3.509,0,0,0-.265,2.685c.141.483-.278.746-.475,1.119-.093.132-.122.357-.21.509l.3.033a1.626,1.626,0,0,0,.527-1.024.429.429,0,0,0,.293.313c.108-.174-.091-.3-.109-.468.25-.14.355.171.557.23a3.69,3.69,0,0,0,.938.22l.109-.11a1.916,1.916,0,0,0-1.6-.653,3.141,3.141,0,0,1-.28-1.768,2.843,2.843,0,0,1,.312-.962,2.387,2.387,0,0,1,.431-.593,2.189,2.189,0,0,1,.974-.529h.047a.112.112,0,0,0,.011.051c-.412.324-.46.773-.71,1.181a1.3,1.3,0,0,0-.135,1.348c.089.2.044.511.262.652a3.436,3.436,0,0,0,.321-.948c-.044-.511-.354-.994-.06-1.487a1.262,1.262,0,0,1,.832-.685,4.7,4.7,0,0,1,2.328.685c.155.108.419.2.448.418a1.258,1.258,0,0,1-1.973,1.024,1.065,1.065,0,0,1-.247-.948.65.65,0,0,1,.682-.249c.153.08.291.231.491.143a.2.2,0,0,0,.062-.25c-.168-.093-.232-.324-.464-.359a1,1,0,0,0-.85.175,1.106,1.106,0,0,0-.355,1.089,1.334,1.334,0,0,0,.959.99,1.789,1.789,0,0,0,1.9-.652,2.1,2.1,0,0,0,.339-.667,4.026,4.026,0,0,1,1.587,2.046,3.3,3.3,0,0,1,.015.78l.541.046a.51.51,0,0,1,.047-.375,4.693,4.693,0,0,1,1.586-2.542c.265-.155.2.2.265.309a2.058,2.058,0,0,0,1.339,1.177,1.7,1.7,0,0,0,1.669-.543c.2-.37.444-.913.107-1.3a1.066,1.066,0,0,0-.854-.406,1.051,1.051,0,0,0-.843.573c0,.13-.017.27.087.33.065,0,.188.016.238-.078.029-.234.229-.34.415-.463a.481.481,0,0,1,.492.089.841.841,0,0,1,.219.609.934.934,0,0,1-.513.727,1.564,1.564,0,0,1-1.48-.137,3.409,3.409,0,0,1-.43-.684c-.031-.249-.125-.467,0-.713a5.165,5.165,0,0,1,2.2-.778,1.557,1.557,0,0,1,.819.513c.708.728-.154,1.77.337,2.578.187-.033.187-.278.264-.437a2.726,2.726,0,0,0-.2-1.706,3.137,3.137,0,0,0-.587-.914.362.362,0,0,1,.186-.034,3.669,3.669,0,0,1,.936.807,4.15,4.15,0,0,1,.6,2.547c-.121.464-.616.684-1,.854a1.407,1.407,0,0,0-.417.5c.184.11.443,0,.632-.077.293-.111.461-.481.664-.651.03.014.015.06.03.09.017.172-.074.4.078.45a5.986,5.986,0,0,0,.14-.793,1.536,1.536,0,0,1,.29.779c.14.28.374.653.742.7.09-.138-.013-.28-.047-.4-.046-.389-.372-.591-.585-.869-.54-.749-.293-1.91-.71-2.748a3.235,3.235,0,0,0-.832-1.148l.061-.065a9.138,9.138,0,0,1,2.082.372c.849.419,2.081.326,2.483,1.432a4.038,4.038,0,0,0,.881,1.674l.046-.028a.637.637,0,0,0,0-.577c-.093-.777-.775-.961-1.13-1.613l.045-.066a11.212,11.212,0,0,1,1.131.358,3.327,3.327,0,0,1,2.25,2.81,6.13,6.13,0,0,1-.569,2.659c-.048.123-.264.264-.123.37.167-.122.2-.327.29-.467a4.312,4.312,0,0,0,.511-3.12c-.018-.2-.249-.354-.144-.558a.48.48,0,0,0,.267.14c.094-.065.234-.065.289-.174.02-.089.079-.2,0-.277-.09-.138-.289-.138-.442-.109a.743.743,0,0,0-.187.34,3.245,3.245,0,0,0-.557-.822l.034-.043c.695.233,1.324.573,2.036.756a.985.985,0,0,0,.539.173,14.934,14.934,0,0,0,1.895.479c.466-.045.852.174,1.312.066v-.032l-.012.013c-.171-.215-.54-.013-.742-.168a11.524,11.524,0,0,1-3.039-.762c.013-.046.076-.029.125-.029a.288.288,0,1,0-.112-.561.43.43,0,0,0-.229.265.406.406,0,0,0,.229.3c-.024.029-.089.011-.135.011-.483-.216-.942-.418-1.4-.632-.171-.034-.312-.17-.48-.2-.354-.167-.708-.341-1.066-.481a24.405,24.405,0,0,0-3.13-1.164l-.662-.187c-.385-.108-.772-.2-1.157-.311a5.864,5.864,0,0,0-4.209.359c-.186-.062-.291.229-.386.046a2.181,2.181,0,0,1,2.112-1.165c6.189-.06,11.987-.11,18.075-.2a1.948,1.948,0,0,0,1.776-.887,1.549,1.549,0,0,0,.11-1.428m-24.524,5.73c-.062.189-.186.339-.168.544l-.063.034c.045-.24-.185-.377-.126-.624-.12-.185-.12-.419-.23-.619-.141-.249.121-.356.23-.527.216.091.294.292.45.481.093.263-.108.464-.094.711" transform="translate(-19.649 -12.312)" fill="#fff"/>
    <path id="Path_181" data-name="Path 181" d="M923.133,906.253c0,.049.092.064.059.141a3.2,3.2,0,0,1-2.065.651.363.363,0,0,1-.2.047c-.051-.028-.066-.076-.028-.107a2.348,2.348,0,0,1,2.232-.732" transform="translate(-53.173 -21.831)" fill="#fff"/>
    <path id="Path_182" data-name="Path 182" d="M919.956,906.608c.06.219-.076.342-.247.419a.441.441,0,0,1-.341-.245c-.044-.127.063-.188.111-.266a.291.291,0,0,1,.478.092" transform="translate(-52.477 -21.936)" fill="#fff"/>
    <path id="Path_183" data-name="Path 183" d="M866.03,906.711a.318.318,0,0,1-.076.328.315.315,0,0,1-.278.076c-.111-.017-.17-.139-.2-.231a.336.336,0,0,1,.2-.3c.122,0,.261-.017.353.124" transform="translate(-27.873 -22.008)" fill="#fff"/>
    <path id="Path_184" data-name="Path 184" d="M859.852,907.8v.108a1.211,1.211,0,0,1-1.007-.23,2.012,2.012,0,0,0-.817-.774c0-.052-.1-.112,0-.144.774,0,1.236.623,1.825,1.04" transform="translate(-24.452 -22.086)" fill="#fff"/>
    <path id="Path_185" data-name="Path 185" d="M928.007,906.771c-.357.526-.668,1.177-1.3,1.411-.1,0-.2.156-.292.048a2.868,2.868,0,0,1,1.372-1.476.521.521,0,0,1,.22.018" transform="translate(-55.7 -22.083)" fill="#fff"/>
    <path id="Path_186" data-name="Path 186" d="M867.728,906.983c.015.17-.108.2-.214.293-.125.017-.189-.078-.266-.169-.059-.155.078-.22.153-.3a.317.317,0,0,1,.327.173" transform="translate(-28.675 -22.107)" fill="#fff"/>
    <path id="Path_187" data-name="Path 187" d="M931.827,907.226c-.139.2-.078.494-.215.714-.311.353-.576.757-1.069.836-.073-.154.11-.31.188-.451a2.211,2.211,0,0,1,1.018-1.191Z" transform="translate(-57.578 -22.258)" fill="#fff"/>
    <path id="Path_188" data-name="Path 188" d="M852.193,907.467a.313.313,0,0,1,0,.341.364.364,0,0,1-.355.061.287.287,0,0,1-.126-.372c.094-.139.371-.215.481-.03" transform="translate(-21.575 -22.36)" fill="#fff"/>
    <path id="Path_189" data-name="Path 189" d="M850.555,907.78c.014.078.061.139.043.216a.353.353,0,0,1-.214.188.325.325,0,0,1-.355-.2.3.3,0,0,1,.156-.325.317.317,0,0,1,.369.125" transform="translate(-20.817 -22.486)" fill="#fff"/>
    <path id="Path_190" data-name="Path 190" d="M853.854,907.962c.034.125.062.344-.122.373-.214.094-.339-.06-.459-.187a.354.354,0,0,1,.182-.309.427.427,0,0,1,.4.123" transform="translate(-22.3 -22.578)" fill="#fff"/>
    <path id="Path_191" data-name="Path 191" d="M858.548,908.339c-.014.108.017.263-.1.291-.078.083-.216.046-.3.035-.029-.1-.2-.177-.107-.282a.544.544,0,0,1,.217-.172c.09.047.232,0,.291.127" transform="translate(-24.464 -22.75)" fill="#fff"/>
    <path id="Path_192" data-name="Path 192" d="M935.138,908.447c-.045.108-.1.248-.227.248-.142-.019-.28-.029-.356-.169-.064-.174.077-.267.2-.313.159,0,.356.064.386.234" transform="translate(-59.41 -22.751)" fill="#fff"/>
    <path id="Path_193" data-name="Path 193" d="M929.891,908.579c.02.123-.123.216-.182.26a.37.37,0,0,1-.48-.231.388.388,0,0,1,.261-.278.4.4,0,0,1,.4.249" transform="translate(-56.985 -22.803)" fill="#fff"/>
    <path id="Path_194" data-name="Path 194" d="M933.487,908.584a.323.323,0,0,1-.14.267.359.359,0,0,1-.37-.061c-.138-.125-.031-.233.061-.326.139-.078.4-.064.449.12" transform="translate(-58.666 -22.845)" fill="#fff"/>
    <path id="Path_195" data-name="Path 195" d="M851.435,909.073a.331.331,0,0,1-.186.389.349.349,0,0,1-.339-.219.291.291,0,0,1,.153-.325.358.358,0,0,1,.372.155" transform="translate(-21.22 -23.067)" fill="#fff"/>
    <path id="Path_196" data-name="Path 196" d="M928.535,909.385a.347.347,0,0,1-.221.407c-.122.03-.2-.035-.29-.108-.064-.079-.139-.249-.016-.328a.306.306,0,0,1,.526.029" transform="translate(-56.398 -23.209)" fill="#fff"/>
    <path id="Path_197" data-name="Path 197" d="M866.7,909.667c.06.17-.123.2-.172.3-.061.03-.185.047-.233-.017-.074-.1-.169-.187-.12-.326.077-.06.108-.125.2-.155.169-.046.232.108.325.2" transform="translate(-28.184 -23.319)" fill="#fff"/>
    <path id="Path_198" data-name="Path 198" d="M934.653,909.865c.028.109-.061.154-.074.233a.418.418,0,0,1-.356.06c-.14-.078-.14-.205-.14-.341.094-.062.108-.138.216-.17a.353.353,0,0,1,.354.218" transform="translate(-59.201 -23.405)" fill="#fff"/>
    <path id="Path_199" data-name="Path 199" d="M932.21,909.94c.062.188-.11.279-.234.325-.061.013-.154-.033-.168.064a4.025,4.025,0,0,1,.957.823v.125a2.1,2.1,0,0,1-1.528-.593c-.109-.075-.294-.075-.416-.184.2-.2.569-.126.851-.143.2-.216-.236-.375.023-.557.1-.016.157-.109.281-.08a.562.562,0,0,1,.234.22" transform="translate(-57.712 -23.437)" fill="#fff"/>
    <path id="Path_200" data-name="Path 200" d="M921.273,909.989c.034.079-.06.174-.073.252a.313.313,0,0,1-.34.058c-.082-.108-.2-.2-.157-.353.124-.233.527-.191.57.043" transform="translate(-53.087 -23.471)" fill="#fff"/>
    <path id="Path_201" data-name="Path 201" d="M857.831,910.949c-.041.138-.106.232-.258.247a.313.313,0,0,1-.281-.186c-.012-.108.065-.172.08-.252.17-.137.477-.046.459.191" transform="translate(-24.135 -23.883)" fill="#fff"/>
    <path id="Path_202" data-name="Path 202" d="M859.289,910.788c0,.219-.235.342-.31.557a1.574,1.574,0,0,1-1.235,1.026c-.058-.139.2-.31.264-.448a3.187,3.187,0,0,1,1.185-1.136Z" transform="translate(-24.338 -23.927)" fill="#fff"/>
    <path id="Path_203" data-name="Path 203" d="M920.532,911c.018.169-.136.292-.26.356-.137.043-.248-.065-.324-.125-.123-.124-.047-.246.015-.372.187-.187.445-.032.569.141" transform="translate(-52.717 -23.921)" fill="#fff"/>
    <path id="Path_204" data-name="Path 204" d="M922.312,911.228a.391.391,0,0,1-.276.342c-.032-.049-.111-.017-.157-.033a.335.335,0,0,1-.2-.28c.077-.077.107-.2.215-.216.14-.02.368,0,.416.186" transform="translate(-53.538 -24.04)" fill="#fff"/>
    <path id="Path_205" data-name="Path 205" d="M864.548,911.206a.337.337,0,0,1-.232.324.3.3,0,0,1-.292-.186c-.031-.138.106-.232.184-.311.185-.062.231.078.341.173" transform="translate(-27.207 -24.031)" fill="#fff"/>
    <path id="Path_206" data-name="Path 206" d="M866.469,911.277a.367.367,0,0,1-.3.265c-.107-.031-.227-.061-.272-.186-.018-.156.1-.231.216-.31a.322.322,0,0,1,.352.23" transform="translate(-28.066 -24.045)" fill="#fff"/>
    <path id="Path_207" data-name="Path 207" d="M927.855,912.41c.078.063.219.14.185.25-.245.109-.443-.171-.675-.22a3.16,3.16,0,0,1-.8-1.242c.137-.142.291.032.414.078a2.981,2.981,0,0,1,.88,1.133" transform="translate(-55.767 -24.089)" fill="#fff"/>
    <path id="Path_208" data-name="Path 208" d="M929.477,911.366a.379.379,0,0,1-.033.342c-.09.154-.289.126-.429.092-.079-.092-.216-.214-.122-.355.043-.124.184-.156.291-.2.108-.015.189.079.293.123" transform="translate(-56.817 -24.134)" fill="#fff"/>
    <path id="Path_209" data-name="Path 209" d="M869.144,912.117c.015.125.046.312-.111.389a.3.3,0,0,1-.368-.184c-.076-.188.1-.219.183-.311a.311.311,0,0,1,.3.105" transform="translate(-29.32 -24.481)" fill="#fff"/>
    <path id="Path_210" data-name="Path 210" d="M922.037,913.5a2.205,2.205,0,0,1,.4,1.1c-.045.108.08.217-.015.293h-.061a3.5,3.5,0,0,1-1.11-1.893.123.123,0,0,1-.061-.153c.154-.142.264.139.416.186Z" transform="translate(-53.311 -24.848)" fill="#fff"/>
    <path id="Path_211" data-name="Path 211" d="M871.421,912.992c-.015.015,0,.029.013.029a2.061,2.061,0,0,1-2.191.28.12.12,0,0,1,.081-.139,3.146,3.146,0,0,1,1.355-.293Z" transform="translate(-29.591 -24.871)" fill="#fff"/>
    <path id="Path_212" data-name="Path 212" d="M865.1,913.142c-.523.328-1,.962-1.648,1.117-.124.046-.2.219-.357.123a2.276,2.276,0,0,1,2-1.365Z" transform="translate(-26.783 -24.944)" fill="#fff"/>
    <path id="Path_213" data-name="Path 213" d="M920.614,914.4a.253.253,0,0,1-.124.331.22.22,0,0,1-.288,0c-.141-.066-.141-.207-.141-.311.044-.111.156-.127.232-.173.135.029.245.029.321.153" transform="translate(-52.799 -25.507)" fill="#fff"/>
    <path id="Path_214" data-name="Path 214" d="M917.027,914.609a.871.871,0,0,1-.554.4,2.387,2.387,0,0,1-1.464-.187c.014-.122.17-.077.245-.155a3.291,3.291,0,0,1,1.572-.077.157.157,0,0,1,.2.014" transform="translate(-50.492 -25.634)" fill="#fff"/>
    <path id="Path_215" data-name="Path 215" d="M866.291,915.284c-.049.061-.061.2-.184.245a.321.321,0,0,1-.312-.065c-.028-.09-.138-.168-.06-.276.032-.105.151-.138.243-.171a.336.336,0,0,1,.312.267" transform="translate(-27.978 -25.858)" fill="#fff"/>
    <path id="Path_216" data-name="Path 216" d="M867.957,915.536a.544.544,0,0,1-.212.3.324.324,0,0,1-.311-.108.369.369,0,0,1-.046-.312c.031-.077.139-.091.214-.141a.424.424,0,0,1,.355.266" transform="translate(-28.737 -25.973)" fill="#fff"/>
    <path id="Path_217" data-name="Path 217" d="M919.988,915.844a.437.437,0,0,1-.108.3.263.263,0,0,1-.343.061c-.1-.015-.139-.137-.185-.217-.092-.123.063-.2.111-.31a.339.339,0,0,1,.525.169" transform="translate(-52.461 -26.127)" fill="#fff"/>
    <path id="Path_218" data-name="Path 218" d="M921.355,915.875c.016.08.061.16.028.22-.089.08-.153.278-.337.2-.091.033-.138-.094-.189-.122a.3.3,0,0,1,.189-.423c.137-.046.231.08.31.123" transform="translate(-53.151 -26.189)" fill="#fff"/>
    <path id="Path_219" data-name="Path 219" d="M866.922,916.649a.421.421,0,0,1-.152.419c-.172.031-.384.031-.448-.171a.418.418,0,0,1,.187-.45.365.365,0,0,1,.414.2" transform="translate(-28.257 -26.509)" fill="#fff"/>
    <path id="Path_220" data-name="Path 220" d="M867.963,916.7a1.422,1.422,0,0,1-.556,1.21c-.249.051-.49.282-.739.126v-.075a15.974,15.974,0,0,1,1.3-1.261" transform="translate(-28.417 -26.628)" fill="#fff"/>
    <path id="Path_221" data-name="Path 221" d="M915.615,917.18c.057.093-.049.17-.1.248-.086.105-.26.063-.365.014s-.124-.2-.078-.31a.321.321,0,0,1,.2-.173c.138-.013.261.108.342.221" transform="translate(-50.509 -26.744)" fill="#fff"/>
    <path id="Path_222" data-name="Path 222" d="M871.24,917.952c.215.355.091.839.215,1.228-.259.029-.368-.266-.538-.422a4.809,4.809,0,0,1-.448-1.633.08.08,0,0,1,.108-.03,3.994,3.994,0,0,1,.587.653c-.032.107.09.107.075.2" transform="translate(-30.152 -26.802)" fill="#fff"/>
    <path id="Path_223" data-name="Path 223" d="M917.068,917.418c0,.124-.139.153-.213.229a.553.553,0,0,1-.3-.138c-.047-.157.079-.2.157-.28a.256.256,0,0,1,.35.188" transform="translate(-51.195 -26.859)" fill="#fff"/>
    <path id="Path_224" data-name="Path 224" d="M920.045,918.974c0,.051-.016.14-.091.111h-.059a1.843,1.843,0,0,1-.835-1.475l.095-.016a1.932,1.932,0,0,1,.891,1.38" transform="translate(-52.338 -27.035)" fill="#fff"/>
    <path id="Path_225" data-name="Path 225" d="M918.25,919.029a.343.343,0,0,1-.14.293c-.168.048-.431.036-.46-.2-.019-.155.151-.235.229-.312a.314.314,0,0,1,.37.218" transform="translate(-51.697 -27.586)" fill="#fff"/>
    <path id="Path_226" data-name="Path 226" d="M915.826,919.549c-.216.575-.8.866-1.2,1.3-.079-.047-.049-.169-.03-.23a2.152,2.152,0,0,1,1.182-1.4c.25.03,0,.2.05.329" transform="translate(-50.292 -27.777)" fill="#fff"/>
    <path id="Path_227" data-name="Path 227" d="M918.543,920.528c0,.144-.139.2-.221.28a.438.438,0,0,1-.335-.168c-.015-.155.109-.2.2-.281a.324.324,0,0,1,.356.169" transform="translate(-51.851 -28.294)" fill="#fff"/>
    <path id="Path_228" data-name="Path 228" d="M893.723,868.78a.384.384,0,0,1,0,.768h-4.577a.384.384,0,0,1,0-.768Zm-3.236.666c.448,0,.024-.54-.216-.54h-.445c-.445,0-.025.54.211.54Zm1.872,0c.449,0,.027-.54-.211-.54H891.7c-.452,0-.029.54.212.54Zm1.382-.54h-.169c-.449,0-.067.54.176.54.294,0,.317-.54-.006-.54" transform="translate(-38.507 -4.744)" fill="#fff"/>
    <path id="Path_229" data-name="Path 229" d="M896.865,878.436l.873.336.86-.336-.341,1.286.681-.142-.23.781.23.747-.6-.162.262,1.386-.86-.333-.873.333.356-1.386-.7.2.183-.78-.183-.747.668.108Zm1.29,2.319c.195,0,.211-.27.211-.5,0-.53-.419,0-.635-.5-.154.422-.588.033-.588.486,0,.31,0,.517.31.517Zm-.858-.476c0,.2.27.066.473.066s.468.136.468-.066c0-.286-.269-.186-.468-.186s-.473-.1-.473.186" transform="translate(-42.05 -9.153)" fill="#fff"/>
    <path id="Path_230" data-name="Path 230" d="M893.265,881.425v-.163l-.148-.028.114-.119-.074-.133.152.019.092-.162.087.159.151-.016-.067.133.111.119-.144.028v.163l-.138-.1Z" transform="translate(-40.494 -10.251)" fill="#fff"/>
    <path id="Path_231" data-name="Path 231" d="M892.019,883.032v-.16l-.149-.031.113-.117-.07-.131.147.013.094-.156.086.155.151-.012-.069.131.117.117-.15.031v.16l-.135-.1Z" transform="translate(-39.925 -10.986)" fill="#fff"/>
    <path id="Path_232" data-name="Path 232" d="M894.134,882.831v-.162l-.15-.031.115-.119-.07-.13.153.015.09-.158.089.156.149-.013-.07.13.114.119-.144.031v.162l-.138-.1Z" transform="translate(-40.89 -10.893)" fill="#fff"/>
    <path id="Path_233" data-name="Path 233" d="M894.434,884.245v-.093l-.082-.015.065-.068-.04-.073.083.007.052-.088.049.088.093-.007-.045.073.064.068-.083.015v.093l-.077-.059Z" transform="translate(-41.058 -11.655)" fill="#fff"/>
    <path id="Path_234" data-name="Path 234" d="M892.329,885.055v-.281l-.252-.047.2-.205-.121-.224.255.026.152-.269.157.267.261-.024-.122.224.2.205-.25.047v.281l-.242-.175Z" transform="translate(-40.02 -11.719)" fill="#fff"/>
    <path id="Path_235" data-name="Path 235" d="M891.528,858.925l.543,1.338,1.372-.407-.694,1.26,1.169.832-1.412.236.083,1.442-1.061-.968-1.068.968.089-1.442-1.417-.236,1.173-.832-.7-1.26,1.378.407Z" transform="translate(-38.675 -0.243)" fill="#fff"/>
    <path id="Path_236" data-name="Path 236" d="M882.6,914.006c-.162.059-.227.108-.182.275l.191.816a.745.745,0,0,1-.054.539.966.966,0,0,1-.56.33,1.136,1.136,0,0,1-.66-.012.48.48,0,0,1-.317-.41l-.2-.86c-.054-.215-.135-.2-.309-.177l-.016-.062,1.034-.25.018.065c-.2.054-.3.08-.245.306l.206.857c.035.147.121.5.56.395a.5.5,0,0,0,.414-.687l-.189-.784c-.033-.157-.093-.235-.36-.182l-.016-.064.676-.161Z" transform="translate(-34.73 -25.367)" fill="#fff"/>
    <path id="Path_237" data-name="Path 237" d="M886.12,913.888a.665.665,0,0,0-.708-.343c-.157.04-.311.153-.271.321.03.136.1.184.38.232l.494.084a.553.553,0,0,1,.439.4c.051.224-.074.581-.638.707a3.136,3.136,0,0,1-.545.031c-.065.015-.071.063-.071.105l-.092.022-.137-.635.084-.021a.662.662,0,0,0,.754.413c.367-.085.327-.342.321-.374-.038-.173-.2-.205-.412-.24l-.225-.037c-.572-.1-.624-.315-.648-.432-.033-.157-.016-.532.568-.661a2.509,2.509,0,0,1,.5-.02c.063-.018.072-.058.078-.112l.091-.02.124.559Z" transform="translate(-36.712 -25.079)" fill="#fff"/>
    <path id="Path_238" data-name="Path 238" d="M889.545,914.725l-1.117.1-.005-.065c.223-.037.3-.052.279-.274l-.13-1.383c-.221.032-.541.074-.565.5l-.094.008-.036-.529,1.877-.182.06.531-.092,0c-.1-.413-.423-.394-.645-.386l.132,1.385c.023.223.1.223.328.215Z" transform="translate(-38.102 -24.894)" fill="#fff"/>
    <path id="Path_239" data-name="Path 239" d="M893.943,914.713l-.646-.016-.634-.841h-.089l0,.516c-.008.214.064.224.271.248l0,.067-1.061-.02V914.6c.217-.016.278-.023.283-.236l.021-1.167c.007-.225-.094-.235-.269-.249v-.067l1.01.02c.223.006.887.037.88.487-.009.319-.332.4-.5.44l.615.764a.175.175,0,0,0,.129.052Zm-1.364-.943c.412.007.577-.049.584-.389,0-.269-.119-.386-.375-.389-.169,0-.179.026-.195.1Z" transform="translate(-39.882 -24.882)" fill="#fff"/>
    <path id="Path_240" data-name="Path 240" d="M897.777,915.1l-1.014-.127.011-.065c.192.012.25.017.26-.07a1.35,1.35,0,0,0-.1-.366l-.7-.091a1.528,1.528,0,0,0-.179.322c-.012.1.138.125.244.143l-.007.066-.637-.074.011-.068c.17,0,.226-.084.346-.268l.867-1.35.089.01.524,1.465c.1.3.144.4.294.409Zm-.878-.736-.236-.675-.373.6Z" transform="translate(-41.652 -25.005)" fill="#fff"/>
    <path id="Path_241" data-name="Path 241" d="M901.428,915.668l-1.788-.328.013-.065c.173.015.266.024.3-.133l.228-1.258c.03-.172-.1-.2-.229-.234l.008-.065,1.078.2-.012.066c-.217-.033-.312-.049-.354.181l-.223,1.226c-.021.126.044.158.249.2a.772.772,0,0,0,.875-.364l.091.017Z" transform="translate(-43.473 -25.204)" fill="#fff"/>
    <path id="Path_242" data-name="Path 242" d="M904.208,916.252l-1.076-.226.013-.066c.171.022.293.037.325-.123l.259-1.25c.033-.172-.11-.2-.247-.242l.009-.065,1.077.227-.012.063c-.144-.024-.293-.051-.329.123l-.259,1.25c-.039.167.086.2.254.246Z" transform="translate(-45.068 -25.522)" fill="#fff"/>
    <path id="Path_243" data-name="Path 243" d="M907.353,916.806l-1.017-.107.009-.064c.192.007.252.012.258-.077a1.351,1.351,0,0,0-.106-.368l-.7-.07a1.492,1.492,0,0,0-.172.323c-.012.1.14.124.245.138l-.006.068-.636-.068.007-.064c.172-.006.223-.092.339-.275l.843-1.366.084.007.558,1.452c.112.3.151.391.3.4Zm-.892-.719-.25-.67-.36.6Z" transform="translate(-46.024 -25.794)" fill="#fff"/>
    <path id="Path_244" data-name="Path 244" d="M893.393,878.735c0-.637-.358-.04-.55-.579-.144.455-.574.073-.574.562,0,.192.049.3.141.355v.189a.09.09,0,0,0,.085.089h.673a.086.086,0,0,0,.086-.089v-.2a.413.413,0,0,0,.138-.327m-.55.124c-.186,0-.434.125-.434-.094,0-.309.212-.239.4-.239s.471-.07.471.239c0,.22-.248.094-.433.094" transform="translate(-40.107 -9.025)" fill="#fff"/>
    <path id="Path_245" data-name="Path 245" d="M904.25,893.115a.259.259,0,1,0,0-.514.259.259,0,1,0,0,.514" transform="translate(-45.445 -15.621)" fill="#fff"/>
    <path id="Path_246" data-name="Path 246" d="M901.862,876.257a1.637,1.637,0,0,0-.136.272.139.139,0,1,0,.277,0s-.141-.272-.141-.272" transform="translate(-44.426 -8.158)" fill="#fff"/>
    <path id="Path_247" data-name="Path 247" d="M884.719,876.257a1.65,1.65,0,0,0-.134.272.145.145,0,0,0,.139.154.143.143,0,0,0,.135-.154s-.14-.272-.14-.272" transform="translate(-36.598 -8.158)" fill="#fff"/>
    <path id="Path_248" data-name="Path 248" d="M889,876.257a1.63,1.63,0,0,0-.138.272.14.14,0,1,0,.279,0s-.141-.272-.141-.272" transform="translate(-38.553 -8.158)" fill="#fff"/>
    <path id="Path_249" data-name="Path 249" d="M893.294,876.257a1.64,1.64,0,0,0-.136.272.144.144,0,0,0,.137.154.147.147,0,0,0,.139-.154s-.14-.272-.14-.272" transform="translate(-40.513 -8.158)" fill="#fff"/>
    <path id="Path_250" data-name="Path 250" d="M897.579,876.257a1.64,1.64,0,0,0-.136.272.138.138,0,1,0,.275,0s-.139-.272-.139-.272" transform="translate(-42.47 -8.158)" fill="#fff"/>
    <path id="Path_251" data-name="Path 251" d="M884.724,882.144a1.546,1.546,0,0,1,.135.271.138.138,0,1,1-.274,0s.139-.271.139-.271" transform="translate(-36.598 -10.846)" fill="#fff"/>
    <path id="Path_252" data-name="Path 252" d="M884.724,887.861a1.628,1.628,0,0,1,.135.273.138.138,0,1,1-.274,0c0-.007.139-.273.139-.273" transform="translate(-36.598 -13.457)" fill="#fff"/>
    <path id="Path_253" data-name="Path 253" d="M885.41,892.385a1.529,1.529,0,0,1,.139.273.144.144,0,0,1-.139.15.142.142,0,0,1-.138-.15s.138-.273.138-.273" transform="translate(-36.912 -15.523)" fill="#fff"/>
    <path id="Path_254" data-name="Path 254" d="M889,894.794a1.6,1.6,0,0,1,.138.272.143.143,0,0,1-.138.149.145.145,0,0,1-.141-.149c0-.006.141-.272.141-.272" transform="translate(-38.551 -16.623)" fill="#fff"/>
    <path id="Path_255" data-name="Path 255" d="M902.081,882.144a1.544,1.544,0,0,0-.136.271.139.139,0,1,0,.278,0s-.142-.271-.142-.271" transform="translate(-44.526 -10.846)" fill="#fff"/>
    <path id="Path_256" data-name="Path 256" d="M902.081,887.861a1.627,1.627,0,0,0-.136.273.139.139,0,1,0,.278,0c0-.007-.142-.273-.142-.273" transform="translate(-44.526 -13.457)" fill="#fff"/>
    <path id="Path_257" data-name="Path 257" d="M901.394,892.385a1.534,1.534,0,0,0-.138.273.144.144,0,0,0,.141.15.141.141,0,0,0,.136-.15s-.139-.273-.139-.273" transform="translate(-44.211 -15.523)" fill="#fff"/>
    <path id="Path_258" data-name="Path 258" d="M897.8,894.794a1.605,1.605,0,0,0-.137.272.143.143,0,0,0,.137.149.141.141,0,0,0,.136-.149c0-.006-.136-.272-.136-.272" transform="translate(-42.571 -16.623)" fill="#fff"/>
    <path id="Path_259" data-name="Path 259" d="M893.427,897.339a1.735,1.735,0,0,0-.136.272.141.141,0,0,0,.136.152.146.146,0,0,0,.139-.152s-.139-.272-.139-.272" transform="translate(-40.574 -17.785)" fill="#fff"/>
    <path id="Path_260" data-name="Path 260" d="M898.634,888.427c.023.043.1.06.195.025l.088-.249a.2.2,0,0,0-.168-.1c-.25.062-.512.091-.658.328a.486.486,0,0,0,.234.382c.089-.028.1.06.16.1a.1.1,0,0,1-.1.135c-.173-.179-.482.055-.616-.164.059-.22.175-.473-.014-.679.014-.044.09-.091.043-.132-.072-.209-.289-.044-.423-.044a.56.56,0,0,0-.528.265.425.425,0,0,0,.114.221c.059-.015.09,0,.106.055l-.145.095c.04.042.04.1.059.161-.1.044-.206-.105-.248-.18,0-.116.012-.323-.149-.352a.633.633,0,0,0-.127.043.414.414,0,0,0-.061.241,1.011,1.011,0,0,0,.059.267,2.608,2.608,0,0,1,.554.54c-.132.266-.132.636-.441.782a.246.246,0,0,0-.087.234l.074.061c.19-.107.556-.135.53-.459a1.175,1.175,0,0,1,.274-.384.3.3,0,0,1,.337.163.571.571,0,0,1-.394.442c-.029.032-.017.074-.017.118.061.1.223.058.306.045.254-.163.353-.458.572-.546.036.149-.29.193-.083.337.132-.028.305.017.4-.159-.1-.253.35-.37.074-.593,0-.22.232-.309.216-.544-.089-.239-.367-.239-.438-.457a.314.314,0,0,1,.31,0" transform="translate(-41.991 -13.505)" fill="#fff"/>
    <path id="Path_261" data-name="Path 261" d="M880.575,893.323a.257.257,0,1,0-.293-.254.273.273,0,0,0,.293.254" transform="translate(-34.634 -15.719)" fill="#fff"/>
    <path id="Path_262" data-name="Path 262" d="M852.78,909.534a.276.276,0,1,0-.288-.278.282.282,0,0,0,.288.278" transform="translate(-21.943 -23.102)" fill="#fff"/>
    <path id="Path_263" data-name="Path 263" d="M870.656,913.89h-.02l-.017-.023h0v.016c0,.006,0,.006.006.007h-.031c.008,0,.008,0,.008-.007v-.036c0-.007,0-.007,0-.007l0,0h.029s.025,0,.025.016-.01.012-.013.014l.02.022Zm-.039-.025c.01,0,.016,0,.016-.012a.023.023,0,0,0-.006-.013c-.01,0-.01,0-.01.007Z" transform="translate(-30.209 -25.319)" fill="#fff"/>
    <path id="Path_264" data-name="Path 264" d="M870.75,913.851s-.008-.013-.02-.013a.009.009,0,0,0-.009.007c0,.006,0,.006.009.009l.012.006s.012,0,.012.016,0,.013-.024.013h-.022v-.017h0c.007,0,.009.017.018.017s.012,0,.012-.012a.052.052,0,0,1-.009,0l0-.007c-.02,0-.02-.011-.02-.014a.022.022,0,0,1,.022-.018l.016,0,0,0h0v.018Z" transform="translate(-30.262 -25.317)" fill="#fff"/>
    <path id="Path_265" data-name="Path 265" d="M870.889,913.84s0,0,0,.007l-.018.043h0l-.019-.034-.013.034h-.007l-.018-.043v-.007l-.005,0h.024v0a0,0,0,0,0,0,0v0l.013.031.008-.028v-.006a.008.008,0,0,0-.008,0v0h.03v0c-.006,0-.006,0-.006,0v0l.009.026.015-.026c0-.007,0-.007-.011-.007v0h.019Z" transform="translate(-30.304 -25.319)" fill="#fff"/>
    <path id="Path_266" data-name="Path 266" d="M870.963,913.89a.026.026,0,0,0,.027-.023v0h-.008c-.006,0-.018,0-.018-.014a.021.021,0,0,1,.022-.019.023.023,0,0,1,.018.025c0,.016-.012.028-.04.028m.022-.023h.006v-.008a.131.131,0,0,0,0-.018s-.011.007-.011.01a.047.047,0,0,0,0,.017Z" transform="translate(-30.378 -25.319)" fill="#fff"/>
    <path id="Path_267" data-name="Path 267" d="M871.054,913.856a.064.064,0,0,1,.021,0,.025.025,0,0,1,.008.015c0,.013-.008.017-.029.017,0,0-.012,0-.012,0a.01.01,0,0,1,.01-.007l.017.01a.011.011,0,0,0,.006-.01.027.027,0,0,0-.006-.012h-.024l.01-.03h.029l0,.013h-.024Z" transform="translate(-30.414 -25.319)" fill="#fff"/>
    <path id="Path_268" data-name="Path 268" d="M894.367,875.574v0h-10.75v0l.007,8.214a1.965,1.965,0,0,0,.845,1.795l4.138,2.627a.5.5,0,0,0,.372.17.508.508,0,0,0,.342-.135l4.191-2.662a1.956,1.956,0,0,0,.848-1.795l.01-8.214Zm-.3,8.321a1.846,1.846,0,0,1-.695,1.434l-4.051,2.577h-.023a.509.509,0,0,1-.633,0l-4.043-2.575a1.865,1.865,0,0,1-.7-1.434v-8.031h10.143Z" transform="translate(-36.157 -7.844)" fill="#fff"/>
    <path id="Path_269" data-name="Path 269" d="M896.175,897.559l.131-.062a.708.708,0,0,0-.131.062" transform="translate(-41.891 -17.857)" fill="#fff"/>
    <path id="Path_270" data-name="Path 270" d="M879.46,916.851l-1.016.12-.005-.071c.2-.03.248-.041.24-.128a1.425,1.425,0,0,0-.185-.331l-.7.081a1.441,1.441,0,0,0-.1.354c.009.1.162.09.268.081l.011.066-.635.076-.009-.065c.165-.043.2-.135.271-.341l.53-1.522.084-.009.856,1.3c.173.263.234.347.382.324Zm-1.025-.506-.384-.6-.227.672Z" transform="translate(-33.285 -25.924)" fill="#fff"/>
    <path id="Path_271" data-name="Path 271" d="M894.017,910.342a1.634,1.634,0,0,0-1.055-.965,1.344,1.344,0,0,0-1.338.344c-.555.448-.171,1.194-.156,1.8,0,.125.017.219-.108.28-2.234-.2-4.318-.761-6.538-1-.511-.085-1.025-.067-1.508-.165l-.621-.066a25.872,25.872,0,0,0-5.659.636c-.387.123-.819.153-1.2.3-.276-.047-.509.154-.774.075l-.5.119a.4.4,0,0,1-.17-.01c-.249-.638.491-1.025.26-1.647a1.133,1.133,0,0,0-1.066-.636,1.292,1.292,0,0,0-1.233.636c-.354.776.1,1.584.233,2.348-.03.249.248.526,0,.728a2.106,2.106,0,0,0-1.743-.357c-.185.094-.526-.033-.615.184a4.375,4.375,0,0,0,2.247.281c.1-.028.158-.047.235.019.062.4-.077.945.17,1.3a1.582,1.582,0,0,0,1.186.516,18.324,18.324,0,0,0,3.979-.793c.2-.014.359-.124.569-.124a11.026,11.026,0,0,1,2.192-.294,3.783,3.783,0,0,0-.647,1.4c-.185.417.323.478.477.711a12.7,12.7,0,0,0-1.263.653,17.425,17.425,0,0,0-2.744.451c-.018.2.322.142.354.344-.048.137-.189.155-.292.229-.016.094,0,.109.091.128.093-.109.3-.034.383-.139.311,0,.574-.1.866-.111a2.859,2.859,0,0,0,.788-.309c.32-.092.522-.315.846-.4.462,0,.883-.158,1.311-.188v.094c-.354.577-.727,1.166-1.094,1.712a.173.173,0,0,0,.106.247.787.787,0,0,0,.6-.094c.326-.559.614-1.089.88-1.659a2.225,2.225,0,0,1,.879-1.169c.06-.03.151-.123.215-.03a7.359,7.359,0,0,0-.742,1.089,1.3,1.3,0,0,0,.232,1.348c.186.157.465.114.711.125.6-.309,1.371.188,1.834-.4.277-.049.325.278.474.435.265.077.547.343.808.156-.017-.169-.2-.325-.294-.48-.186-.327-.417-.591-.587-.889a3.33,3.33,0,0,1-.247-.574,5,5,0,0,0,.834.328,5.511,5.511,0,0,1,.833.246,2.817,2.817,0,0,0,.771.591c.383.188.819.219,1.219.375.154.014.383.137.488,0a.607.607,0,0,0-.23-.169c-.048-.205.279-.1.388-.253a.221.221,0,0,0-.179-.115c-.217-.118-.772-.16-.916-.238a4.2,4.2,0,0,1-.538-.17c-.928,0-1.438-.842-2.176-1.154.169-.153.429-.279.539-.511a.865.865,0,0,0,.045-.824c-.134-.481-.76-.42-1.11-.682l.046-.051a6.65,6.65,0,0,1,1.665.22,37.351,37.351,0,0,0,4.4.794c.849,0,1.912.046,2.326-.778.08-.48.17-.963.251-1.443a7.306,7.306,0,0,0,.618-2.345m-16.662,7.081-.216-.2c.111-.143.34-.066.51-.158a2.711,2.711,0,0,1,1.308-.187,3.675,3.675,0,0,1-1.6.543m9.63-.248a6.657,6.657,0,0,0,1.646.39c-.048.21-.426.013-.381.312a3.65,3.65,0,0,1-1.386-.653c.029-.016.059-.064.12-.049m-14.47-6.6a1.133,1.133,0,0,1,.37-.781,1.3,1.3,0,0,1,1.217.052.617.617,0,0,1,.248.292.7.7,0,0,1-.229.7h-.158a1.727,1.727,0,0,1,.092-.7c-.014-.183-.169-.2-.292-.278a.907.907,0,0,0-.7.156.7.7,0,0,0-.2.684c.107.173.016.405.077.589l-.048.064c-.185-.2-.435-.421-.384-.776m.727.444c.225.169.551.094.83.14a.559.559,0,0,1-.079.527c-.26-.061-.6-.03-.737-.279.029-.11-.047-.266-.014-.388m-.049-.523c.049-.123,0-.311.168-.339.106-.032.28-.032.294.09a3.177,3.177,0,0,1-.079.548.36.36,0,0,1-.383-.3m7.236,4.99a1.663,1.663,0,0,1,.494-1.4.888.888,0,0,1,.661.031c-.4.11-.91.2-1,.715.016.2-.043.313.045.482.171.3.561.173.773.4a.2.2,0,0,1-.137.185,5.811,5.811,0,0,1-.833-.415m-.557,1.067c.367-.151.754-.477,1.17-.339a2.088,2.088,0,0,1-1.17.339m1.465.158a11.583,11.583,0,0,1-.755,1.46c-.033.076-.152.1-.247.108,0-.215.214-.385.306-.573.325-.418.418-.87.79-1.275.092.093-.094.155-.094.28m.385-.9v.061h-.034v-.08h.066a.092.092,0,0,0-.066.019Zm-.137-.422a3.824,3.824,0,0,1-.744-.187c-.15-.155,0-.323,0-.5a.792.792,0,0,1,1.131-.2,1.658,1.658,0,0,1-.386.884m.337,0a2.57,2.57,0,0,1,.25-.653,1.315,1.315,0,0,1-.25.653m.171-1.258c-.2-.047-.309-.278-.525-.278a1.206,1.206,0,0,1,.588-.015c.076.109-.049.2-.064.293m.185.468h-.015v-.173h.015Zm.015.713c-.015-.06.033-.141.049-.216.076-.078.151.06.182.106a.232.232,0,0,1-.232.111m.232-.962a1.819,1.819,0,0,1,.233-.578.842.842,0,0,1,.412.065c.034.309.421.727,0,.992-.134.062-.339.2-.49.062a.432.432,0,0,1-.155-.541m1.124-.438c-.029-.14.144-.029.2-.09l.481.031c-.247-.031-.556.543-.682.059m.774.2c-.186.061-.323.281-.509.325a.636.636,0,0,1,.509-.325m-.648,1.01h-.016v-.045h.016Zm.03.9c-.012.033.019.078-.03.112l-.354-.286a.377.377,0,0,1,.384.174m-.416-.483a.114.114,0,0,1,.138,0Zm-.219-.23c.067-.093.142-.232.251-.232,0,.016.016.027.033.045a.82.82,0,0,1-.284.187m-.349-.033h-.062l.092-.093c.046.033-.019.066-.03.093m.043.592c.2-.217.39.124.467.3.228.341.832.653.6,1.12-.292.261-.76.014-1.079.217-.171-.019-.465.029-.557-.142a9.218,9.218,0,0,1,.57-1.49m-.429.3.077-.127a6.679,6.679,0,0,1-.51,1.119c-.093-.37.292-.665.433-.992m.678,1.848c-.292.015-.741.185-1.018-.061.014-.127-.121-.185-.1-.313.243-.092.46.2.69-.011a5.606,5.606,0,0,1,1.078.03c.171.046.43-.281.463.046-.121.515-.738.154-1.109.31m.9-2.285h.03v.046h-.03Zm.091,1.027c.017.158.168.213.078.359a.474.474,0,0,1-.078-.359m.434.93-.078.035c-.078-.064-.052-.238-.033-.328.091.076.17.184.111.293m.769.375c-.016.047-.092.047-.122.014a8.277,8.277,0,0,1-.974-1.863l.061-.015c.37.606.664,1.273,1.035,1.864m.572-1.428a.058.058,0,0,0-.033.062,1.773,1.773,0,0,1-1.08-.483l-.016-.076a2.853,2.853,0,0,1,1.129.5m-.4-2.069c.187.046.2.25.222.4a.834.834,0,0,1-.529.76.816.816,0,0,1-.6.061.982.982,0,0,0,.928-.527Zm-.336-.06a1.027,1.027,0,0,1,.136.681c-.153.3-.463.3-.737.357a.473.473,0,0,1-.355-.108.174.174,0,0,0-.061-.155c.046-.2-.359-.4-.078-.574.242-.232.83-.759,1.095-.2m7.831-1.135c-.12.156-.012.4-.168.543,0,.28-.232.419-.431.528-1.835.407-3.639-.215-5.411-.528a18.847,18.847,0,0,0-7.913-.121c-1.191.217-2.347.494-3.485.82a5.046,5.046,0,0,1-2.161-.013c-.555-.267-.327-.98-.494-1.478a7.846,7.846,0,0,0-.125-1.071,1,1,0,0,1-.06-.4,6.414,6.414,0,0,1,.707.264,9.634,9.634,0,0,0,3.657-.389,26.888,26.888,0,0,1,3.562-.543,22.865,22.865,0,0,1,4.137.138c.431.015.8.125,1.217.155.865.111,1.669.342,2.543.4a4.292,4.292,0,0,0,.466.078c1.386.22,2.945.607,4.268,0a10.969,10.969,0,0,1-.309,1.615m-.43-1.894c.017.247-.215.185-.338.279h-.369a.846.846,0,0,1-.049-.437,2.908,2.908,0,0,1,.756.158m-.169-.391c.169-.169-.046-1.149.431-.51,0,.124.017.311-.108.4-.076.061-.2.186-.323.106m1.251-.155a.892.892,0,0,1-.664.53c.012-.375.357-.638.23-1.056a.925.925,0,0,0-.973-.314c-.136.094-.076.252-.124.389l-.061.511c-.308,0-.321-.274-.416-.5a.9.9,0,0,1,.477-.805,1.061,1.061,0,0,1,.9.032.681.681,0,0,1,.506.323c.232.219.171.607.126.885" transform="translate(-30.038 -23.262)" fill="#fff"/>
    <rect id="Rectangle_51" data-name="Rectangle 51" width="0.493" height="48.874" transform="translate(913.611 858.392)" fill="#fff"/>
  </g>
</svg>
